<svg width="69" height="54" viewBox="0 0 69 54" fill="none" xmlns="http://www.w3.org/2000/svg">
<circle cx="42" cy="27" r="27" fill="url(#paint0_linear_302_62)"/>
<path d="M15.147 40.33C10.417 40.33 6.93 39.241 4.686 37.063C2.442 34.885 1.32 31.86 1.32 27.988C1.32 24.138 2.442 21.135 4.686 18.979C6.952 16.801 10.439 15.712 15.147 15.712C19.855 15.712 23.331 16.801 25.575 18.979C27.819 21.135 28.941 24.138 28.941 27.988C28.941 31.86 27.819 34.885 25.575 37.063C23.331 39.241 19.855 40.33 15.147 40.33ZM15.18 34.555C17.204 34.555 18.678 33.939 19.602 32.707C20.526 31.453 20.988 29.88 20.988 27.988C20.988 26.118 20.526 24.567 19.602 23.335C18.678 22.081 17.204 21.454 15.18 21.454C13.09 21.454 11.572 22.081 10.626 23.335C9.702 24.567 9.24 26.118 9.24 27.988C9.24 29.858 9.702 31.42 10.626 32.674C11.572 33.928 13.09 34.555 15.18 34.555ZM45.6717 33.895C47.6517 33.851 49.1147 33.807 50.0607 33.763V40H32.6037V33.763C34.9797 33.851 36.7727 33.895 37.9827 33.895V22.51C37.1907 24.248 35.5737 25.37 33.1317 25.876C33.0657 23.28 32.8237 20.915 32.4057 18.781C34.1657 18.539 35.3867 18.242 36.0687 17.89C36.7727 17.516 37.3117 17.109 37.6857 16.669C38.0817 16.229 38.3457 15.932 38.4777 15.778V15.712H45.6717V33.895Z" fill="white"/>
<defs>
<linearGradient id="paint0_linear_302_62" x1="7.8871" y1="27" x2="77.8548" y2="34.1129" gradientUnits="userSpaceOnUse">
<stop stop-color="white" stop-opacity="0.65"/>
<stop offset="1" stop-color="#131DFF" stop-opacity="0.83"/>
</linearGradient>
</defs>
</svg>
