<svg width="79" height="63" viewBox="0 0 79 63" fill="none" xmlns="http://www.w3.org/2000/svg">
<circle cx="47.0196" cy="31.105" r="31.105" fill="url(#paint0_linear_66_32)"/>
<path d="M15.147 44.33C10.417 44.33 6.93 43.241 4.686 41.063C2.442 38.885 1.32 35.86 1.32 31.988C1.32 28.138 2.442 25.135 4.686 22.979C6.952 20.801 10.439 19.712 15.147 19.712C19.855 19.712 23.331 20.801 25.575 22.979C27.819 25.135 28.941 28.138 28.941 31.988C28.941 35.86 27.819 38.885 25.575 41.063C23.331 43.241 19.855 44.33 15.147 44.33ZM15.18 38.555C17.204 38.555 18.678 37.939 19.602 36.707C20.526 35.453 20.988 33.88 20.988 31.988C20.988 30.118 20.526 28.567 19.602 27.335C18.678 26.081 17.204 25.454 15.18 25.454C13.09 25.454 11.572 26.081 10.626 27.335C9.702 28.567 9.24 30.118 9.24 31.988C9.24 33.858 9.702 35.42 10.626 36.674C11.572 37.928 13.09 38.555 15.18 38.555ZM40.6887 38.225C47.8387 37.829 53.3827 37.389 57.3207 36.905C56.9467 38.049 56.6607 39.259 56.4627 40.535C56.2647 41.811 56.1657 42.966 56.1657 44H32.5707L32.5377 43.307C32.5377 41.151 33.1647 39.281 34.4187 37.697C35.6947 36.113 37.4657 34.65 39.7317 33.308C40.3917 32.912 41.4257 32.406 42.8337 31.79C44.6597 30.998 46.0677 30.305 47.0577 29.711C48.0477 29.095 48.5427 28.49 48.5427 27.896C48.5427 27.148 48.2347 26.554 47.6187 26.114C47.0027 25.674 46.0457 25.454 44.7477 25.454C43.3177 25.454 42.2287 25.817 41.4807 26.543C40.7547 27.269 40.3917 28.193 40.3917 29.315C40.3917 29.667 40.4247 30.03 40.4907 30.404C37.7187 30.052 35.0237 29.81 32.4057 29.678C32.4057 27.808 32.8897 26.125 33.8577 24.629C34.8477 23.111 36.3217 21.912 38.2797 21.032C40.2597 20.152 42.6797 19.712 45.5397 19.712C48.1577 19.712 50.3357 20.075 52.0737 20.801C53.8337 21.505 55.1207 22.407 55.9347 23.507C56.7707 24.585 57.1887 25.696 57.1887 26.84C57.1887 28.16 56.8917 29.293 56.2977 30.239C55.7257 31.185 54.8897 32.032 53.7897 32.78C52.7117 33.506 51.2597 34.298 49.4337 35.156C49.1697 35.288 48.7407 35.442 48.1467 35.618C47.5527 35.772 47.1787 35.871 47.0247 35.915C45.4627 36.377 44.2197 36.762 43.2957 37.07C42.3717 37.378 41.5027 37.763 40.6887 38.225Z" fill="white"/>
<defs>
<linearGradient id="paint0_linear_66_32" x1="7.72022" y1="31.105" x2="88.3257" y2="39.2993" gradientUnits="userSpaceOnUse">
<stop stop-color="white" stop-opacity="0.65"/>
<stop offset="1" stop-color="#131DFF" stop-opacity="0.83"/>
</linearGradient>
</defs>
</svg>
