<svg width="79" height="63" viewBox="0 0 79 63" fill="none" xmlns="http://www.w3.org/2000/svg">
<circle cx="47.0196" cy="31.105" r="31.105" fill="url(#paint0_linear_66_33)"/>
<path d="M15.147 44.33C10.417 44.33 6.93 43.241 4.686 41.063C2.442 38.885 1.32 35.86 1.32 31.988C1.32 28.138 2.442 25.135 4.686 22.979C6.952 20.801 10.439 19.712 15.147 19.712C19.855 19.712 23.331 20.801 25.575 22.979C27.819 25.135 28.941 28.138 28.941 31.988C28.941 35.86 27.819 38.885 25.575 41.063C23.331 43.241 19.855 44.33 15.147 44.33ZM15.18 38.555C17.204 38.555 18.678 37.939 19.602 36.707C20.526 35.453 20.988 33.88 20.988 31.988C20.988 30.118 20.526 28.567 19.602 27.335C18.678 26.081 17.204 25.454 15.18 25.454C13.09 25.454 11.572 26.081 10.626 27.335C9.702 28.567 9.24 30.118 9.24 31.988C9.24 33.858 9.702 35.42 10.626 36.674C11.572 37.928 13.09 38.555 15.18 38.555ZM50.8197 31.856C51.6117 31.702 52.3927 31.625 53.1627 31.625C54.5047 31.625 55.5937 31.856 56.4297 32.318C57.2877 32.758 57.9037 33.33 58.2777 34.034C58.6517 34.716 58.8387 35.431 58.8387 36.179C58.8387 37.917 58.2667 39.402 57.1227 40.634C55.9787 41.844 54.4277 42.768 52.4697 43.406C50.5117 44.022 48.3337 44.33 45.9357 44.33C38.9837 44.33 34.4847 41.91 32.4387 37.07L34.2867 36.608C35.6507 36.278 36.8057 35.97 37.7517 35.684C38.7197 35.376 39.5667 35.035 40.2927 34.661C40.7327 35.761 41.3597 36.553 42.1737 37.037C43.0097 37.499 44.1537 37.73 45.6057 37.73C47.1457 37.73 48.3997 37.554 49.3677 37.202C50.3357 36.85 50.8197 36.322 50.8197 35.618C50.8197 35.244 50.6327 34.958 50.2587 34.76C49.8847 34.562 49.2907 34.43 48.4767 34.364C47.6627 34.276 46.5187 34.232 45.0447 34.232H42.5367V28.457H44.0547C45.7267 28.457 47.0907 28.391 48.1467 28.259C49.2027 28.105 49.7307 27.786 49.7307 27.302C49.7307 26.752 49.4447 26.312 48.8727 25.982C48.3227 25.63 47.4537 25.454 46.2657 25.454C44.7257 25.454 43.4717 25.773 42.5037 26.411C41.5577 27.049 40.8207 27.973 40.2927 29.183C37.9387 28.237 35.4307 27.566 32.7687 27.17C33.8247 24.794 35.4417 22.957 37.6197 21.659C39.8197 20.361 42.6467 19.712 46.1007 19.712C48.3447 19.712 50.3577 20.009 52.1397 20.603C53.9437 21.175 55.3517 21.978 56.3637 23.012C57.3977 24.046 57.9147 25.201 57.9147 26.477C57.9147 27.225 57.7387 27.896 57.3867 28.49C57.0347 29.062 56.3417 29.634 55.3077 30.206C54.2737 30.756 52.7777 31.306 50.8197 31.856Z" fill="white"/>
<defs>
<linearGradient id="paint0_linear_66_33" x1="7.72022" y1="31.105" x2="88.3257" y2="39.2993" gradientUnits="userSpaceOnUse">
<stop stop-color="white" stop-opacity="0.65"/>
<stop offset="1" stop-color="#131DFF" stop-opacity="0.83"/>
</linearGradient>
</defs>
</svg>
