<svg width="74" height="63" viewBox="0 0 74 63" fill="none" xmlns="http://www.w3.org/2000/svg">
<circle cx="42.3267" cy="31.105" r="31.105" fill="url(#paint0_linear_53_173)"/>
<path d="M15.147 44.33C10.417 44.33 6.93 43.241 4.686 41.063C2.442 38.885 1.32 35.86 1.32 31.988C1.32 28.138 2.442 25.135 4.686 22.979C6.952 20.801 10.439 19.712 15.147 19.712C19.855 19.712 23.331 20.801 25.575 22.979C27.819 25.135 28.941 28.138 28.941 31.988C28.941 35.86 27.819 38.885 25.575 41.063C23.331 43.241 19.855 44.33 15.147 44.33ZM15.18 38.555C17.204 38.555 18.678 37.939 19.602 36.707C20.526 35.453 20.988 33.88 20.988 31.988C20.988 30.118 20.526 28.567 19.602 27.335C18.678 26.081 17.204 25.454 15.18 25.454C13.09 25.454 11.572 26.081 10.626 27.335C9.702 28.567 9.24 30.118 9.24 31.988C9.24 33.858 9.702 35.42 10.626 36.674C11.572 37.928 13.09 38.555 15.18 38.555ZM60.2577 33.605V39.809H55.7697V44H47.8827C47.9707 43.076 48.0367 41.679 48.0807 39.809H32.4057V33.143C37.5317 29.205 42.1077 24.838 46.1337 20.042H55.7697V33.605H60.2577ZM48.2457 26.576C46.7277 28.138 45.4187 29.447 44.3187 30.503C43.2187 31.537 41.9757 32.571 40.5897 33.605H48.1467L48.2457 26.576Z" fill="white"/>
<defs>
<linearGradient id="paint0_linear_53_173" x1="3.02735" y1="31.105" x2="83.6328" y2="39.2993" gradientUnits="userSpaceOnUse">
<stop stop-color="white" stop-opacity="0.65"/>
<stop offset="1" stop-color="#131DFF" stop-opacity="0.83"/>
</linearGradient>
</defs>
</svg>
