<svg width="74" height="63" viewBox="0 0 74 63" fill="none" xmlns="http://www.w3.org/2000/svg">
<circle cx="42.3267" cy="31.105" r="31.105" fill="url(#paint0_linear_66_73)"/>
<path d="M15.147 44.33C10.417 44.33 6.93 43.241 4.686 41.063C2.442 38.885 1.32 35.86 1.32 31.988C1.32 28.138 2.442 25.135 4.686 22.979C6.952 20.801 10.439 19.712 15.147 19.712C19.855 19.712 23.331 20.801 25.575 22.979C27.819 25.135 28.941 28.138 28.941 31.988C28.941 35.86 27.819 38.885 25.575 41.063C23.331 43.241 19.855 44.33 15.147 44.33ZM15.18 38.555C17.204 38.555 18.678 37.939 19.602 36.707C20.526 35.453 20.988 33.88 20.988 31.988C20.988 30.118 20.526 28.567 19.602 27.335C18.678 26.081 17.204 25.454 15.18 25.454C13.09 25.454 11.572 26.081 10.626 27.335C9.702 28.567 9.24 30.118 9.24 31.988C9.24 33.858 9.702 35.42 10.626 36.674C11.572 37.928 13.09 38.555 15.18 38.555ZM47.5197 27.137C50.0277 27.137 52.1287 27.489 53.8227 28.193C55.5387 28.875 56.8147 29.81 57.6507 30.998C58.5087 32.164 58.9377 33.473 58.9377 34.925C58.9377 38.225 57.7827 40.623 55.4727 42.119C53.1847 43.593 50.1157 44.33 46.2657 44.33C43.0317 44.33 40.1827 43.791 37.7187 42.713C35.2767 41.613 33.5057 39.776 32.4057 37.202C33.6157 37.026 34.9357 36.74 36.3657 36.344C37.8177 35.948 39.1267 35.541 40.2927 35.123C40.7547 36.069 41.4037 36.762 42.2397 37.202C43.0757 37.62 44.1977 37.829 45.6057 37.829C47.1017 37.829 48.3337 37.587 49.3017 37.103C50.2917 36.619 50.7867 35.948 50.7867 35.09C50.7867 34.21 50.3577 33.473 49.4997 32.879C48.6417 32.285 47.3327 31.988 45.5727 31.988C44.4287 31.988 43.3837 32.197 42.4377 32.615C41.4917 33.011 40.8097 33.583 40.3917 34.331H32.7687C33.2967 32.065 33.7587 29.623 34.1547 27.005C34.5727 24.387 34.8257 22.066 34.9137 20.042H58.0797V26.444C55.6377 26.29 53.3277 26.202 51.1497 26.18C48.9937 26.136 45.9687 26.114 42.0747 26.114L41.7447 27.962C43.4167 27.412 45.3417 27.137 47.5197 27.137Z" fill="white"/>
<defs>
<linearGradient id="paint0_linear_66_73" x1="3.02735" y1="31.105" x2="83.6328" y2="39.2993" gradientUnits="userSpaceOnUse">
<stop stop-color="white" stop-opacity="0.65"/>
<stop offset="1" stop-color="#FF13A1" stop-opacity="0.83"/>
</linearGradient>
</defs>
</svg>
