<svg width="35" height="35" viewBox="0 0 35 35" fill="none" xmlns="http://www.w3.org/2000/svg">
<path d="M12.1034 30.202L1.15204 19.2507C0.587666 18.6863 0.587666 17.7719 1.15204 17.2076L4.08256 14.277C4.64693 13.7127 5.56131 13.7127 6.12568 14.277L17.077 25.2284C17.6414 25.7928 17.6414 26.7071 17.077 27.2715L14.1465 30.202C13.5821 30.7657 12.6678 30.7657 12.1034 30.202V30.202Z" fill="url(#paint0_linear_358_13)"/>
<path d="M9.17298 25.2284L28.8743 5.52704C29.4387 4.96267 30.3531 4.96267 30.9174 5.52704L33.848 8.45756C34.4123 9.02193 34.4123 9.93631 33.848 10.5007L14.1466 30.202C13.5822 30.7664 12.6679 30.7664 12.1035 30.202L9.17298 27.2715C8.60933 26.7071 8.60933 25.7928 9.17298 25.2284V25.2284Z" fill="url(#paint1_linear_358_13)"/>
<defs>
<linearGradient id="paint0_linear_358_13" x1="15.4882" y1="28.6132" x2="2.58194" y2="15.7069" gradientUnits="userSpaceOnUse">
<stop offset="0.108" stop-color="#EEF0FF"/>
<stop offset="0.433" stop-color="#F1F9FE"/>
</linearGradient>
<linearGradient id="paint1_linear_358_13" x1="32.3826" y1="6.99258" x2="10.6386" y2="28.7373" gradientUnits="userSpaceOnUse">
<stop stop-color="#E0E7F7"/>
<stop offset="1" stop-color="#D3DFEB"/>
</linearGradient>
</defs>
</svg>
