<svg width="166" height="46" viewBox="0 0 166 46" fill="none" xmlns="http://www.w3.org/2000/svg">
<g filter="url(#filter0_i_174_11)">
<path d="M1.6709 22.5066C1.6709 19.5793 2.21931 16.8536 3.31631 14.3295C4.41314 11.7878 5.99755 9.58799 8.06953 7.73007C10.1589 5.85449 12.7009 4.38208 15.6957 3.31287C18.7079 2.24365 22.1117 1.70887 25.9075 1.70887C29.2331 1.70887 32.2801 2.0508 35.0484 2.73433C37.8343 3.40053 40.4199 4.42583 42.8053 5.81073L38.9921 12.121C38.2782 11.6477 37.4511 11.227 36.5109 10.859C35.5881 10.4908 34.5957 10.184 33.5337 9.93868C32.489 9.67566 31.4007 9.47407 30.2691 9.3339C29.1547 9.19372 28.049 9.12355 26.9522 9.12355C24.3055 9.12355 21.9464 9.45657 19.8744 10.1226C17.8024 10.7713 16.0526 11.6914 14.6249 12.8835C13.2145 14.0579 12.1351 15.4689 11.3864 17.1166C10.6552 18.7467 10.2894 20.5435 10.2894 22.5066C10.2894 24.54 10.6725 26.4067 11.4386 28.1071C12.2048 29.8074 13.3103 31.2798 14.7555 32.5243C16.218 33.7512 17.994 34.7153 20.0834 35.4165C22.1901 36.1002 24.5668 36.4419 27.2133 36.4419C28.4147 36.4419 29.6073 36.3543 30.7913 36.1789C31.9753 36.0037 33.1158 35.767 34.2126 35.4691C35.327 35.1534 36.3978 34.7854 37.4251 34.3647C38.4524 33.9266 39.41 33.4532 40.298 32.945L44.111 39.2553C41.8824 40.6925 39.3055 41.8232 36.3804 42.647C33.4553 43.4532 30.3473 43.8564 27.0567 43.8564C22.8605 43.8564 19.1779 43.3131 16.0091 42.2264C12.8403 41.122 10.1937 39.6146 8.06953 37.704C5.9454 35.7757 4.34344 33.5146 3.264 30.9203C2.20193 28.3085 1.6709 25.5041 1.6709 22.5066ZM47.9764 2.20848H57.0129L68.0865 28.7381L70.6459 35.1534L72.6569 28.7381L76.7312 19.0624L69.3923 2.20848H77.9066L80.9099 10.2279L83.7045 2.20848H92.2185L84.8797 19.0624L89.0323 28.9485L91.5396 35.1534L93.4721 28.8431L104.598 2.20848H113.635L95.6138 43.3043H87.413L83.7828 35.1534L80.8317 27.2393L77.8803 35.1534L74.1979 43.3043H65.9972L47.9764 2.20848ZM121.861 31.0782C123.341 31.9195 124.839 32.682 126.354 33.3657C127.886 34.0317 129.47 34.6013 131.107 35.0747C132.743 35.5304 134.459 35.8809 136.252 36.1264C138.062 36.3717 139.986 36.4944 142.024 36.4944C144.479 36.4944 146.568 36.3367 148.292 36.0212C150.015 35.6882 151.417 35.2411 152.497 34.6803C153.594 34.1017 154.386 33.4182 154.874 32.6293C155.379 31.8406 155.631 30.9817 155.631 30.0527C155.631 28.5628 155.013 27.3884 153.776 26.5294C152.541 25.653 150.633 25.2148 148.056 25.2148C146.924 25.2148 145.733 25.2937 144.479 25.4514C143.225 25.5917 141.953 25.7494 140.666 25.9248C139.394 26.0999 138.132 26.2665 136.879 26.4244C135.642 26.5645 134.476 26.6347 133.379 26.6347C131.551 26.6347 129.792 26.3979 128.103 25.9248C126.432 25.4514 124.943 24.7416 123.637 23.7949C122.349 22.8485 121.322 21.6652 120.556 20.2455C119.789 18.8256 119.406 17.1693 119.406 15.2762C119.406 14.1543 119.554 13.0412 119.85 11.9369C120.164 10.8326 120.651 9.78084 121.313 8.78179C121.992 7.76508 122.863 6.82728 123.925 5.96841C124.987 5.09203 126.266 4.33833 127.764 3.7073C129.279 3.07627 131.02 2.58541 132.987 2.2349C134.972 1.86671 137.226 1.68262 139.752 1.68262C141.581 1.68262 143.416 1.78779 145.263 1.99813C147.108 2.19097 148.902 2.47149 150.642 2.8395C152.4 3.20769 154.09 3.65463 155.71 4.18049C157.328 4.68885 158.834 5.25845 160.228 5.88948L156.597 12.6205C155.447 12.1121 154.212 11.6477 152.888 11.227C151.564 10.7888 150.18 10.4119 148.736 10.0963C147.29 9.78083 145.793 9.53549 144.243 9.36014C142.712 9.1673 141.144 9.07088 139.543 9.07088C137.262 9.07088 135.381 9.23747 133.901 9.57049C132.439 9.9035 131.272 10.3329 130.402 10.859C129.531 11.3672 128.922 11.9457 128.573 12.5942C128.243 13.2252 128.077 13.8563 128.077 14.4873C128.077 15.7144 128.626 16.7222 129.723 17.511C130.82 18.2822 132.491 18.6679 134.737 18.6679C135.642 18.6679 136.678 18.6065 137.845 18.4838C139.028 18.3437 140.265 18.1946 141.554 18.0369C142.859 17.879 144.183 17.7389 145.524 17.6162C146.881 17.4759 148.196 17.4059 149.467 17.4059C151.87 17.4059 153.995 17.6775 155.84 18.221C157.702 18.7643 159.262 19.5443 160.515 20.561C161.769 21.56 162.717 22.7784 163.362 24.2156C164.005 25.6355 164.328 27.2306 164.328 29.001C164.328 31.3673 163.78 33.4796 162.682 35.3375C161.603 37.1781 160.054 38.7382 158.033 40.0177C156.031 41.2798 153.61 42.2439 150.774 42.9099C147.936 43.5584 144.775 43.8829 141.293 43.8829C138.995 43.8829 136.748 43.7338 134.554 43.4358C132.361 43.1554 130.254 42.7522 128.234 42.2264C126.232 41.683 124.316 41.0431 122.488 40.307C120.677 39.5532 118.997 38.7293 117.448 37.8354L121.861 31.0782Z" fill="#808080"/>
<path d="M3.3169 14.3296L4.84816 15.0042L4.84983 15.0002L3.3169 14.3296ZM8.07012 7.7302L9.18183 8.9867L9.1825 8.9862L8.07012 7.7302ZM15.6963 3.313L15.1405 1.726L15.1375 1.72701L15.6963 3.313ZM35.049 2.73446L34.6508 4.36892L34.6629 4.37178L35.049 2.73446ZM42.8059 5.81086L44.2338 6.68538L45.123 5.21365L43.6408 4.3531L42.8059 5.81086ZM38.9927 12.1212L38.0734 13.5264L39.5204 14.4858L40.4206 12.9957L38.9927 12.1212ZM36.5115 10.8591L35.8959 12.4235L35.9058 12.4274L36.5115 10.8591ZM33.5343 9.93881L33.1288 11.5712L33.1445 11.5753L33.1604 11.5788L33.5343 9.93881ZM30.2697 9.33403L30.0622 11.0038L30.0654 11.0042L30.2697 9.33403ZM19.875 10.1227L20.3713 11.7297L20.3835 11.7259L19.875 10.1227ZM14.6255 12.8836L15.6908 14.1802L15.6924 14.1788L14.6255 12.8836ZM11.387 17.1167L9.86697 16.4167L9.86363 16.4241L11.387 17.1167ZM11.4392 28.1072L9.91695 28.8022L11.4392 28.1072ZM14.7561 32.5245L13.6694 33.8032L13.686 33.8171L14.7561 32.5245ZM20.084 35.4166L19.5554 37.013L19.5711 37.0182L20.084 35.4166ZM34.2132 35.4693L34.6488 37.094L34.6659 37.0891L34.2132 35.4693ZM37.4257 34.3649L38.0555 35.9236L38.0667 35.9191L38.0777 35.9143L37.4257 34.3649ZM40.2986 32.9451L41.7266 32.0704L40.8831 30.6746L39.4722 31.4823L40.2986 32.9451ZM44.1116 39.2554L45.0132 40.6723L46.3884 39.7853L45.5396 38.3807L44.1116 39.2554ZM36.381 42.6472L36.8224 44.2702L36.8313 44.2677L36.381 42.6472ZM16.0097 42.2265L15.463 43.8167L15.4706 43.8194L16.0097 42.2265ZM8.07012 37.7041L6.95089 38.9539L6.95641 38.9589L8.07012 37.7041ZM3.26459 30.9205L1.71762 31.5581L1.72297 31.5707L3.26459 30.9205ZM3.34298 22.5067C3.34298 19.7968 3.84944 17.3025 4.84816 15.0042L1.78549 13.6552C0.590372 16.4051 0 19.362 0 22.5067H3.34298ZM4.84983 15.0002C5.84938 12.6842 7.28937 10.6838 9.18183 8.9867L6.95841 6.4737C4.70692 8.49266 2.97809 10.8919 1.78381 13.6592L4.84983 15.0002ZM9.1825 8.9862C11.09 7.27384 13.4369 5.90509 16.2551 4.89898L15.1375 1.72701C11.9662 2.85933 9.22896 4.43521 6.95774 6.4742L9.1825 8.9862ZM16.2521 4.89999C19.0557 3.90482 22.2669 3.39175 25.9081 3.39175V0.0262544C21.9579 0.0262544 18.3613 0.582741 15.1405 1.726L16.2521 4.89999ZM25.9081 3.39175C29.121 3.39175 32.0323 3.72224 34.6508 4.36875L35.4471 1.10018C32.529 0.379629 29.3462 0.0262544 25.9081 0.0262544V3.39175ZM34.6629 4.37178C37.2975 5.00163 39.7311 5.96836 41.9708 7.26845L43.6408 4.3531C41.1098 2.88373 38.3722 1.79953 35.4353 1.09732L34.6629 4.37178ZM41.3777 4.93617L37.5647 11.2465L40.4206 12.9957L44.2338 6.68538L41.3777 4.93617ZM39.912 10.7157C39.0839 10.1666 38.1484 9.6943 37.1174 9.29061L35.9058 12.4274C36.7551 12.7599 37.4738 13.129 38.0734 13.5264L39.912 10.7157ZM37.1273 9.29465C36.1187 8.89231 35.0448 8.56131 33.9082 8.29863L33.1604 11.5788C34.1479 11.807 35.0588 12.0895 35.8959 12.4234L37.1273 9.29465ZM33.9396 8.3062C32.8249 8.02569 31.6694 7.81198 30.4738 7.6639L30.0654 11.0042C31.1333 11.1364 32.1541 11.3259 33.1288 11.5712L33.9396 8.3062ZM30.4769 7.66424C29.2954 7.51565 28.1206 7.44094 26.9528 7.44094V10.8064C27.9787 10.8064 29.0151 10.8721 30.0622 11.0038L30.4769 7.66424ZM26.9528 7.44094C24.1697 7.44094 21.6341 7.79095 19.3666 8.51975L20.3835 11.7259C22.2599 11.1226 24.4427 10.8064 26.9528 10.8064V7.44094ZM19.3788 8.51588C17.1331 9.21893 15.1805 10.2341 13.5585 11.5882L15.6924 14.1788C16.926 13.1491 18.473 12.3239 20.3713 11.7297L19.3788 8.51588ZM13.5601 11.5869C11.9588 12.9203 10.7224 14.5342 9.86697 16.4167L12.9069 17.8167C13.5489 16.4039 14.4714 15.1957 15.6908 14.1802L13.5601 11.5869ZM9.86363 16.4241C9.02554 18.2925 8.61854 20.3282 8.61854 22.5067H11.9615C11.9615 20.7589 12.286 19.2013 12.9103 17.8093L9.86363 16.4241ZM8.61854 22.5067C8.61854 24.7582 9.0441 26.8649 9.91695 28.8022L12.9614 27.4121C12.3022 25.949 11.9615 24.3219 11.9615 22.5067H8.61854ZM9.91695 28.8022C10.7868 30.7327 12.0434 32.4026 13.6696 33.8032L15.8425 31.2456C14.5786 30.157 13.6238 28.8822 12.9614 27.4121L9.91695 28.8022ZM13.686 33.8171C15.3317 35.1977 17.2989 36.2558 19.5554 37.013L20.6125 33.8202C18.6903 33.1752 17.1055 32.305 15.8262 31.2316L13.686 33.8171ZM19.5711 37.0182C21.8724 37.7649 24.4263 38.1248 27.2139 38.1248V34.7593C24.7085 34.7593 22.5091 34.4355 20.5968 33.815L19.5711 37.0182ZM27.2139 38.1248C28.4964 38.1248 29.7702 38.0312 31.0351 37.8439L30.5488 34.5143C29.4456 34.6775 28.3343 34.7593 27.2139 34.7593V38.1248ZM31.0351 37.8439C32.2805 37.6595 33.4853 37.4098 34.6486 37.0938L33.7778 33.8446C32.7473 34.1244 31.6714 34.348 30.5488 34.5143L31.0351 37.8439ZM34.6659 37.0891C35.8377 36.7572 36.9678 36.369 38.0555 35.9236L36.7958 32.8061C35.8289 33.2021 34.8175 33.5501 33.7608 33.8493L34.6659 37.0891ZM38.0777 35.9143C39.1593 35.4529 40.1756 34.9511 41.1248 34.4078L39.4722 31.4823C38.6455 31.9555 37.7466 32.4004 36.7736 32.8154L38.0777 35.9143ZM38.8705 33.8197L42.6837 40.13L45.5396 38.3807L41.7266 32.0704L38.8705 33.8197ZM43.21 37.8384C41.1397 39.1737 38.7192 40.2412 35.9307 41.0267L36.8313 44.2677C39.8929 43.4054 42.6262 42.2118 45.0132 40.6723L43.21 37.8384ZM35.9395 41.0242C33.1699 41.7876 30.2113 42.1738 27.0572 42.1738V45.5393C30.4845 45.5393 33.7419 45.1193 36.8224 44.2702L35.9395 41.0242ZM27.0572 42.1738C23 42.1738 19.5065 41.648 16.5488 40.6336L15.4706 43.8194C18.8507 44.9785 22.7222 45.5393 27.0572 45.5393V42.1738ZM16.5564 40.6363C13.5603 39.5921 11.1164 38.1876 9.18383 36.4493L6.95641 38.9589C9.27226 41.0418 12.1215 42.6522 15.463 43.8167L16.5564 40.6363ZM9.18935 36.4543C7.24374 34.6881 5.7882 32.6303 4.8062 30.2703L1.72297 31.5707C2.89987 34.3992 4.64808 36.8636 6.95089 38.9539L9.18935 36.4543ZM4.81138 30.283C3.83674 27.886 3.34298 25.2992 3.34298 22.5067H0C0 25.709 0.568307 28.7315 1.71779 31.5581L4.81138 30.283ZM47.9769 2.2086V0.525858H45.4119L46.4479 2.88827L47.9769 2.2086ZM57.0135 2.2086L58.5545 1.55671L58.1241 0.525858H57.0135V2.2086ZM68.0871 28.7383L69.6381 28.1109L69.6331 28.0987L69.6281 28.0862L68.0871 28.7383ZM70.6465 35.1536L69.0954 35.7809L70.8356 40.1424L72.2405 35.6601L70.6465 35.1536ZM72.6575 28.7383L71.1185 28.0815L71.0875 28.1552L71.0636 28.2318L72.6575 28.7383ZM76.7318 19.0625L78.2707 19.7191L78.552 19.0512L78.2627 18.3869L76.7318 19.0625ZM69.3929 2.2086V0.525858H66.8352L67.862 2.88423L69.3929 2.2086ZM77.9071 2.2086L79.471 1.61493L79.0631 0.525858H77.9071V2.2086ZM80.9105 10.2281L79.3465 10.8217L80.9671 15.1488L82.4877 10.7851L80.9105 10.2281ZM83.705 2.2086V0.525858H82.5201L82.1278 1.65162L83.705 2.2086ZM92.2191 2.2086L93.75 2.88423L94.777 0.525858H92.2191V2.2086ZM84.8803 19.0625L83.3495 18.3869L83.0605 19.0504L83.3408 19.7177L84.8803 19.0625ZM89.0329 28.9486L90.5814 28.3144L90.5724 28.2932L89.0329 28.9486ZM91.5401 35.1536L89.9918 35.7876L91.7571 40.1564L93.1374 35.6495L91.5401 35.1536ZM93.4727 28.8433L91.9319 28.191L91.8999 28.2679L91.8754 28.3475L93.4727 28.8433ZM104.599 2.2086V0.525858H103.488L103.058 1.55637L104.599 2.2086ZM113.635 2.2086L115.164 2.88827L116.2 0.525858H113.635V2.2086ZM95.6144 43.3045V44.9872H96.7036L97.1435 43.9841L95.6144 43.3045ZM87.4136 43.3045L85.8885 43.9929L86.3313 44.9872H87.4136V43.3045ZM83.7834 35.1536L82.2186 35.7451L82.2368 35.7942L82.2582 35.8422L83.7834 35.1536ZM80.8323 27.2395L82.3971 26.6481L80.8323 22.4517L79.2672 26.6481L80.8323 27.2395ZM77.8809 35.1536L79.4025 35.8504L79.4259 35.7984L79.4457 35.7451L77.8809 35.1536ZM74.1984 43.3045V44.9872H75.2744L75.72 44.0011L74.1984 43.3045ZM65.9978 43.3045L64.4685 43.9841L64.9085 44.9872H65.9978V43.3045ZM47.9769 3.89135H57.0135V0.525858H47.9769V3.89135ZM55.4724 2.8605L66.546 29.3902L69.6281 28.0862L58.5545 1.55671L55.4724 2.8605ZM66.536 29.3654L69.0954 35.7809L72.1977 34.5264L69.6381 28.1109L66.536 29.3654ZM72.2405 35.6601L74.2516 29.2446L71.0636 28.2318L69.0526 34.6472L72.2405 35.6601ZM74.1964 29.3949L78.2707 19.7191L75.1928 18.4057L71.1185 28.0815L74.1964 29.3949ZM78.2627 18.3869L70.9238 1.53299L67.862 2.88423L75.201 19.7379L78.2627 18.3869ZM69.3929 3.89135H77.9071V0.525858H69.3929V3.89135ZM76.3431 2.80228L79.3465 10.8217L82.4745 9.63422L79.471 1.61493L76.3431 2.80228ZM82.4877 10.7851L85.2823 2.76576L82.1278 1.65162L79.3333 9.67091L82.4877 10.7851ZM83.705 3.89135H92.2191V0.525858H83.705V3.89135ZM90.6884 1.53299L83.3495 18.3869L86.4112 19.7379L93.75 2.88423L90.6884 1.53299ZM83.3408 19.7177L87.4935 29.6039L90.5724 28.2932L86.4199 18.4071L83.3408 19.7177ZM87.4846 29.5825L89.9918 35.7876L93.0884 34.5197L90.5812 28.3146L87.4846 29.5825ZM93.1374 35.6495L95.0702 29.3392L91.8754 28.3475L89.9429 34.6578L93.1374 35.6495ZM95.0137 29.4957L106.139 2.86101L103.058 1.55637L91.9319 28.191L95.0137 29.4957ZM104.599 3.89135H113.635V0.525858H104.599V3.89135ZM112.106 1.52912L94.0853 42.6248L97.1435 43.9841L115.164 2.88827L112.106 1.52912ZM95.6144 41.6217H87.4136V44.9872H95.6144V41.6217ZM88.9388 42.616L85.3085 34.4652L82.2582 35.8422L85.8885 43.9929L88.9388 42.616ZM85.3483 34.5623L82.3971 26.6481L79.2672 27.8309L82.2186 35.7451L85.3483 34.5623ZM79.2672 26.6481L76.316 34.5623L79.4457 35.7451L82.3971 27.8309L79.2672 26.6481ZM76.3595 34.4569L72.6769 42.6078L75.72 44.0011L79.4025 35.8504L76.3595 34.4569ZM74.1984 41.6217H65.9978V44.9872H74.1984V41.6217ZM67.5269 42.6248L49.506 1.52912L46.4479 2.88827L64.4685 43.9841L67.5269 42.6248ZM121.862 31.0783L122.684 29.613L121.324 28.8397L120.465 30.1536L121.862 31.0783ZM126.354 33.3658L125.67 34.9013L125.692 34.9106L126.354 33.3658ZM131.107 35.0748L130.646 36.6923L130.662 36.6966L131.107 35.0748ZM136.253 36.1265L136.027 37.794L136.03 37.7941L136.253 36.1265ZM148.292 36.0214L148.591 37.677L148.608 37.674L148.292 36.0214ZM152.498 34.6804L153.263 36.1757L153.273 36.171L152.498 34.6804ZM154.875 32.6294L153.469 31.7179L153.462 31.7292L153.455 31.7405L154.875 32.6294ZM153.776 26.5295L152.815 27.9055L152.827 27.9146L153.776 26.5295ZM144.48 25.4515L144.663 27.1242L144.687 27.1213L144.48 25.4515ZM140.667 25.9249L140.443 24.2573L140.44 24.2576L140.667 25.9249ZM136.879 26.4245L137.067 28.0966L137.087 28.0941L136.879 26.4245ZM128.104 25.9249L127.652 27.5447L127.656 27.546L128.104 25.9249ZM123.638 23.795L122.653 25.1545L122.661 25.1607L123.638 23.795ZM119.851 11.9371L118.244 11.4748L118.241 11.4866L118.237 11.4987L119.851 11.9371ZM121.314 8.78192L119.927 7.84294L119.923 7.8485L121.314 8.78192ZM123.925 5.96853L124.972 7.28057L124.985 7.26997L123.925 5.96853ZM127.765 3.70743L127.125 2.1524L127.119 2.15509L127.765 3.70743ZM132.988 2.23503L133.279 3.89202L133.291 3.88984L132.988 2.23503ZM145.264 1.99826L145.075 3.67041L145.09 3.67209L145.264 1.99826ZM150.642 2.83963L150.3 4.48654L150.303 4.48722L150.642 2.83963ZM155.71 4.18062L155.197 5.78226L155.212 5.78713L155.71 4.18062ZM160.228 5.88961L161.698 6.69262L162.557 5.09922L160.914 4.35512L160.228 5.88961ZM156.598 12.6206L155.926 14.1611L157.333 14.7839L158.067 13.4236L156.598 12.6206ZM152.889 11.2271L152.367 12.8257L152.386 12.8318L152.889 11.2271ZM144.244 9.36027L144.037 11.0302L144.058 11.0326L144.244 9.36027ZM133.902 9.57062L133.537 7.92843L133.533 7.92944L133.902 9.57062ZM130.402 10.8591L131.241 12.3147L131.252 12.3084L131.262 12.3019L130.402 10.8591ZM128.574 12.5943L127.104 11.7942L127.096 11.8088L128.574 12.5943ZM129.723 17.5112L128.752 18.8806L128.766 18.8907L129.723 17.5112ZM137.845 18.484L138.019 20.1578L138.041 20.1553L137.845 18.484ZM141.554 18.037L141.356 16.3662L141.352 16.3666L141.554 18.037ZM145.524 17.6163L145.675 19.2922L145.695 19.2903L145.524 17.6163ZM155.841 18.2211L155.371 19.836L155.374 19.8374L155.841 18.2211ZM160.516 20.5611L159.466 21.8717L159.478 21.8804L160.516 20.5611ZM163.362 24.2157L161.838 24.9078L161.841 24.9149L163.362 24.2157ZM162.682 35.3377L161.246 34.4779L161.243 34.4822L162.682 35.3377ZM158.034 40.0179L158.921 41.4442L158.925 41.442L158.034 40.0179ZM150.774 42.91L151.144 44.551L151.154 44.5489L150.774 42.91ZM134.555 43.4359L134.778 41.7683L134.765 41.7666L134.555 43.4359ZM128.235 42.2265L127.799 43.8513L127.816 43.8556L128.235 42.2265ZM122.489 40.3072L121.85 41.8622L121.868 41.8694L122.489 40.3072ZM117.448 37.8355L116.052 36.911L115.075 38.406L116.617 39.2955L117.448 37.8355ZM121.04 32.5435C122.564 33.4099 124.107 34.1959 125.67 34.9013L127.038 31.8301C125.571 31.1683 124.12 30.4294 122.684 29.613L121.04 32.5435ZM125.692 34.9106C127.29 35.6057 128.942 36.1994 130.646 36.6921L131.569 33.4574C129.999 33.0035 128.482 32.458 127.017 31.8209L125.692 34.9106ZM130.662 36.6966C132.375 37.1739 134.164 37.539 136.027 37.794L136.478 34.4591C134.754 34.2232 133.113 33.8873 131.553 33.453L130.662 36.6966ZM136.03 37.7941C137.922 38.0508 139.921 38.1773 142.024 38.1773V34.8118C140.053 34.8118 138.205 34.6932 136.475 34.4588L136.03 37.7941ZM142.024 38.1773C144.543 38.1773 146.739 38.0161 148.591 37.6769L147.993 34.3657C146.398 34.6577 144.416 34.8118 142.024 34.8118V38.1773ZM148.608 37.674C150.425 37.3228 151.995 36.8353 153.263 36.1757L151.73 33.1851C150.841 33.6472 149.608 34.0539 147.978 34.3687L148.608 37.674ZM153.273 36.171C154.547 35.4994 155.603 34.6348 156.294 33.5186L153.455 31.7405C153.17 32.2019 152.641 32.7045 151.722 33.1898L153.273 36.171ZM156.279 33.5412C156.956 32.4834 157.303 31.3087 157.303 30.0528H153.96C153.96 30.6551 153.801 31.1981 153.469 31.7179L156.279 33.5412ZM157.303 30.0528C157.303 28.0001 156.407 26.3121 154.726 25.1446L152.827 27.9146C153.619 28.4648 153.96 29.1258 153.96 30.0528H157.303ZM154.739 25.1537C153.084 23.9806 150.761 23.5322 148.057 23.5322V26.8977C150.507 26.8977 151.996 27.3256 152.815 27.9055L154.739 25.1537ZM148.057 23.5322C146.85 23.5322 145.586 23.6163 144.272 23.7817L144.687 27.1213C145.879 26.9712 147.002 26.8977 148.057 26.8977V23.5322ZM144.294 23.779C143.027 23.9209 141.743 24.0803 140.443 24.2573L140.891 27.5925C142.166 27.4188 143.423 27.2627 144.663 27.124L144.294 23.779ZM140.44 24.2576C139.174 24.4321 137.919 24.5977 136.672 24.7547L137.087 28.0941C138.347 27.9356 139.616 27.7682 140.893 27.592L140.44 24.2576ZM136.692 24.7522C135.51 24.8863 134.406 24.9521 133.38 24.9521V28.3176C134.547 28.3176 135.776 28.2429 137.067 28.0966L136.692 24.7522ZM133.38 24.9521C131.696 24.9521 130.089 24.7344 128.552 24.3037L127.656 27.546C129.497 28.0618 131.407 28.3176 133.38 28.3176V24.9521ZM128.556 24.3049C127.058 23.8807 125.75 23.2524 124.615 22.4295L122.661 25.1607C124.138 26.231 125.807 27.0224 127.652 27.5447L128.556 24.3049ZM124.623 22.4359C123.536 21.6373 122.673 20.6444 122.025 19.4423L119.087 21.0488C119.971 22.6863 121.163 24.0599 122.653 25.1544L124.623 22.4359ZM122.025 19.4423C121.413 18.3083 121.079 16.937 121.079 15.2763H117.736C117.736 17.4016 118.167 19.3432 119.087 21.0488L122.025 19.4423ZM121.079 15.2763C121.079 14.3054 121.206 13.3396 121.465 12.3754L118.237 11.4987C117.904 12.7431 117.736 14.0035 117.736 15.2763H121.079ZM121.458 12.3993C121.722 11.4699 122.134 10.5762 122.704 9.71534L119.923 7.8485C119.17 8.9857 118.607 10.1956 118.244 11.4748L121.458 12.3993ZM122.701 9.72089C123.275 8.86084 124.026 8.04554 124.972 7.2804L122.878 4.65667C121.701 5.60927 120.71 6.66973 119.927 7.84294L122.701 9.72089ZM124.985 7.26997C125.901 6.51374 127.036 5.8388 128.41 5.25959L127.119 2.15509C125.499 2.83795 124.073 3.67058 122.866 4.6671L124.985 7.26997ZM128.404 5.26228C129.785 4.68662 131.406 4.22571 133.279 3.89186L132.697 0.578027C130.635 0.94537 128.773 1.46601 127.125 2.1524L128.404 5.26228ZM133.291 3.88984C135.154 3.54421 137.306 3.36549 139.753 3.36549V0C137.15 0 134.791 0.189477 132.685 0.580042L133.291 3.88984ZM139.753 3.36549C141.516 3.36549 143.291 3.46696 145.075 3.67041L145.451 0.326286C143.544 0.108875 141.645 0 139.753 0V3.36549ZM145.09 3.67209C146.882 3.85921 148.617 4.13081 150.3 4.48654L150.987 1.1929C149.186 0.812262 147.336 0.523168 145.436 0.324604L145.09 3.67209ZM150.303 4.48722C152.006 4.84379 153.638 5.27574 155.197 5.78208L156.223 2.57915C154.544 2.03377 152.797 1.57185 150.983 1.19223L150.303 4.48722ZM155.212 5.78713C156.773 6.27749 158.216 6.82371 159.541 7.42411L160.914 4.35512C159.453 3.69346 157.883 3.10046 156.207 2.5741L155.212 5.78713ZM158.759 5.08678L155.129 11.8178L158.067 13.4236L161.698 6.69262L158.759 5.08678ZM157.27 11.08C156.06 10.5449 154.768 10.0596 153.392 9.62245L152.386 12.8318C153.658 13.236 154.836 13.6797 155.926 14.1611L157.27 11.08ZM153.412 9.62867C152.03 9.17113 150.589 8.77922 149.091 8.45193L148.383 11.741C149.773 12.0449 151.102 12.4067 152.367 12.8256L153.412 9.62867ZM149.091 8.45193C147.587 8.12379 146.034 7.86936 144.431 7.68813L144.058 11.0326C145.554 11.2019 146.995 11.4383 148.383 11.741L149.091 8.45193ZM144.451 7.69049C142.848 7.48873 141.212 7.38827 139.544 7.38827V10.7538C141.078 10.7538 142.576 10.8463 144.037 11.0301L144.451 7.69049ZM139.544 7.38827C137.195 7.38827 135.181 7.55856 133.537 7.92843L134.267 11.2128C135.584 10.9166 137.331 10.7538 139.544 10.7538V7.38827ZM133.533 7.92944C131.972 8.28483 130.619 8.7656 129.542 9.41615L131.262 12.3019C131.927 11.9007 132.907 11.5224 134.271 11.212L133.533 7.92944ZM129.564 9.40335C128.523 10.0113 127.643 10.7888 127.104 11.7942L130.045 13.3945C130.201 13.1029 130.541 12.7234 131.241 12.3147L129.564 9.40335ZM127.096 11.8088C126.655 12.65 126.406 13.5486 126.406 14.4874H129.749C129.749 14.1642 129.832 13.8007 130.052 13.3799L127.096 11.8088ZM126.406 14.4874C126.406 16.3216 127.27 17.8147 128.752 18.8804L130.695 16.1417C129.983 15.63 129.749 15.1074 129.749 14.4874H126.406ZM128.766 18.8907C130.277 19.9528 132.358 20.3508 134.738 20.3508V16.9853C132.625 16.9853 131.364 16.6119 130.68 16.1315L128.766 18.8907ZM134.738 20.3508C135.716 20.3508 136.811 20.2847 138.019 20.1576L137.672 16.8103C136.547 16.9286 135.571 16.9853 134.738 16.9853V20.3508ZM138.041 20.1553C139.228 20.0148 140.466 19.8655 141.757 19.7075L141.352 16.3666C140.065 16.5241 138.832 16.6728 137.65 16.8126L138.041 20.1553ZM141.753 19.7078C143.044 19.552 144.351 19.4133 145.675 19.2922L145.372 15.9405C144.017 16.0645 142.678 16.2065 141.356 16.3662L141.753 19.7078ZM145.695 19.2903C147 19.1554 148.257 19.0887 149.467 19.0887V15.7232C148.135 15.7232 146.764 15.7966 145.354 15.9423L145.695 19.2903ZM149.467 19.0887C151.749 19.0887 153.71 19.3472 155.371 19.836L156.309 16.606C154.28 16.0081 151.991 15.7232 149.467 15.7232V19.0887ZM155.374 19.8374C157.068 20.3311 158.416 21.0202 159.466 21.8715L161.564 19.2506C160.106 18.0686 158.338 17.1977 156.305 16.6047L155.374 19.8374ZM159.478 21.8804C160.526 22.7162 161.306 23.721 161.838 24.9078L164.885 23.5238C164.13 21.836 163.011 20.4043 161.552 19.2417L159.478 21.8804ZM161.841 24.9149C162.373 26.0876 162.657 27.4395 162.657 29.0011H166C166 27.0219 165.639 25.1836 164.882 23.5167L161.841 24.9149ZM162.657 29.0011C162.657 31.0945 162.176 32.9044 161.246 34.4779L164.12 36.1974C165.385 34.0549 166 31.6405 166 29.0011H162.657ZM161.243 34.4822C160.315 36.0644 158.966 37.4389 157.144 38.5936L158.925 41.442C161.141 40.0376 162.891 38.2921 164.123 36.1933L161.243 34.4822ZM157.148 38.5916C155.333 39.7352 153.093 40.6378 150.393 41.2712L151.154 44.5489C154.131 43.85 156.732 42.8247 158.921 41.4442L157.148 38.5916ZM150.403 41.269C147.707 41.8851 144.675 42.2002 141.294 42.2002V45.5657C144.876 45.5657 148.164 45.2322 151.144 44.551L150.403 41.269ZM141.294 42.2002C139.067 42.2002 136.896 42.0559 134.778 41.7683L134.331 45.1035C136.602 45.4119 138.924 45.5657 141.294 45.5657V42.2002ZM134.765 41.7666C132.638 41.4945 130.601 41.1043 128.653 40.5973L127.816 43.8556C129.908 44.4003 132.085 44.8164 134.344 45.1053L134.765 41.7666ZM128.67 40.6016C126.727 40.0746 124.874 39.4552 123.11 38.7447L121.868 41.8694C123.76 42.6314 125.737 43.2917 127.8 43.8512L128.67 40.6016ZM123.127 38.752C121.377 38.0232 119.761 37.2304 118.279 36.3756L116.617 39.2955C118.235 40.2286 119.98 41.0836 121.85 41.8622L123.127 38.752ZM118.845 38.76L123.259 32.0028L120.465 30.1536L116.052 36.911L118.845 38.76Z" fill="#808080"/>
</g>
<defs>
<filter id="filter0_i_174_11" x="0" y="0" width="172" height="51.5654" filterUnits="userSpaceOnUse" color-interpolation-filters="sRGB">
<feFlood flood-opacity="0" result="BackgroundImageFix"/>
<feBlend mode="normal" in="SourceGraphic" in2="BackgroundImageFix" result="shape"/>
<feColorMatrix in="SourceAlpha" type="matrix" values="0 0 0 0 0 0 0 0 0 0 0 0 0 0 0 0 0 0 127 0" result="hardAlpha"/>
<feOffset dx="6" dy="6"/>
<feGaussianBlur stdDeviation="8"/>
<feComposite in2="hardAlpha" operator="arithmetic" k2="-1" k3="1"/>
<feColorMatrix type="matrix" values="0 0 0 0 0 0 0 0 0 0 0 0 0 0 0 0 0 0 0.25 0"/>
<feBlend mode="normal" in2="shape" result="effect1_innerShadow_174_11"/>
</filter>
</defs>
</svg>
