<svg width="135" height="67" viewBox="0 0 135 67" fill="none" xmlns="http://www.w3.org/2000/svg">
<g clip-path="url(#clip0_337_101)">
<path fill-rule="evenodd" clip-rule="evenodd" d="M15.2686 11.5506V15.9967C15.2686 16.2462 15.1827 16.4452 15.0079 16.5937C14.833 16.7421 14.6048 16.8165 14.3264 16.8165H12.513V13.787H3.81885V15.9967C3.81885 16.2462 3.73289 16.4452 3.55818 16.5937C3.38318 16.7421 3.15499 16.8165 2.8767 16.8165H1.06323V11.5506H2.52108C2.66922 11.4613 2.82014 11.3188 2.97443 11.1257C3.12835 10.9326 3.27962 10.6655 3.42461 10.3208C3.56995 9.97647 3.70627 9.53979 3.83674 9.01109C3.96694 8.48233 4.08565 7.83494 4.19231 7.06848C4.29904 6.30239 4.39084 5.40233 4.46474 4.37185C4.539 3.34109 4.59219 2.15314 4.62769 0.804688H13.3485V11.5506H15.2686ZM10.326 11.5506V3.04105H7.46369C7.39261 4.16389 7.30046 5.17086 7.18795 6.06187C7.07538 6.95289 6.9449 7.74286 6.7968 8.43184C6.64864 9.12112 6.4857 9.72084 6.30485 10.2346C6.12428 10.7485 5.92857 11.1883 5.72138 11.5506H10.326Z" fill="#808080"/>
<path fill-rule="evenodd" clip-rule="evenodd" d="M29.7448 7.29134C29.7448 8.23009 29.5849 9.1031 29.2617 9.91106C28.9389 10.7188 28.4825 11.4198 27.8957 12.0167C27.3092 12.6139 26.6039 13.0831 25.777 13.4217C24.9504 13.7602 24.032 13.9296 23.0242 13.9296C22.0169 13.9296 21.0982 13.7602 20.2686 13.4217C19.4387 13.0831 18.7307 12.6139 18.141 12.0167C17.5513 11.4198 17.095 10.7188 16.7719 9.91106C16.449 9.1031 16.2861 8.23009 16.2861 7.29134C16.2861 6.35287 16.449 5.47951 16.7719 4.67189C17.095 3.86392 17.5513 3.16285 18.141 2.56906C18.7307 1.9749 19.4387 1.50849 20.2686 1.17004C21.0982 0.831372 22.0169 0.662109 23.0242 0.662109C24.032 0.662109 24.9504 0.831372 25.777 1.17315C26.6039 1.5147 27.3092 1.98394 27.8957 2.57774C28.4825 3.17182 28.9389 3.87288 29.2617 4.68057C29.5849 5.48855 29.7448 6.3588 29.7448 7.29134ZM26.6691 7.29134C26.6691 6.64981 26.586 6.07056 26.4202 5.55697C26.2541 5.04319 26.017 4.60925 25.706 4.25286C25.395 3.89648 25.0128 3.6234 24.5622 3.4331C24.1118 3.24315 23.5991 3.14803 23.0242 3.14803C22.4436 3.14803 21.9278 3.24315 21.4746 3.4331C21.0212 3.6234 20.639 3.89648 20.3277 4.25286C20.0166 4.60925 19.7767 5.04319 19.6107 5.55697C19.4449 6.07056 19.3618 6.64981 19.3618 7.29134C19.3618 7.93873 19.4449 8.51799 19.6107 9.03184C19.7767 9.5457 20.0166 9.98239 20.3277 10.3388C20.639 10.6952 21.0212 10.9654 21.4746 11.1526C21.9278 11.3395 22.4436 11.4347 23.0242 11.4347C23.5991 11.4347 24.1118 11.3395 24.5622 11.1526C25.0128 10.9654 25.395 10.6952 25.706 10.3388C26.017 9.98239 26.2541 9.5457 26.4202 9.03184C26.586 8.51799 26.6691 7.93873 26.6691 7.29134Z" fill="#808080"/>
<path d="M46.5678 0.804688V13.787H43.9188V6.32004C43.9188 6.14802 43.9247 5.96082 43.9336 5.75879C43.9424 5.55698 43.9572 5.35184 43.9811 5.14388L40.5408 11.8177C40.4341 12.0257 40.2919 12.1831 40.111 12.2901C39.9304 12.397 39.7229 12.4503 39.4917 12.4503H39.0829C38.8516 12.4503 38.6473 12.397 38.4664 12.2901C38.2858 12.1831 38.1406 12.0257 38.0337 11.8177L34.5936 5.12623C34.6116 5.34006 34.6261 5.548 34.6382 5.75287C34.6498 5.95772 34.6559 6.14802 34.6559 6.32004V13.787H32.0068V0.804688H34.3001C34.4307 0.804688 34.5463 0.807793 34.6441 0.813655C34.7417 0.819586 34.8277 0.837523 34.9047 0.866969C34.9817 0.896768 35.0527 0.941325 35.1152 1.00368C35.1774 1.06624 35.2367 1.15522 35.2959 1.26799L38.6297 7.85259C38.7481 8.07856 38.8637 8.31313 38.9732 8.55676C39.0829 8.8003 39.1865 9.04979 39.2873 9.30521C39.3881 9.04364 39.4947 8.78823 39.6043 8.53875C39.714 8.28926 39.8296 8.05186 39.954 7.82597L43.2788 1.26799C43.3379 1.15522 43.4003 1.06624 43.4624 1.00368C43.5247 0.941325 43.5929 0.896768 43.6699 0.866969C43.7469 0.837523 43.8357 0.819586 43.9336 0.813655C44.0314 0.807793 44.144 0.804688 44.2744 0.804688H46.5678Z" fill="#808080"/>
<path d="M66.0719 0.804688L60.8629 11.898C60.6612 12.3139 60.4448 12.6523 60.2138 12.9136C59.9825 13.1752 59.7367 13.38 59.4729 13.5315C59.2092 13.6831 58.9278 13.787 58.6313 13.8434C58.3351 13.8999 58.0182 13.9296 57.6801 13.9296C57.1586 13.9296 56.7881 13.8821 56.5689 13.79C56.3497 13.6977 56.2402 13.5641 56.2402 13.3859V11.5593H56.9869C57.0995 11.5593 57.221 11.5506 57.3484 11.5326C57.4758 11.5149 57.6032 11.4734 57.7336 11.4108C57.8639 11.3485 57.9943 11.2565 58.1217 11.1347C58.2491 11.0129 58.3647 10.8495 58.4714 10.6416L58.8802 9.83983L53.6797 0.804688H56.5067C56.7674 0.804688 56.9749 0.864214 57.1261 0.985954C57.2772 1.10776 57.4016 1.26524 57.5024 1.45519L59.4226 5.32211C59.5827 5.6134 59.7249 5.90441 59.8492 6.19547C59.9738 6.48648 60.0833 6.78059 60.1782 7.07752C60.267 6.78059 60.3708 6.48648 60.4893 6.19547C60.6077 5.90441 60.7382 5.6134 60.8804 5.32211L62.6052 1.45519C62.6407 1.378 62.6907 1.30082 62.7533 1.22343C62.8154 1.14625 62.8866 1.07493 62.9666 1.01265C63.0465 0.950364 63.1385 0.899804 63.2421 0.861107C63.3457 0.822622 63.4585 0.804688 63.5828 0.804688H66.0719Z" fill="#808080"/>
<path d="M77.2504 0.804688V13.787H74.2279V8.91315C73.5227 9.07337 72.8528 9.18932 72.2157 9.26058C71.5787 9.33182 70.9859 9.34362 70.4377 9.29623C69.8897 9.24878 69.3919 9.13566 68.9474 8.95749C68.503 8.77927 68.1236 8.5211 67.8094 8.18547C67.4954 7.84984 67.2554 7.43109 67.0866 6.92592C66.9174 6.42109 66.8318 5.81825 66.8318 5.11726V0.804688H69.8542V5.12623C69.8542 5.54801 69.9104 5.91344 70.023 6.2221C70.1356 6.53111 70.352 6.76568 70.6721 6.92592C70.9921 7.0865 71.4365 7.16368 72.0054 7.15774C72.5743 7.15188 73.3152 7.04773 74.2279 6.84598V0.804688H77.2504Z" fill="#808080"/>
<path d="M83.2722 3.12134V6.15085H87.3435V8.37853H83.2722V11.4703H88.588V13.787H80.2498V0.804688H88.588V3.12134H83.2722Z" fill="#808080"/>
<path d="M102.238 0.804688V13.787H99.2153V8.29824H93.9526V13.787H90.9302V0.804688H93.9526V6.23106H99.2153V0.804688H102.238Z" fill="#808080"/>
<path fill-rule="evenodd" clip-rule="evenodd" d="M109.984 5.99931C110.879 5.99931 111.641 6.09754 112.266 6.29343C112.892 6.48959 113.398 6.75087 113.789 7.08056C114.18 7.41033 114.465 7.79341 114.642 8.23009C114.82 8.6665 114.909 9.12697 114.909 9.60799C114.909 10.2319 114.8 10.7991 114.577 11.3128C114.355 11.8267 114.032 12.2662 113.611 12.6316C113.19 12.997 112.675 13.282 112.065 13.4839C111.454 13.6859 110.761 13.787 109.984 13.787H105.238V0.804688H108.242V5.99931H109.984ZM109.984 11.5149C110.381 11.5149 110.708 11.4703 110.962 11.3811C111.217 11.2921 111.419 11.1703 111.564 11.0187C111.709 10.8675 111.807 10.698 111.86 10.508C111.913 10.318 111.94 10.119 111.94 9.91107C111.94 9.67339 111.913 9.45363 111.86 9.25161C111.807 9.04979 111.709 8.87438 111.564 8.72906C111.419 8.58338 111.217 8.47061 110.962 8.39032C110.708 8.31003 110.381 8.27162 109.984 8.27162H108.242V11.5149H109.984Z" fill="#808080"/>
<path d="M119.39 13.787H116.367V0.804688H119.39V13.787Z" fill="#808080"/>
<path d="M133.501 13.787H130.497C130.301 13.787 130.144 13.7395 130.022 13.6444C129.901 13.5492 129.803 13.4364 129.732 13.3057L127.136 8.76161C127.089 8.8924 127.036 9.00517 126.976 9.10007L124.558 13.3057C124.475 13.4247 124.378 13.5344 124.265 13.6354C124.152 13.7364 124.007 13.787 123.829 13.787H121.02L125.19 7.10414L121.18 0.804688H124.185C124.381 0.804688 124.526 0.828554 124.618 0.879043C124.71 0.929603 124.79 1.01575 124.861 1.13446L127.439 5.50932C127.468 5.43213 127.504 5.35778 127.542 5.28646C127.581 5.2152 127.622 5.14113 127.67 5.06395L129.928 1.17908C130.011 1.04831 130.1 0.953119 130.191 0.893943C130.283 0.834416 130.396 0.804688 130.532 0.804688H133.413L129.35 6.97958L133.501 13.787Z" fill="#808080"/>
<path d="M83.759 26.8797V21.7656H111.865L111.904 23.2574L111.921 24.4058V24.8731L111.915 25.2701L111.904 25.5957L111.888 25.875L111.865 26.1166L111.844 26.3063L111.814 26.4668L111.789 26.5988L111.752 26.7193L111.71 26.8208L111.662 26.9087L111.629 27.0069L83.759 26.8797Z" fill="#808080"/>
<path d="M72.3191 28.8754V27.7471H122.822V28.8754H72.3191Z" fill="#808080"/>
<path d="M5.52343 45.0715V43.5774H5.03796V45.0715H0.799561V36.9702L1.07242 36.9226L1.36479 36.8803L1.63976 36.8432L1.91431 36.8018L2.2009 36.7736L2.48207 36.7455L2.75486 36.7285H3.04039L3.08858 37.2089L3.12944 37.6794L3.17348 38.1468L3.21222 38.6424L3.23716 39.2137L3.26428 39.8612L3.27978 40.6462L3.29366 41.5926H12.4945V45.0715H5.52343Z" fill="#808080"/>
<path d="M13.7346 45.0716V41.5928H20.3266V45.0716H13.7346Z" fill="#808080"/>
<path d="M21.5703 45.0716V41.5928H28.2902V45.0716H21.5703Z" fill="#808080"/>
<path d="M72.3191 45.9555V29.9961H122.822V38.7213H83.759V42.2082H87.6209V45.9555H72.3191Z" fill="#808080"/>
<path d="M122.822 39.719H133.765V41.3419H86.3713V39.719L89.4968 39.7073L93.8489 39.7042L99.0197 39.6882L110.17 39.665H115.342L119.688 39.6882L121.43 39.6935L122.822 39.719Z" fill="#808080"/>
<path d="M88.8623 45.956V42.2087L102.667 42.083L102.685 42.322L102.704 42.5535V42.9326L102.672 43.2818L102.64 43.6453L102.583 44.0445L102.527 44.5368L102.494 44.8351L102.465 45.1675L102.443 45.5314L102.414 45.956H88.8623Z" fill="#808080"/>
<path d="M132.767 45.9563V42.209H133.765V45.9563H132.767Z" fill="#808080"/>
<path d="M103.417 45.9563V42.209H117.098V45.9563H103.417Z" fill="#808080"/>
<path d="M121.324 45.9557L120.994 45.9436L120.648 45.936L120.303 45.9049L119.954 45.8915L119.604 45.8625L119.254 45.846L118.919 45.8343L118.587 45.8259L118.506 45.3727L118.44 44.9312L118.399 44.5227L118.371 44.1178L118.353 43.7234L118.346 43.3408L118.334 42.9662V42.584L118.419 42.5412L118.5 42.5073L118.587 42.4677L118.683 42.4314L118.903 42.3811L119.143 42.3382L119.404 42.3105L119.677 42.29H120.266L120.887 42.3217L121.489 42.3578L122.063 42.4033L122.575 42.4627L122.611 42.8926L122.642 43.3238L122.656 43.7713L122.678 44.2217L122.686 44.6775V45.1421L122.698 45.6122V46.077L122.511 46.068L122.336 46.0565L122.171 46.0293L122.008 46.0173L121.85 45.9887L121.674 45.9691L121.505 45.9557H121.324Z" fill="#808080"/>
<path d="M0.799561 47.7007V45.9561H42.0946V47.7007H0.799561Z" fill="#808080"/>
<path d="M72.3191 47.9481V46.8193H133.765V47.9481H72.3191Z" fill="#808080"/>
<path d="M46.8181 36.9707H55.6559V45.0719H46.8181V36.9707Z" fill="#808080"/>
<path fill-rule="evenodd" clip-rule="evenodd" d="M42.8455 36.9703L42.903 36.5145L42.9484 36.0671L42.9759 35.6368L42.9973 35.2001L43.0054 34.7943L42.9973 34.3952L42.9857 33.9871L42.9648 33.596L42.903 32.816L42.8455 32.0417L42.7726 31.2767L42.7188 30.4967L42.2721 30.2068L41.8613 29.9597L41.4631 29.7257L41.0947 29.5201L40.7369 29.334L40.3952 29.1713L40.0864 29.0218L39.7806 28.8926L39.4799 28.7851L39.2081 28.687L38.9326 28.608L38.6714 28.5317L38.4098 28.4756L38.1602 28.4341L37.9133 28.3993L37.6631 28.3717L37.4105 28.3525L37.1627 28.3408L36.9134 28.327H36.6486L36.104 28.3212H35.5288L34.8893 28.3095L34.1814 28.2788L33.8046 28.2503L33.3977 28.2227L32.9694 28.1771L32.515 28.1242L31.4799 27.7914L30.6781 27.5219L30.515 27.4659L30.3601 27.4055L30.2284 27.3387L30.1023 27.2761L29.9872 27.209L29.8865 27.1465L29.7358 27.0064L29.677 26.9195L29.6179 26.8426L29.584 26.7495L29.5582 26.6546L29.5405 26.5591V26.4435L29.5445 26.3219L29.5582 26.1992L29.584 26.0524L29.6179 25.9146L29.6654 25.7479L29.7193 25.5818L29.8653 25.1939L30.0307 24.7604L30.255 24.7408L30.469 24.7259H30.6853L30.8811 24.7408L31.068 24.7604L31.2518 24.7828L31.424 24.8054L31.5917 24.8532L31.7554 24.8982L31.913 24.9428L32.0674 24.9989L32.2217 25.0535L32.5287 25.185L32.8269 25.3179L33.1361 25.4619L33.454 25.6047L33.7907 25.7479L34.1613 25.8745L34.3443 25.9476L34.5517 25.9963L34.762 26.0524L34.9935 26.106L35.2215 26.1511L35.7237 26.2299L35.9981 26.2495L35.9732 25.9963L35.9095 25.7598L35.8183 25.5489L35.6858 25.3455L35.5345 25.1676L35.3556 25.0106L35.158 24.8532L34.9378 24.7233L34.7037 24.5937L34.4564 24.478L34.1814 24.3693L33.9086 24.2676L33.3342 24.0901L32.7459 23.8961L32.4514 23.8029L32.1652 23.71L31.8805 23.62L31.6055 23.513L31.3358 23.4091L31.0879 23.2791L30.8525 23.1562L30.6315 23.0068L30.4268 22.8601L30.255 22.6888L30.0935 22.5001L29.9672 22.2945L29.8675 22.0688L29.8088 21.8297L29.7745 21.5621L29.781 21.2674L31.0381 21.2272L32.4287 21.1995L33.31 21.1885H35.7605L37.4274 21.1995L41.9766 21.2366L69.3371 21.5118L69.4911 21.5425L69.6236 21.5679L69.7607 21.5934L69.8759 21.6304L69.9857 21.6786L70.0793 21.7321L70.162 21.7932L70.2367 21.8721L70.2947 21.969L70.3623 22.0921L70.4069 22.2241L70.4495 22.3735L70.4905 22.5537L70.5234 22.7565L70.5527 22.9951L70.5754 23.2569L69.9762 23.5892L69.3865 23.913L68.7977 24.2454L68.2162 24.5654L67.627 24.8982L67.0477 25.2216L66.4483 25.5511L65.8437 25.8745V31.9944L66.0377 32.0782L66.2229 32.1714L66.4154 32.2696L66.6006 32.3601L66.7844 32.4551L66.9699 32.5514L67.1616 32.6447L67.3428 32.7343L67.3798 32.957L67.3949 33.1593V33.2472L67.3855 33.3341L67.3686 33.4158L67.3566 33.4894L67.3295 33.5589L67.3032 33.6267L67.2738 33.6909L67.2446 33.7529L67.1616 33.8626L67.0652 33.9733L66.9502 34.0665L66.8219 34.153L66.6882 34.2342L66.5375 34.3217L66.2171 34.5213L65.8437 34.7327L65.8153 34.9046L65.7819 35.0731L65.7614 35.296V36.0551L65.7819 36.6946L65.8153 37.5697L65.8437 38.7212L65.8941 38.5697L65.9465 38.4194L65.9945 38.2597L66.0377 38.1014L66.0817 37.9386L66.1321 37.7758L66.178 37.6263L66.2229 37.4686L66.5031 37.4261L66.779 37.3928L67.0572 37.3615L67.3295 37.3386L67.6116 37.3192L67.8934 37.3022H68.4692L68.7587 37.311L69.0563 37.3254L69.37 37.3583L69.6916 37.3874L70.0139 37.4261L70.3623 37.4686L70.7071 37.53L71.073 37.5961V45.1981L71.0467 45.2261L71.0226 45.243L70.9843 45.2595L70.9247 45.2792L70.7071 45.3077L70.3253 45.3296L69.7068 45.3529L68.7977 45.3782L67.5378 45.4112L65.8437 45.4518L65.8153 46.017L65.7819 46.5655L65.7534 47.1346L65.7208 47.7L65.7031 48.2517L65.6777 48.8151L65.6448 49.3833L65.599 49.9375H64.4839L64.4168 49.4903L64.3741 49.0341L64.3412 48.5644L64.3104 48.1001L64.2811 47.1657L64.2678 46.2319L64.2485 45.7805L64.237 45.3447L64.2005 44.9171L64.168 44.5032L64.1164 44.1174L64.0528 43.7458L64.0088 43.5709L63.962 43.3994L63.9202 43.2392L63.8693 43.0899L63.8583 43.3664L63.8362 43.6446L63.8157 43.9283L63.7875 44.2065L63.7519 44.4858L63.7035 44.7725L63.6612 45.0509L63.6127 45.3296H62.1256V37.852L62.131 37.7816L62.1479 37.725L62.1987 37.6572L62.2493 37.6099L62.3112 37.5697L62.3922 37.5247L62.4766 37.4881L62.5662 37.4489L62.7855 37.4069L63.0102 37.3734L63.2513 37.3583L63.4863 37.3507L63.5185 37.3928L63.5517 37.4663L63.5774 37.5442L63.6055 37.6464L63.6506 37.8941L63.6866 38.1889L63.7231 38.5358L63.7373 38.9206L63.7671 39.3404L63.7875 39.7854L63.8213 40.6748L63.8583 41.5556L63.8717 41.9695L63.9109 42.3401L63.9425 42.6754L63.9815 42.9658L63.9958 42.5971L64.0341 42.2451L64.0741 41.862L64.1164 41.4995L64.2152 40.7385L64.3321 39.9879L64.443 39.245L64.5324 38.5358L64.5671 38.1889L64.5867 37.8543L64.6134 37.5442V37.2401L64.6024 36.9511L64.5671 36.6805L64.5177 36.4329L64.4492 36.2099L64.3583 36.002L64.2485 35.8281L64.1164 35.6698L63.9425 35.5495L63.7563 35.4504L63.5358 35.375L63.2852 35.3437H62.9999L62.6818 35.3884L62.3263 35.4567L61.9401 35.5744L61.4991 35.726L61.5245 36.1342L61.552 36.7455L61.5748 37.5168L61.6171 38.4194L61.6366 39.4389L61.6598 40.5428L61.6709 41.6934V42.8815L61.6598 44.0666L61.6313 45.2207L61.5748 46.3072L61.552 46.8193L61.5188 47.3084L61.4684 47.7812L61.4261 48.2125L61.3701 48.6121L61.3084 48.9702L61.2464 49.2818L61.1689 49.5527L61.0867 49.7749L60.9991 49.9375L60.8103 49.901L60.6318 49.8649L60.4406 49.8533L60.2576 49.831L60.0663 49.8198H59.8821L59.6935 49.8079H59.5058L59.459 49.0678L59.435 48.3141L59.407 47.5791L59.3821 46.8303L59.334 43.8757L59.3273 42.4231L59.3184 41.0017L59.2895 39.5964L59.2557 38.2258L59.2108 38.1807L59.1657 38.1468L59.1209 38.1245L59.0755 38.1161L59.027 38.1072L58.9802 38.1014H58.8916L58.8448 38.2597L58.8041 38.4366L58.7649 38.6174L58.735 38.8057L58.6889 39.1994L58.6527 39.6137L58.6287 40.0414L58.6194 40.4834V41.4013L58.6443 42.3401L58.6527 43.2811L58.664 43.7458V44.2065L58.6527 44.6517L58.6443 45.0715L58.5594 45.119L58.4877 45.1418L58.4355 45.1669L58.3911 45.1753L58.3417 45.1669L58.2923 45.1418L58.2177 45.119L58.1406 45.0715L58.1486 44.1L58.158 43.1299L58.1749 42.172L58.2021 41.2181L58.2305 40.2551L58.2477 39.2895L58.2643 37.3507L58.465 37.4261L58.6287 37.4881L58.7649 37.53L58.8654 37.5555H58.9802L59.0839 37.5442L59.2219 37.5168L59.3821 37.4686L59.4269 37.0233L59.4514 36.6747L59.459 36.4186V36.2099L59.4514 36.1266L59.4438 36.0551L59.4269 35.9877L59.3958 35.9121L59.3468 35.7685L59.2557 35.5968L58.9919 35.5914L58.7649 35.5744L58.5499 35.5495L58.3626 35.5303L58.2643 35.5208L58.1749 35.5303L58.0819 35.5378L57.9968 35.5543L57.9128 35.5802L57.8266 35.6141L57.737 35.664L57.6395 35.726L57.6783 37.2211L57.7112 38.4314L57.7308 39.4897L57.737 40.528L57.7308 41.6823L57.7112 43.0951L57.6783 44.8855L57.6395 47.1996L57.5336 47.2415L57.3792 47.2808L57.2129 47.326L57.0201 47.3432H56.8346L56.7421 47.3316L56.665 47.326L56.5829 47.3084L56.5108 47.2781L56.4443 47.2415L56.3973 47.1996L56.3599 45.9433L56.3261 44.9171L56.3068 43.9452V41.6823L56.3261 40.0977L56.3599 38.0375L56.3973 35.3437L56.2362 35.135L56.0346 34.9215L55.8263 34.7047L55.5878 34.4986L55.332 34.3023L55.054 34.1074L54.7638 33.917L54.4622 33.7311L54.128 33.5504L53.7853 33.3676L53.4422 33.2012L53.0792 33.041L52.7178 32.8758L52.3387 32.721L51.9609 32.5848L51.5837 32.4359L51.1983 32.3039L50.8029 32.1769L50.421 32.0506L50.0365 31.935L49.2872 31.7326L48.5589 31.5519L47.8857 31.4026L47.2479 31.2767L46.6829 31.1752L46.2058 31.11L46.1805 31.9266L46.1668 32.6749L46.1261 33.396L46.0876 34.0969L46.0568 34.7832L46.043 35.4815V36.2099L46.0568 36.5855L46.0821 36.9703V51.193H42.8455V36.9703ZM46.6954 26.122L46.6041 26.0801L46.5343 26.0382L46.4639 25.9932L46.4008 25.936L46.3457 25.8971L46.2923 25.8468L46.2482 25.7982L46.2058 25.7479L46.274 25.6576L46.3741 25.5645L46.4805 25.4557L46.5944 25.3455L46.731 25.2391L46.8809 25.1346L47.0344 25.0222L47.2026 24.9099L47.5604 24.6792L47.9536 24.4625L48.3711 24.2454L48.8094 24.0402L49.2584 23.8505L49.7081 23.6789L49.9347 23.6009L50.1599 23.5303L50.3799 23.4683L50.6097 23.4091L50.8206 23.3591L51.0333 23.313L51.2421 23.2791L51.4457 23.2569L51.6309 23.2462L51.8208 23.2347L52.0047 23.2462L52.1706 23.2569L52.2908 23.384L52.3887 23.4821L52.4509 23.5754L52.5102 23.6539L52.5555 23.7361L52.5943 23.8398L52.6253 23.9629L52.6715 24.1377L52.5462 24.2454L52.4162 24.3607L52.26 24.4678L52.107 24.5803L51.9495 24.6734L51.7657 24.7719L51.5917 24.8674L51.4025 24.9486L51.0079 25.1211L50.5919 25.2872L50.1599 25.4268L49.7326 25.5511L49.2922 25.6724L48.861 25.771L48.4338 25.8642L48.0338 25.936L47.649 26.0038L47.289 26.0524L46.9735 26.1002L46.6954 26.122ZM58.8916 27.6259L58.7524 27.5443L58.6287 27.4599L58.5144 27.3923L58.4044 27.3267L58.2981 27.2735L58.2021 27.2143L58.1094 27.1696L58.0115 27.1331V26.8994L57.9968 26.683L57.9777 26.4664L57.95 26.2495L57.9359 26.044L57.9078 25.8334L57.8981 25.6047L57.8852 25.3848L58.0663 25.2872L58.2078 25.1961L58.3626 25.1211L58.5144 25.0535L58.5958 25.0222L58.6889 25.0106L58.7894 24.9913L58.9064 24.9771L59.0317 24.9717L59.1738 24.9771L59.3273 24.9913L59.5058 25.0106L59.435 25.585L59.3958 26.2094L59.3878 26.5306V26.8539L59.3821 27.1696V27.4988H59.334L59.2753 27.5046H59.2024L59.1325 27.5189L59.0711 27.5327L58.9919 27.547L58.9357 27.583L58.8916 27.6259ZM63.8693 27.7467L63.7907 27.6714L63.7231 27.6031L63.6506 27.5443L63.5774 27.4988L63.504 27.451L63.4409 27.4122L63.3751 27.3923L63.3011 27.361L63.1629 27.3328L63.028 27.3267L62.8879 27.3328L62.7383 27.361L62.4611 27.4372L62.1856 27.5219L62.0452 27.5582L61.8987 27.5951L61.7644 27.6113L61.6215 27.6259L61.6171 27.1982L61.6028 26.7811L61.5903 26.3705L61.5583 25.9566L61.5329 25.5511L61.5188 25.148L61.5076 24.763L61.4991 24.38L61.6954 24.1993L61.884 24.0486L62.0633 23.93L62.2294 23.8372L62.3922 23.7672L62.5434 23.7361L62.6956 23.727L62.8416 23.7361L62.9711 23.7672L63.0912 23.8233L63.2184 23.8961L63.3323 23.983L63.4369 24.0901L63.5402 24.2171L63.6305 24.3519L63.7231 24.5071L63.8054 24.6734L63.8717 24.85L63.9425 25.0222L64.0088 25.2216L64.0741 25.4218L64.1208 25.6105L64.168 25.8215L64.2005 26.0238L64.2771 26.4515L64.3202 26.869L64.3469 27.2543L64.3583 27.6259L64.2678 27.6674L64.2005 27.6879L64.1208 27.721L64.0629 27.7383L64.0088 27.7467H63.8693ZM42.2208 29.2466L41.6895 29.0049L41.1547 28.7521L40.8856 28.6134L40.6189 28.4756L40.3699 28.3408L40.1171 28.1825L39.8813 28.0389L39.6706 27.873L39.4751 27.7044L39.2943 27.5327L39.2165 27.4404L39.1498 27.3387L39.0848 27.2543L39.0177 27.1554L38.9634 27.0541L38.9188 26.9556L38.8845 26.869L38.857 26.7495L38.9114 26.6603L38.9748 26.5809L39.034 26.5079L39.1067 26.4435L39.1783 26.3705L39.2436 26.292L39.3042 26.2124L39.3536 26.122H40.3431L40.1442 25.684L40.0026 25.3455L39.9578 25.2135L39.9271 25.0952L39.9009 24.9913V24.8982L39.9169 24.8054L39.9515 24.7259L40 24.6449L40.0552 24.5654L40.2359 24.38L40.474 24.1377L40.8472 24.3104L41.193 24.453L41.4906 24.5654L41.7532 24.6734L41.9793 24.7719L42.1916 24.8727L42.2721 24.9259L42.3615 24.9771L42.433 25.0449L42.4962 25.0952L42.5551 25.1676L42.6072 25.2391L42.6623 25.3179L42.7143 25.4099L42.7438 25.5119L42.7726 25.6047L42.7983 25.7196L42.8252 25.8468L42.8362 25.9932L42.851 26.1475L42.8606 26.3174V26.8994L42.8455 27.3696H42.6623L42.4962 27.3552L42.3446 27.3267L42.1985 27.291L42.0588 27.2543L41.9401 27.209L41.8249 27.1554L41.7199 27.0943L41.5215 26.9778L41.3322 26.8539L41.1547 26.7361L40.9741 26.6238V27.2543L41.1254 27.3328L41.368 27.4849L41.5159 27.5661L41.6656 27.6714L41.8249 27.7914L41.9793 27.9211L42.1417 28.0585L42.2849 28.2132L42.4189 28.3626L42.5274 28.5268L42.5844 28.6134L42.6181 28.7065L42.6534 28.7851L42.6899 28.8751L42.7143 28.9661L42.7188 29.058L42.7271 29.1544L42.7188 29.2466H42.2208ZM47.9021 30.12L47.7472 30.1146L47.5849 30.0941L47.4443 30.074L47.1576 30.032L46.899 29.9808L46.6736 29.914L46.4694 29.8514L46.3234 29.7984L46.2058 29.7421V29.2948L46.2482 28.8751L46.3261 28.5037L46.4462 28.1495L46.5902 27.8279L46.7653 27.5327L46.9588 27.2735L47.1911 27.0286L47.4532 26.8204L47.7334 26.6238L48.0253 26.4547L48.3484 26.3174L48.6826 26.1817L49.0421 26.072L49.4127 25.9731L49.7891 25.8971L50.1852 25.8334L50.5919 25.7732L51.0026 25.7313L51.4118 25.6943L51.8334 25.6724L52.26 25.6474L52.6787 25.6274H53.11L53.95 25.6047L54.7638 25.585L55.1643 25.5818L55.5447 25.5645L55.9144 25.5341L56.2735 25.5119L56.3566 25.585L56.4137 25.6724L56.4391 25.709L56.4591 25.7479L56.4725 25.7982L56.4961 25.8642L56.5108 26.0213L56.5192 26.2299V26.8793L56.3599 27.0372L56.1921 27.1921L56.0004 27.3267L55.793 27.4404L55.5822 27.547L55.3645 27.6513L55.1246 27.7325L54.8773 27.8007L54.6164 27.873L54.3581 27.9345L54.0945 27.989L53.8088 28.0389L53.2456 28.1242L52.6787 28.2132L52.107 28.3212L51.5249 28.4341L51.2421 28.5066L50.9657 28.583L50.6844 28.6721L50.421 28.7653L50.154 28.8814L49.904 29.0049L49.6516 29.1544L49.4127 29.3038L49.1769 29.4755L48.9624 29.6694L48.7555 29.8857L48.5589 30.12H47.9021ZM61.4991 32.8588L61.552 32.5514L61.6171 32.2585L61.6494 32.1291L61.6954 32.006L61.7389 31.8847L61.783 31.7655L61.8417 31.659L61.8894 31.5519L61.9539 31.4543L62.0145 31.3637L62.0806 31.2767L62.1479 31.1953L62.2294 31.11L62.3112 31.0342L62.3922 30.9748L62.479 30.9027L62.5662 30.837L62.6703 30.7755L62.8732 30.6662L63.1059 30.5731L63.3613 30.4798L63.6251 30.393L63.9202 30.3191L64.237 30.2456L64.2771 30.5217L64.3047 30.8093L64.3321 31.0886L64.3469 31.3834V31.6759L64.3583 31.9832V32.6104L64.2397 32.6277L64.1208 32.6447H64.0088L63.8929 32.6549L63.6421 32.6447H63.1878L63.0102 32.6549L62.8112 32.67L62.5986 32.6749L62.0958 32.7462L61.811 32.8026L61.4991 32.8588ZM65.7208 39.9657L65.7703 39.8301L65.7962 39.7065L65.8211 39.5795L65.8411 39.4671L65.8437 39.3547V39.7182L65.8411 39.8421L65.8211 39.9143L65.7962 39.9573L65.7703 39.9598L65.7208 39.9657ZM65.8437 42.2081L65.8153 41.9239L65.7819 41.6881L65.7614 41.4995V41.1702L65.7819 40.9811L65.8153 40.7563L65.8437 40.4635L65.8941 41.0793L65.9225 41.5498L65.9389 41.8794L65.9465 42.0824V42.152L65.9389 42.2081L65.9273 42.2334L65.9225 42.2567H65.9108L65.8941 42.2451L65.8755 42.2334L65.8437 42.2081Z" fill="#808080"/>
<path d="M30.2126 40.5437L30.8023 40.5713L30.7687 36.9712H42.0945V45.0724H29.1562V41.5935H31.2717V40.5888H4.15674V28.876H30.2838L30.2126 40.5437Z" fill="#808080"/>
<path d="M7.73676 66.2607V58.3271H5.88969V61.6431H2.67374V58.3271H0.82666V66.2607H2.67374V62.9065H5.88969V66.2607H7.73676Z" fill="#808080"/>
<path fill-rule="evenodd" clip-rule="evenodd" d="M21.4859 63.8925C21.6833 63.3987 21.7809 62.8652 21.7809 62.2915C21.7809 61.7216 21.6833 61.1898 21.4859 60.6961C21.2885 60.2025 21.0097 59.7743 20.651 59.411C20.2927 59.0479 19.8614 58.7614 19.3563 58.5526C18.8509 58.3439 18.2895 58.2402 17.6739 58.2402C17.0582 58.2402 16.4968 58.3439 15.9901 58.5507C15.483 58.7578 15.0501 59.0425 14.6898 59.4058C14.3295 59.7686 14.0507 60.1972 13.8532 60.6909C13.6558 61.1844 13.5562 61.7179 13.5562 62.2915C13.5562 62.8652 13.6558 63.3987 13.8532 63.8925C14.0507 64.3862 14.3295 64.8145 14.6898 65.1793C15.0501 65.5442 15.483 65.8309 15.9901 66.0379C16.4968 66.2449 17.0582 66.3482 17.6739 66.3482C18.2895 66.3482 18.8509 66.2449 19.3563 66.0379C19.8614 65.8309 20.2927 65.5442 20.651 65.1793C21.0097 64.8145 21.2885 64.3862 21.4859 63.8925ZM19.7491 61.2316C19.8508 61.5456 19.9015 61.8995 19.9015 62.2915C19.9015 62.6872 19.8508 63.0411 19.7491 63.3551C19.6478 63.6692 19.503 63.9362 19.3129 64.1538C19.1227 64.3717 18.889 64.5369 18.6138 64.6511C18.3386 64.7656 18.0252 64.8237 17.6739 64.8237C17.3191 64.8237 17.0039 64.7656 16.7269 64.6511C16.4499 64.5369 16.2163 64.3717 16.0261 64.1538C15.8361 63.9362 15.6894 63.6692 15.588 63.3551C15.4867 63.0411 15.4357 62.6872 15.4357 62.2915C15.4357 61.8995 15.4867 61.5456 15.588 61.2316C15.6894 60.9175 15.8361 60.6526 16.0261 60.4348C16.2163 60.217 16.4499 60.0502 16.7269 59.9339C17.0039 59.8178 17.3191 59.7596 17.6739 59.7596C18.0252 59.7596 18.3386 59.8178 18.6138 59.9339C18.889 60.0502 19.1227 60.217 19.3129 60.4348C19.503 60.6526 19.6478 60.9175 19.7491 61.2316Z" fill="#808080"/>
<path fill-rule="evenodd" clip-rule="evenodd" d="M31.9133 58.4795C31.5295 58.3779 31.0641 58.3271 30.5173 58.3271H27.6055V66.2607H30.7671C31.2417 66.2607 31.6636 66.199 32.0328 66.0775C32.4024 65.9557 32.7137 65.787 32.9655 65.5709C33.2173 65.3551 33.4073 65.1028 33.5379 64.8124C33.6683 64.5219 33.7333 64.2079 33.7333 63.8703C33.7333 63.4201 33.6084 63.0537 33.3586 62.7704C33.1086 62.4873 32.7228 62.2821 32.2015 62.155C32.4403 62.068 32.6449 61.9645 32.8152 61.8447C32.9854 61.7248 33.1249 61.5923 33.2335 61.4488C33.3422 61.3055 33.4219 61.1515 33.4726 60.9861C33.5233 60.8209 33.5487 60.6502 33.5487 60.4726C33.5487 60.1456 33.4945 59.8499 33.3839 59.5849C33.2735 59.3201 33.096 59.0949 32.8533 58.9097C32.6104 58.7246 32.2974 58.5811 31.9133 58.4795ZM31.3304 64.7795C31.1764 64.8413 30.9773 64.8721 30.7346 64.8721H29.4416V62.8956H30.7237C30.9554 62.8956 31.1476 62.9174 31.2996 62.9609C31.4517 63.0044 31.5747 63.0663 31.6673 63.1459C31.7595 63.2259 31.8245 63.3239 31.8627 63.44C31.9007 63.5563 31.9189 63.687 31.9189 63.8321C31.9189 63.9592 31.9027 64.0844 31.8699 64.2079C31.8374 64.3313 31.7775 64.4419 31.6907 64.5402C31.6037 64.638 31.4844 64.7178 31.3304 64.7795ZM29.4416 61.6649V59.7047H30.5173C30.7237 59.7047 30.9029 59.721 31.0532 59.7536C31.2035 59.7864 31.3268 59.8408 31.4244 59.9172C31.5222 59.9932 31.5948 60.0932 31.6417 60.2183C31.6888 60.3435 31.7124 60.5015 31.7124 60.6904C31.7124 60.8826 31.6834 61.0422 31.6239 61.1694C31.5639 61.2966 31.4771 61.3964 31.3629 61.4688C31.2489 61.5416 31.1094 61.5923 30.9465 61.6214C30.7836 61.6505 30.6005 61.6649 30.3977 61.6649H29.4416Z" fill="#808080"/>
<path fill-rule="evenodd" clip-rule="evenodd" d="M47.0967 63.8925C47.2941 63.3987 47.3919 62.8652 47.3919 62.2915C47.3919 61.7216 47.2941 61.1898 47.0967 60.6961C46.8993 60.2025 46.6206 59.7743 46.2618 59.411C45.9035 59.0479 45.4723 58.7614 44.9671 58.5526C44.4617 58.3439 43.9004 58.2402 43.2848 58.2402C42.6691 58.2402 42.1076 58.3439 41.6009 58.5507C41.0938 58.7578 40.661 59.0425 40.3006 59.4058C39.9403 59.7686 39.6615 60.1972 39.464 60.6909C39.2666 61.1844 39.167 61.7179 39.167 62.2915C39.167 62.8652 39.2666 63.3987 39.464 63.8925C39.6615 64.3862 39.9403 64.8145 40.3006 65.1793C40.661 65.5442 41.0938 65.8309 41.6009 66.0379C42.1076 66.2449 42.6691 66.3482 43.2848 66.3482C43.9004 66.3482 44.4617 66.2449 44.9671 66.0379C45.4723 65.8309 45.9035 65.5442 46.2618 65.1793C46.6206 64.8145 46.8993 64.3862 47.0967 63.8925ZM45.36 61.2316C45.4617 61.5456 45.5124 61.8995 45.5124 62.2915C45.5124 62.6872 45.4617 63.0411 45.36 63.3551C45.2586 63.6692 45.1138 63.9362 44.9238 64.1538C44.7336 64.3717 44.4999 64.5369 44.2246 64.6511C43.9494 64.7656 43.636 64.8237 43.2848 64.8237C42.93 64.8237 42.6147 64.7656 42.3378 64.6511C42.0607 64.5369 41.8271 64.3717 41.637 64.1538C41.4469 63.9362 41.3003 63.6692 41.1988 63.3551C41.0975 63.0411 41.0465 62.6872 41.0465 62.2915C41.0465 61.8995 41.0975 61.5456 41.1988 61.2316C41.3003 60.9175 41.4469 60.6526 41.637 60.4348C41.8271 60.217 42.0607 60.0502 42.3378 59.9339C42.6147 59.8178 42.93 59.7596 43.2848 59.7596C43.636 59.7596 43.9494 59.8178 44.2246 59.9339C44.4999 60.0502 44.7336 60.217 44.9238 60.4348C45.1138 60.6526 45.2586 60.9175 45.36 61.2316Z" fill="#808080"/>
<path d="M58.6815 64.2319C58.6381 64.2156 58.5947 64.2084 58.5514 64.2084C58.4971 64.2084 58.4444 64.2193 58.3937 64.2428C58.3431 64.2664 58.296 64.2972 58.2523 64.3334C58.1437 64.4317 58.037 64.5114 57.9321 64.5751C57.8269 64.6385 57.7147 64.6893 57.5952 64.7275C57.4757 64.7656 57.3471 64.7928 57.2094 64.8091C57.0716 64.8254 56.9196 64.8343 56.753 64.8343C56.4632 64.8343 56.1916 64.7782 55.9382 64.6658C55.6846 64.5532 55.4637 64.3879 55.2736 64.1721C55.0834 63.956 54.9331 63.691 54.8227 63.3751C54.7121 63.0594 54.6561 62.6981 54.6561 62.2915C54.6561 61.8886 54.7069 61.5294 54.8062 61.2153C54.9058 60.9013 55.0473 60.6363 55.2302 60.4202C55.4129 60.2043 55.6302 60.0408 55.882 59.9282C56.1337 59.8158 56.4109 59.7596 56.715 59.7596C56.907 59.7596 57.0753 59.7743 57.2183 59.803C57.3614 59.8323 57.4866 59.8666 57.5932 59.9084C57.7002 59.9502 57.7926 59.9956 57.8703 60.0445C57.9482 60.0936 58.0188 60.1391 58.0841 60.1806C58.1494 60.2224 58.2108 60.2586 58.2689 60.2878C58.3268 60.3167 58.3882 60.3313 58.4533 60.3313C58.5514 60.3313 58.6272 60.3097 58.6815 60.2678C58.7359 60.2261 58.7828 60.1806 58.8229 60.1298L59.4424 59.2969C59.2936 59.1442 59.1233 59.0027 58.9316 58.872C58.7394 58.7412 58.5295 58.6286 58.3013 58.5363C58.0731 58.4437 57.8286 58.3711 57.566 58.3183C57.3035 58.2659 57.0228 58.2402 56.7258 58.2402C56.143 58.2402 55.6087 58.3402 55.1231 58.54C54.6379 58.7394 54.2214 59.019 53.8739 59.3784C53.5262 59.7377 53.2562 60.1643 53.0645 60.66C52.8724 61.1553 52.7764 61.6999 52.7764 62.2915C52.7764 62.8724 52.8651 63.4096 53.0426 63.9051C53.2202 64.4008 53.4755 64.8291 53.8067 65.1902C54.1382 65.5514 54.542 65.8346 55.0182 66.0397C55.4945 66.2449 56.0324 66.3482 56.6334 66.3482C57.2892 66.3482 57.8576 66.2412 58.3375 66.0288C58.8173 65.8164 59.2157 65.5026 59.5346 65.085L58.8067 64.3173C58.7667 64.2773 58.725 64.2482 58.6815 64.2319Z" fill="#808080"/>
<path d="M71.9921 66.2607V58.3271H70.6069C70.5199 58.3271 70.4367 58.3434 70.3569 58.3759C70.2774 58.4087 70.203 58.4506 70.1343 58.5031C70.0655 58.5559 70.0039 58.6156 69.9477 58.6811C69.8916 58.7464 69.8427 58.8118 69.8028 58.8771L67.3964 62.9992C67.3021 63.1479 67.206 63.3202 67.1083 63.5181C67.0106 63.7159 66.9201 63.9303 66.8366 64.1588C66.8765 63.8975 66.9019 63.6505 66.9129 63.4201C66.9235 63.1896 66.929 62.972 66.929 62.7648V58.3271H65.082V66.2607H66.4674C66.5542 66.2607 66.6375 66.2444 66.7171 66.2116C66.7969 66.179 66.8711 66.1355 66.9399 66.0827C67.0086 66.0303 67.0722 65.9722 67.1281 65.9068C67.1845 65.8415 67.2314 65.7761 67.2713 65.7107L69.6779 61.5886C69.772 61.4399 69.8681 61.2657 69.9658 61.0678C70.0635 60.8699 70.1542 60.6559 70.2373 60.4235C70.2013 60.6848 70.1778 60.9298 70.1651 61.1605C70.1523 61.3909 70.1451 61.6105 70.1451 61.8173V66.2607H71.9921Z" fill="#808080"/>
<path fill-rule="evenodd" clip-rule="evenodd" d="M82.563 61.6812C82.1809 61.5614 81.7156 61.5016 81.1687 61.5016H80.104V59.7047H83.8743V58.3271H78.2678V66.2607H81.1687C81.6433 66.2607 82.067 66.199 82.4398 66.0755C82.8131 65.952 83.1281 65.7779 83.3851 65.5546C83.6424 65.3315 83.8398 65.0626 83.9756 64.7486C84.1114 64.4349 84.1783 64.0881 84.1783 63.707C84.1783 63.4128 84.1239 63.1316 84.0153 62.8648C83.9066 62.5978 83.7328 62.3638 83.494 62.1623C83.2548 61.9608 82.9452 61.8012 82.563 61.6812ZM81.7662 64.7904C81.6106 64.8449 81.4115 64.8721 81.1687 64.8721H80.104V62.8902H81.1687C81.4115 62.8902 81.6106 62.9139 81.7662 62.9626C81.9221 63.0118 82.0451 63.0807 82.1338 63.1698C82.2225 63.2585 82.2826 63.3657 82.3149 63.4892C82.3474 63.6125 82.364 63.7468 82.364 63.8921C82.364 64.019 82.3474 64.1408 82.3149 64.2569C82.2826 64.373 82.2225 64.4764 82.1338 64.5691C82.0451 64.6617 81.9221 64.736 81.7662 64.7904Z" fill="#808080"/>
<path d="M96.8588 66.2607V58.3271H95.4736C95.3866 58.3271 95.3035 58.3434 95.2237 58.3759C95.1441 58.4087 95.0697 58.4506 95.001 58.5031C94.9322 58.5559 94.8706 58.6156 94.8144 58.6811C94.7583 58.7464 94.7092 58.8118 94.6695 58.8771L92.2631 62.9992C92.1686 63.1479 92.0727 63.3202 91.9749 63.5181C91.8773 63.7159 91.7868 63.9303 91.7033 64.1588C91.7432 63.8975 91.7686 63.6505 91.7795 63.4201C91.7901 63.1896 91.7957 62.972 91.7957 62.7648V58.3271H89.9487V66.2607H91.334C91.4209 66.2607 91.5044 66.2444 91.5838 66.2116C91.6636 66.179 91.7378 66.1355 91.8067 66.0827C91.8753 66.0303 91.9387 65.9722 91.9948 65.9068C92.0511 65.8415 92.0981 65.7761 92.138 65.7107L94.5446 61.5886C94.6387 61.4399 94.7348 61.2657 94.8324 61.0678C94.9302 60.8699 95.0209 60.6559 95.1042 60.4235C95.068 60.6848 95.0444 60.9298 95.0319 61.1605C95.019 61.3909 95.0116 61.6105 95.0116 61.8173V66.2607H96.8588Z" fill="#808080"/>
<path fill-rule="evenodd" clip-rule="evenodd" d="M107.364 58.525C106.964 58.3924 106.484 58.3271 105.927 58.3271H103.134V66.2607H104.971V63.609H105.927C106.473 63.609 106.948 63.5416 107.348 63.4092C107.748 63.2767 108.078 63.0935 108.339 62.8574C108.599 62.6213 108.793 62.3382 108.92 62.0079C109.047 61.6777 109.11 61.3147 109.11 60.9191C109.11 60.5523 109.049 60.211 108.925 59.8953C108.802 59.5795 108.612 59.3054 108.353 59.073C108.094 58.8407 107.765 58.6574 107.364 58.525ZM106.959 61.8775C106.749 62.1062 106.405 62.2204 105.927 62.2204H104.971V59.7047H105.927C106.159 59.7047 106.359 59.7336 106.528 59.7917C106.696 59.8499 106.836 59.9315 106.946 60.0387C107.057 60.1456 107.138 60.2748 107.193 60.4235C107.247 60.5722 107.274 60.7376 107.274 60.9191C107.274 61.329 107.169 61.6488 106.959 61.8775Z" fill="#808080"/>
<path d="M120.253 64.2319C120.21 64.2156 120.167 64.2084 120.123 64.2084C120.069 64.2084 120.016 64.2193 119.966 64.2428C119.915 64.2664 119.868 64.2972 119.824 64.3334C119.716 64.4317 119.609 64.5114 119.504 64.5751C119.399 64.6385 119.287 64.6893 119.167 64.7275C119.048 64.7656 118.919 64.7928 118.781 64.8091C118.644 64.8254 118.491 64.8343 118.325 64.8343C118.035 64.8343 117.764 64.7782 117.51 64.6658C117.256 64.5532 117.036 64.3879 116.845 64.1721C116.655 63.956 116.505 63.691 116.395 63.3751C116.284 63.0594 116.228 62.6981 116.228 62.2915C116.228 61.8886 116.279 61.5294 116.378 61.2153C116.478 60.9013 116.619 60.6363 116.802 60.4202C116.985 60.2043 117.202 60.0408 117.454 59.9282C117.705 59.8158 117.983 59.7596 118.287 59.7596C118.479 59.7596 118.647 59.7743 118.79 59.803C118.933 59.8323 119.058 59.8666 119.165 59.9084C119.272 59.9502 119.364 59.9956 119.442 60.0445C119.52 60.0936 119.591 60.1391 119.656 60.1806C119.721 60.2224 119.783 60.2586 119.841 60.2878C119.899 60.3167 119.96 60.3313 120.025 60.3313C120.123 60.3313 120.199 60.3097 120.253 60.2678C120.308 60.2261 120.355 60.1806 120.395 60.1298L121.014 59.2969C120.865 59.1442 120.695 59.0027 120.503 58.872C120.311 58.7412 120.101 58.6286 119.873 58.5363C119.645 58.4437 119.401 58.3711 119.138 58.3183C118.875 58.2659 118.595 58.2402 118.298 58.2402C117.715 58.2402 117.181 58.3402 116.695 58.54C116.21 58.7394 115.793 59.019 115.446 59.3784C115.098 59.7377 114.828 60.1643 114.636 60.66C114.444 61.1553 114.348 61.6999 114.348 62.2915C114.348 62.8724 114.437 63.4096 114.614 63.9051C114.792 64.4008 115.047 64.8291 115.379 65.1902C115.71 65.5514 116.114 65.8346 116.59 66.0397C117.066 66.2449 117.604 66.3482 118.205 66.3482C118.861 66.3482 119.429 66.2412 119.909 66.0288C120.389 65.8164 120.788 65.5026 121.107 65.085L120.379 64.3173C120.338 64.2773 120.297 64.2482 120.253 64.2319Z" fill="#808080"/>
<path d="M132.059 66.2607H133.738L131.967 62.9882C131.819 62.7233 131.659 62.5145 131.489 62.3638C131.318 62.213 131.112 62.1062 130.87 62.0408C131.022 61.979 131.161 61.901 131.288 61.8064C131.414 61.7121 131.523 61.5923 131.613 61.4472L133.542 58.3271H131.967C131.797 58.3271 131.652 58.3706 131.532 58.4579C131.413 58.5448 131.312 58.6574 131.228 58.7952L129.794 61.1857C129.71 61.3201 129.62 61.4127 129.52 61.4635C129.421 61.5142 129.301 61.5399 129.164 61.5399H128.49V58.3271H126.654V66.2607H128.49V62.8846H129.316C129.482 62.8846 129.62 62.9102 129.729 62.9609C129.837 63.0118 129.935 63.117 130.022 63.2767L131.337 65.7544C131.431 65.9179 131.535 66.0429 131.646 66.1299C131.759 66.2173 131.896 66.2607 132.059 66.2607Z" fill="#808080"/>
</g>
<defs>
<clipPath id="clip0_337_101">
<rect width="135" height="67" fill="white"/>
</clipPath>
</defs>
</svg>
