<?xml version="1.0" encoding="UTF-8"?> <svg xmlns="http://www.w3.org/2000/svg" fill="none" viewBox="0 0 220 38"> <defs></defs> <path fill="#C21F22" d="M129.47 19c0 10.5-8.62 19-19.25 19-10.64 0-19.26-8.5-19.26-19s8.62-19 19.26-19c10.63 0 19.25 8.5 19.25 19z"></path> <path fill="#fff" d="M122.34 17.7a.87.87 0 00-1.21.14 5.26 5.26 0 01-1.68 1.41c-1.18.63-2.56.8-4.12.5a5.16 5.16 0 00.02-1.45 7.79 7.79 0 004-3.66c.42-.86.64-1.77.68-2.77a.86.86 0 00-.82-.89.86.86 0 00-.9.82c-.03.78-.2 1.45-.52 2.1a5.98 5.98 0 01-2.95 2.76 5.15 5.15 0 00-.88-1.24 7.6 7.6 0 001-5.18 6.88 6.88 0 00-1.1-2.64.87.87 0 00-1.2-.24c-.39.26-.5.79-.23 1.18.44.65.7 1.29.84 2 .23 1.25-.01 2.54-.7 3.85a5.2 5.2 0 00-1.51-.49 7.62 7.62 0 00-2.27-4.68 7.06 7.06 0 00-2.46-1.5.87.87 0 00-1.11.5c-.17.44.06.93.5 1.1a5.3 5.3 0 011.88 1.13c.92.86 1.5 2.02 1.72 3.46-.54.1-1.06.27-1.52.52a7.8 7.8 0 00-4.61-2.46 7.15 7.15 0 00-2.89.22.85.85 0 00-.6 1.05c.13.45.6.71 1.07.59a5.35 5.35 0 012.19-.17c1.26.17 2.42.77 3.46 1.81-.36.39-.66.82-.9 1.3a7.86 7.86 0 00-5.22.68 7.02 7.02 0 00-2.2 1.85c-.3.37-.24.9.13 1.2a.87.87 0 001.22-.15 5.26 5.26 0 011.67-1.4 6.05 6.05 0 013.94-.53 5.1 5.1 0 00.07 1.52 7.75 7.75 0 00-3.9 3.62 6.88 6.88 0 00-.7 2.77.86.86 0 00.87.89c.46 0 .84-.36.86-.82.04-.78.2-1.45.52-2.1a5.99 5.99 0 012.97-2.77c.25.42.56.8.92 1.14a7.64 7.64 0 00-1.06 5.3c.17.93.53 1.8 1.1 2.63a.87.87 0 001.2.24c.4-.26.5-.79.24-1.18a5.16 5.16 0 01-.84-2c-.25-1.31.03-2.67.8-4.05.43.2.89.33 1.37.4a7.7 7.7 0 002.3 4.97c.7.66 1.5 1.15 2.47 1.5a.87.87 0 001.1-.5.85.85 0 00-.5-1.1 5.3 5.3 0 01-1.88-1.13 5.97 5.97 0 01-1.76-3.8c.47-.08.91-.24 1.33-.44a7.9 7.9 0 005.76 2.78c.65 0 1.3-.1 1.97-.28.46-.13.73-.6.6-1.05a.86.86 0 00-1.07-.6c-.76.22-1.46.27-2.19.18a6.1 6.1 0 01-3.68-2.05c.33-.33.61-.7.84-1.12.72.15 1.39.22 2 .22a7.02 7.02 0 005.71-2.69c.3-.37.23-.9-.14-1.2zm-8.7 1.6a3.36 3.36 0 01-.74 1.78l-.04.05-.03.04c-.36.4-.82.73-1.34.94l-.03.01a4.44 4.44 0 01-.32.1l-.03.01a3.5 3.5 0 01-1.66.04 3.6 3.6 0 01-.35-.1l-.04-.01a3.46 3.46 0 01-1.4-.92 3.53 3.53 0 01-.23-.29l-.04-.04c-.32-.46-.54-1-.6-1.58-.02-.06-.02-.12-.02-.18v-.01l-.01-.18v-.01-.09c.02-.6.19-1.15.47-1.64l.02-.02.1-.17.06-.07.08-.1.04-.06c.36-.44.84-.8 1.39-1.01l.02-.01.22-.08.26-.07a3.5 3.5 0 011.73.04h.01c.15.04.3.1.44.16h.02c.54.24 1 .61 1.35 1.07l.08.1c0 .02.02.03.03.05l.05.08.06.1.03.04c.27.48.43 1.03.44 1.62v.25l-.01.16zM214.17 17.29c2.36-1.93 4.1-4.57 4.1-7.01 0-4.25-1.72-5.52-7.31-5.52-2.09 0-3.98.39-7.3.39l-4.84-.01s-1.64 5.99 4.39 5.99c2.15 0 4.4-1.28 6.45-1.28 2.13 0 2.59.43 2.59 1.28 0 3.4-8.61 4.67-8.61 4.67 0 1.28.88 4.25 3.87 4.25h.43c1.72 0 6.03 1.28 6.03 4.25 0 2.12-1.72 2.97-4.3 2.97-.67 0-5.2.1-7.76-.85-3.44-1.27-4.73-2.55-4.73-2.55-.43.43-1.3 1.7-1.3 3.4 0 3.4 4.3 5.53 8.62 5.53h6.89c7.4 0 8.61-4.38 8.61-7.65 0-5.15-4.2-7.24-5.83-7.86z"></path> <path fill="url(#paint0_linear)" d="M214.17 17.29c2.36-1.93 4.1-4.57 4.1-7.01 0-4.25-1.72-5.52-7.31-5.52-2.09 0-3.98.39-7.3.39l-4.84-.01s-1.64 5.99 4.39 5.99c2.15 0 4.4-1.28 6.45-1.28 2.13 0 2.59.43 2.59 1.28 0 3.4-8.61 4.67-8.61 4.67 0 1.28.88 4.25 3.87 4.25h.43c1.72 0 6.03 1.28 6.03 4.25 0 2.12-1.72 2.97-4.3 2.97-.67 0-5.2.1-7.76-.85-3.44-1.27-4.73-2.55-4.73-2.55-.43.43-1.3 1.7-1.3 3.4 0 3.4 4.3 5.53 8.62 5.53h6.89c7.4 0 8.61-4.38 8.61-7.65 0-5.15-4.2-7.24-5.83-7.86z"></path> <path fill="#fff" d="M183.48 22.18a14.67 14.67 0 01-1.4 3.34c-.94-2.52-4.15-11-7.1-16.45-1.84-3.4-3.5-4.31-5.24-4.31-2.63 0-4.37 1.72-4.37 1.72 2.16 2.66 5.68 8.63 7.42 12.07a57.66 57.66 0 013.81 9.05h-.75c-3.06 0-6.11-2.15-6.11-2.15s-.88 1.3-.88 3.02c0 3.38 5.18 4.31 7.87 4.31 5.33 0 9.32-1.24 12.23-9.05 3.06-8.2 6.12-18.11 6.12-18.11s-2.6-.86-4.8-.86c-3.94 0-3.24 6.47-6.8 17.43z"></path> <path fill="url(#paint1_linear)" d="M183.48 22.18a14.67 14.67 0 01-1.4 3.34c-.94-2.52-4.15-11-7.1-16.45-1.84-3.4-3.5-4.31-5.24-4.31-2.63 0-4.37 1.72-4.37 1.72 2.16 2.66 5.68 8.63 7.42 12.07a57.66 57.66 0 013.81 9.05h-.75c-3.06 0-6.11-2.15-6.11-2.15s-.88 1.3-.88 3.02c0 3.38 5.18 4.31 7.87 4.31 5.33 0 9.32-1.24 12.23-9.05 3.06-8.2 6.12-18.11 6.12-18.11s-2.6-.86-4.8-.86c-3.94 0-3.24 6.47-6.8 17.43z"></path> <path fill="#fff" d="M153.94 15.1c-5.25 0-8.74 3.02-8.74 3.02v-7.48c3.07.29 7.45.58 9.61.58 6.53 0 7-6.03 7-6.03h-25.35v1.1c0 1.72 1.17 2.7 2.62 3.27V27.6c-2.19 2.58-2.19 5.17-2.19 5.17h17.05c5.24 0 8.74-1.3 8.74-6.9 0-6.47-3.94-10.78-8.74-10.78zm-1.31 12.5h-7.43V24.6s2.18-3.88 7.43-3.88c2.62 0 3.93 2.15 3.93 4.3 0 1.73-.88 2.6-3.93 2.6z"></path> <path fill="url(#paint2_linear)" d="M153.94 15.1c-5.25 0-8.74 3.02-8.74 3.02v-7.48c3.07.29 7.45.58 9.61.58 6.53 0 7-6.03 7-6.03h-25.35v1.1c0 1.72 1.17 2.7 2.62 3.27V27.6c-2.19 2.58-2.19 5.17-2.19 5.17h17.05c5.24 0 8.74-1.3 8.74-6.9 0-6.47-3.94-10.78-8.74-10.78zm-1.31 12.5h-7.43V24.6s2.18-3.88 7.43-3.88c2.62 0 3.93 2.15 3.93 4.3 0 1.73-.88 2.6-3.93 2.6z"></path> <path fill="#fff" d="M83.03 5.2h-5.68v11.64H67.08L66.86 5.2h-8.3c0 3.88 2.62 5.6 2.62 5.6l-.44 21.56s.87.44 3.5.44c2.62 0 3.06-2.16 3.06-3.45l-.12-7.02c1.1.25 2.85.55 4.92.55 2.55 0 4.23-.24 5.25-.46v9.94s.87.44 3.5.44c2.18 0 3.05-2.16 3.05-3.45 0-3.88-.87-24.15-.87-24.15z"></path> <path fill="url(#paint3_linear)" d="M83.03 5.2h-5.68v11.64H67.08L66.86 5.2h-8.3c0 3.88 2.62 5.6 2.62 5.6l-.44 21.56s.87.44 3.5.44c2.62 0 3.06-2.16 3.06-3.45l-.12-7.02c1.1.25 2.85.55 4.92.55 2.55 0 4.23-.24 5.25-.46v9.94s.87.44 3.5.44c2.18 0 3.05-2.16 3.05-3.45 0-3.88-.87-24.15-.87-24.15z"></path> <path fill="#fff" d="M48.35 8.18a3.97 3.97 0 00-3.86-2.98H33.2c0 3.45 2.19 5.6 4.8 5.6 0 0-1.74 5.18-4.36 11.65-3.04 7.49-4.37 8.62-4.37 8.62s1.47 1.73 3.93 1.73c2.06 0 3.14-.93 4.59-4.63.48.24 1.8.75 4.15.75 2.76 0 5.88-1.06 6.46-1.26 1.4 3.7 2.56 5.06 5.72 5.06 1.53 0 2.68-1.22 2.68-1.22s-2.62-5.17-5.25-12.5a123.48 123.48 0 01-3.21-10.82zm-8.88 15.13c2.53-7.92 3.8-12.5 3.8-12.5S45 17.7 46.72 22.8l.17.51h-7.43z"></path> <path fill="url(#paint4_linear)" d="M48.35 8.18a3.97 3.97 0 00-3.86-2.98H33.2c0 3.45 2.19 5.6 4.8 5.6 0 0-1.74 5.18-4.36 11.65-3.04 7.49-4.37 8.62-4.37 8.62s1.47 1.73 3.93 1.73c2.06 0 3.14-.93 4.59-4.63.48.24 1.8.75 4.15.75 2.76 0 5.88-1.06 6.46-1.26 1.4 3.7 2.56 5.06 5.72 5.06 1.53 0 2.68-1.22 2.68-1.22s-2.62-5.17-5.25-12.5a123.48 123.48 0 01-3.21-10.82zm-8.88 15.13c2.53-7.92 3.8-12.5 3.8-12.5S45 17.7 46.72 22.8l.17.51h-7.43z"></path> <path fill="#fff" d="M22.29 4.77c-3.54 0-5.2 3.82-8.48 9.55-2.73-4.5-5.88-9.55-8.57-9.55C1.74 4.77 0 7.8 0 7.8s4.67 2.52 10.66 11.66c-.47.7-.96 1.41-1.48 2.14C4.8 27.62 0 31.07 0 31.07s1.2 1.73 3.93 1.73a7 7 0 004.81-1.73 35.09 35.09 0 005.2-6.4c2.82 4.55 5.25 8.13 7.9 8.13 3.07 0 4.82-2.6 4.82-2.6s-3.8-2.3-9.47-10.55C24.93 8.2 26.66 6.5 26.66 6.5s-1.75-1.73-4.37-1.73z"></path> <path fill="url(#paint5_linear)" d="M22.29 4.77c-3.54 0-5.2 3.82-8.48 9.55-2.73-4.5-5.88-9.55-8.57-9.55C1.74 4.77 0 7.8 0 7.8s4.67 2.52 10.66 11.66c-.47.7-.96 1.41-1.48 2.14C4.8 27.62 0 31.07 0 31.07s1.2 1.73 3.93 1.73a7 7 0 004.81-1.73 35.09 35.09 0 005.2-6.4c2.82 4.55 5.25 8.13 7.9 8.13 3.07 0 4.82-2.6 4.82-2.6s-3.8-2.3-9.47-10.55C24.93 8.2 26.66 6.5 26.66 6.5s-1.75-1.73-4.37-1.73z"></path> <defs> <linearGradient id="paint0_linear" x1="207.94" x2="207.94" y1="4.76" y2="32.8" gradientUnits="userSpaceOnUse"> <stop stop-color="#fff"></stop> <stop offset="1" stop-color="#fff" stop-opacity="0"></stop> </linearGradient> <linearGradient id="paint1_linear" x1="180.22" x2="180.22" y1="4.76" y2="32.78" gradientUnits="userSpaceOnUse"> <stop stop-color="#fff"></stop> <stop offset="1" stop-color="#fff" stop-opacity="0"></stop> </linearGradient> <linearGradient id="paint2_linear" x1="149.57" x2="149.57" y1="5.19" y2="32.78" gradientUnits="userSpaceOnUse"> <stop stop-color="#fff"></stop> <stop offset="1" stop-color="#fff" stop-opacity="0"></stop> </linearGradient> <linearGradient id="paint3_linear" x1="71.23" x2="71.23" y1="5.2" y2="32.8" gradientUnits="userSpaceOnUse"> <stop stop-color="#fff"></stop> <stop offset="1" stop-color="#fff" stop-opacity="0"></stop> </linearGradient> <linearGradient id="paint4_linear" x1="43.04" x2="43.04" y1="5.2" y2="32.8" gradientUnits="userSpaceOnUse"> <stop stop-color="#fff"></stop> <stop offset="1" stop-color="#fff" stop-opacity="0"></stop> </linearGradient> <linearGradient id="paint5_linear" x1="13.33" x2="13.33" y1="4.77" y2="32.8" gradientUnits="userSpaceOnUse"> <stop stop-color="#fff"></stop> <stop offset="1" stop-color="#fff" stop-opacity="0"></stop> </linearGradient> </defs> </svg> 