<svg width="220" height="38" viewBox="0 0 220 38" fill="none" xmlns="http://www.w3.org/2000/svg">
<g clip-path="url(#clip0_337_49)">
<path d="M129.47 19C129.47 29.5 120.85 38 110.22 38C99.58 38 90.96 29.5 90.96 19C90.96 8.5 99.58 0 110.22 0C120.85 0 129.47 8.5 129.47 19Z" fill="#808080"/>
<path d="M122.34 17.6998C122.16 17.5601 121.933 17.4965 121.706 17.5227C121.48 17.5489 121.273 17.6627 121.13 17.8398C120.675 18.4226 120.103 18.903 119.45 19.2498C118.27 19.8798 116.89 20.0498 115.33 19.7498C115.405 19.2698 115.412 18.7816 115.35 18.2998C117.079 17.5981 118.498 16.2994 119.35 14.6398C119.77 13.7798 119.99 12.8698 120.03 11.8698C120.038 11.6433 119.957 11.4228 119.803 11.2561C119.649 11.0895 119.436 10.9902 119.21 10.9798C119.097 10.9744 118.984 10.9913 118.878 11.0297C118.771 11.068 118.673 11.1269 118.59 11.2031C118.506 11.2793 118.439 11.3712 118.391 11.4735C118.342 11.5759 118.315 11.6868 118.31 11.7998C118.28 12.5798 118.11 13.2498 117.79 13.8998C117.157 15.1341 116.114 16.1098 114.84 16.6598C114.61 16.2052 114.313 15.7873 113.96 15.4198C114.901 13.8679 115.256 12.0304 114.96 10.2398C114.782 9.29243 114.408 8.393 113.86 7.59977C113.732 7.4098 113.534 7.27805 113.309 7.23312C113.085 7.18818 112.851 7.23369 112.66 7.35977C112.27 7.61977 112.16 8.14977 112.43 8.53977C112.87 9.18977 113.13 9.82977 113.27 10.5398C113.5 11.7898 113.26 13.0798 112.57 14.3898C112.095 14.1501 111.585 13.9849 111.06 13.8998C110.876 12.1218 110.072 10.4652 108.79 9.21977C108.082 8.55598 107.244 8.04535 106.33 7.71977C106.116 7.64136 105.88 7.6498 105.673 7.74327C105.465 7.83674 105.303 8.0078 105.22 8.21977C105.05 8.65977 105.28 9.14977 105.72 9.31977C106.419 9.56122 107.059 9.94612 107.6 10.4498C108.52 11.3098 109.1 12.4698 109.32 13.9098C108.78 14.0098 108.26 14.1798 107.8 14.4298C106.592 13.1041 104.964 12.2354 103.19 11.9698C102.222 11.845 101.238 11.9199 100.3 12.1898C100.191 12.2187 100.089 12.2689 100 12.3375C99.9111 12.4061 99.8365 12.4918 99.7806 12.5894C99.7248 12.6871 99.689 12.7949 99.6751 12.9065C99.6613 13.0181 99.6697 13.1314 99.7 13.2398C99.83 13.6898 100.3 13.9498 100.77 13.8298C101.48 13.6222 102.226 13.5643 102.96 13.6598C104.22 13.8298 105.38 14.4298 106.42 15.4698C106.06 15.8598 105.76 16.2898 105.52 16.7698C103.754 16.3897 101.91 16.6298 100.3 17.4498C99.4469 17.9081 98.6979 18.538 98.1 19.2998C97.8 19.6698 97.86 20.1998 98.23 20.4998C98.4117 20.6414 98.6423 20.7052 98.871 20.6771C99.0997 20.649 99.3079 20.5312 99.45 20.3498C99.9028 19.7716 100.472 19.2947 101.12 18.9498C102.336 18.3343 103.724 18.1476 105.06 18.4198C105.007 18.9271 105.031 19.4395 105.13 19.9398C103.443 20.6483 102.062 21.9306 101.23 23.5598C100.805 24.4239 100.567 25.3676 100.53 26.3298C100.526 26.446 100.545 26.5619 100.587 26.6704C100.63 26.7789 100.693 26.8778 100.774 26.961C100.856 27.0442 100.953 27.11 101.061 27.1545C101.168 27.199 101.284 27.2212 101.4 27.2198C101.86 27.2198 102.24 26.8598 102.26 26.3998C102.3 25.6198 102.46 24.9498 102.78 24.2998C103.417 23.0588 104.468 22.0791 105.75 21.5298C106 21.9498 106.31 22.3298 106.67 22.6698C105.683 24.2483 105.306 26.133 105.61 27.9698C105.78 28.8998 106.14 29.7698 106.71 30.5998C106.838 30.7897 107.036 30.9215 107.261 30.9664C107.485 31.0114 107.719 30.9658 107.91 30.8398C108.31 30.5798 108.41 30.0498 108.15 29.6598C107.731 29.0601 107.445 28.3784 107.31 27.6598C107.06 26.3498 107.34 24.9898 108.11 23.6098C108.54 23.8098 109 23.9398 109.48 24.0098C109.612 25.8923 110.43 27.6609 111.78 28.9798C112.48 29.6398 113.28 30.1298 114.25 30.4798C114.462 30.5551 114.696 30.5451 114.901 30.4519C115.106 30.3586 115.267 30.1894 115.35 29.9798C115.39 29.8748 115.409 29.7629 115.405 29.6506C115.402 29.5382 115.376 29.4277 115.329 29.3255C115.283 29.2232 115.217 29.1311 115.134 29.0546C115.052 28.9781 114.955 28.9187 114.85 28.8798C114.151 28.6383 113.511 28.2534 112.97 27.7498C111.944 26.7372 111.319 25.3874 111.21 23.9498C111.68 23.8698 112.12 23.7098 112.54 23.5098C113.253 24.3491 114.134 25.03 115.126 25.5087C116.118 25.9875 117.199 26.2535 118.3 26.2898C118.95 26.2898 119.6 26.1898 120.27 26.0098C120.73 25.8798 121 25.4098 120.87 24.9598C120.84 24.8496 120.788 24.7465 120.718 24.6564C120.648 24.5664 120.56 24.4913 120.461 24.4354C120.361 24.3796 120.251 24.3441 120.138 24.3311C120.025 24.3181 119.91 24.3279 119.8 24.3598C119.04 24.5798 118.34 24.6298 117.61 24.5398C116.179 24.3151 114.874 23.5884 113.93 22.4898C114.26 22.1598 114.54 21.7898 114.77 21.3698C115.49 21.5198 116.16 21.5898 116.77 21.5898C117.866 21.6183 118.953 21.3898 119.944 20.9227C120.936 20.4556 121.804 19.7628 122.48 18.8998C122.78 18.5298 122.71 17.9998 122.34 17.6998V17.6998ZM113.64 19.2998C113.572 19.9526 113.315 20.5714 112.9 21.0798L112.86 21.1298L112.83 21.1698C112.47 21.5698 112.01 21.8998 111.49 22.1098L111.46 22.1198C111.355 22.1571 111.248 22.1905 111.14 22.2198L111.11 22.2298C110.568 22.3761 109.999 22.3898 109.45 22.2698C109.332 22.2424 109.215 22.209 109.1 22.1698L109.06 22.1598C108.525 21.9724 108.044 21.6565 107.66 21.2398C107.578 21.1472 107.502 21.0504 107.43 20.9498L107.39 20.9098C107.07 20.4498 106.85 19.9098 106.79 19.3298C106.77 19.2698 106.77 19.2098 106.77 19.1498V19.1398L106.76 18.9598V18.9498V18.8598C106.78 18.2598 106.95 17.7098 107.23 17.2198L107.25 17.1998L107.35 17.0298L107.41 16.9598L107.49 16.8598L107.53 16.7998C107.89 16.3598 108.37 15.9998 108.92 15.7898L108.94 15.7798L109.16 15.6998L109.42 15.6298C109.991 15.4981 110.586 15.5118 111.15 15.6698H111.16C111.31 15.7098 111.46 15.7698 111.6 15.8298H111.62C112.16 16.0698 112.62 16.4398 112.97 16.8998L113.05 16.9998C113.05 17.0198 113.07 17.0298 113.08 17.0498L113.13 17.1298L113.19 17.2298L113.22 17.2698C113.49 17.7498 113.65 18.2998 113.66 18.8898V19.1398L113.65 19.2998H113.64ZM214.17 17.2898C216.53 15.3598 218.27 12.7198 218.27 10.2798C218.27 6.02977 216.55 4.75977 210.96 4.75977C208.87 4.75977 206.98 5.14977 203.66 5.14977L198.82 5.13977C198.82 5.13977 197.18 11.1298 203.21 11.1298C205.36 11.1298 207.61 9.84977 209.66 9.84977C211.79 9.84977 212.25 10.2798 212.25 11.1298C212.25 14.5298 203.64 15.7998 203.64 15.7998C203.64 17.0798 204.52 20.0498 207.51 20.0498H207.94C209.66 20.0498 213.97 21.3298 213.97 24.2998C213.97 26.4198 212.25 27.2698 209.67 27.2698C209 27.2698 204.47 27.3698 201.91 26.4198C198.47 25.1498 197.18 23.8698 197.18 23.8698C196.75 24.2998 195.88 25.5698 195.88 27.2698C195.88 30.6698 200.18 32.7998 204.5 32.7998H211.39C218.79 32.7998 220 28.4198 220 25.1498C220 19.9998 215.8 17.9098 214.17 17.2898V17.2898Z" fill="#EAD4D4"/>
<path d="M214.17 17.2898C216.53 15.3598 218.27 12.7198 218.27 10.2798C218.27 6.02977 216.55 4.75977 210.96 4.75977C208.87 4.75977 206.98 5.14977 203.66 5.14977L198.82 5.13977C198.82 5.13977 197.18 11.1298 203.21 11.1298C205.36 11.1298 207.61 9.84977 209.66 9.84977C211.79 9.84977 212.25 10.2798 212.25 11.1298C212.25 14.5298 203.64 15.7998 203.64 15.7998C203.64 17.0798 204.52 20.0498 207.51 20.0498H207.94C209.66 20.0498 213.97 21.3298 213.97 24.2998C213.97 26.4198 212.25 27.2698 209.67 27.2698C209 27.2698 204.47 27.3698 201.91 26.4198C198.47 25.1498 197.18 23.8698 197.18 23.8698C196.75 24.2998 195.88 25.5698 195.88 27.2698C195.88 30.6698 200.18 32.7998 204.5 32.7998H211.39C218.79 32.7998 220 28.4198 220 25.1498C220 19.9998 215.8 17.9098 214.17 17.2898V17.2898Z" fill="url(#paint0_linear_337_49)"/>
<path d="M183.48 22.1798C183.153 23.3466 182.683 24.4685 182.08 25.5198C181.14 22.9998 177.93 14.5198 174.98 9.06977C173.14 5.66976 171.48 4.75977 169.74 4.75977C167.11 4.75977 165.37 6.47977 165.37 6.47977C167.53 9.13977 171.05 15.1098 172.79 18.5498C174.315 21.4526 175.59 24.4803 176.6 27.5998H175.85C172.79 27.5998 169.74 25.4498 169.74 25.4498C169.74 25.4498 168.86 26.7498 168.86 28.4698C168.86 31.8498 174.04 32.7798 176.73 32.7798C182.06 32.7798 186.05 31.5398 188.96 23.7298C192.02 15.5298 195.08 5.61977 195.08 5.61977C195.08 5.61977 192.48 4.75977 190.28 4.75977C186.34 4.75977 187.04 11.2298 183.48 22.1898V22.1798Z" fill="#808080"/>
<path d="M183.48 22.1798C183.153 23.3466 182.683 24.4685 182.08 25.5198C181.14 22.9998 177.93 14.5198 174.98 9.06977C173.14 5.66976 171.48 4.75977 169.74 4.75977C167.11 4.75977 165.37 6.47977 165.37 6.47977C167.53 9.13977 171.05 15.1098 172.79 18.5498C174.315 21.4526 175.59 24.4803 176.6 27.5998H175.85C172.79 27.5998 169.74 25.4498 169.74 25.4498C169.74 25.4498 168.86 26.7498 168.86 28.4698C168.86 31.8498 174.04 32.7798 176.73 32.7798C182.06 32.7798 186.05 31.5398 188.96 23.7298C192.02 15.5298 195.08 5.61977 195.08 5.61977C195.08 5.61977 192.48 4.75977 190.28 4.75977C186.34 4.75977 187.04 11.2298 183.48 22.1898V22.1798Z" fill="url(#paint1_linear_337_49)"/>
<path d="M153.94 15.1004C148.69 15.1004 145.2 18.1204 145.2 18.1204V10.6404C148.27 10.9304 152.65 11.2204 154.81 11.2204C161.34 11.2204 161.81 5.19043 161.81 5.19043H136.46V6.29043C136.46 8.01043 137.63 8.99043 139.08 9.56043V27.6004C136.89 30.1804 136.89 32.7704 136.89 32.7704H153.94C159.18 32.7704 162.68 31.4704 162.68 25.8704C162.68 19.4004 158.74 15.0904 153.94 15.0904V15.1004ZM152.63 27.6004H145.2V24.6004C145.2 24.6004 147.38 20.7204 152.63 20.7204C155.25 20.7204 156.56 22.8704 156.56 25.0204C156.56 26.7504 155.68 27.6204 152.63 27.6204V27.6004Z" fill="#808080"/>
<path d="M153.94 15.1004C148.69 15.1004 145.2 18.1204 145.2 18.1204V10.6404C148.27 10.9304 152.65 11.2204 154.81 11.2204C161.34 11.2204 161.81 5.19043 161.81 5.19043H136.46V6.29043C136.46 8.01043 137.63 8.99043 139.08 9.56043V27.6004C136.89 30.1804 136.89 32.7704 136.89 32.7704H153.94C159.18 32.7704 162.68 31.4704 162.68 25.8704C162.68 19.4004 158.74 15.0904 153.94 15.0904V15.1004ZM152.63 27.6004H145.2V24.6004C145.2 24.6004 147.38 20.7204 152.63 20.7204C155.25 20.7204 156.56 22.8704 156.56 25.0204C156.56 26.7504 155.68 27.6204 152.63 27.6204V27.6004Z" fill="url(#paint2_linear_337_49)"/>
<path d="M83.0301 5.2002H77.3501V16.8402H67.0801L66.8601 5.2002H58.5601C58.5601 9.0802 61.1801 10.8002 61.1801 10.8002L60.7401 32.3602C60.7401 32.3602 61.6101 32.8002 64.2401 32.8002C66.8601 32.8002 67.3001 30.6402 67.3001 29.3502L67.1801 22.3302C68.2801 22.5802 70.0301 22.8802 72.1001 22.8802C74.6501 22.8802 76.3301 22.6402 77.3501 22.4202V32.3602C77.3501 32.3602 78.2201 32.8002 80.8501 32.8002C83.0301 32.8002 83.9001 30.6402 83.9001 29.3502C83.9001 25.4702 83.0301 5.2002 83.0301 5.2002V5.2002Z" fill="#808080"/>
<path d="M83.0301 5.2002H77.3501V16.8402H67.0801L66.8601 5.2002H58.5601C58.5601 9.0802 61.1801 10.8002 61.1801 10.8002L60.7401 32.3602C60.7401 32.3602 61.6101 32.8002 64.2401 32.8002C66.8601 32.8002 67.3001 30.6402 67.3001 29.3502L67.1801 22.3302C68.2801 22.5802 70.0301 22.8802 72.1001 22.8802C74.6501 22.8802 76.3301 22.6402 77.3501 22.4202V32.3602C77.3501 32.3602 78.2201 32.8002 80.8501 32.8002C83.0301 32.8002 83.9001 30.6402 83.9001 29.3502C83.9001 25.4702 83.0301 5.2002 83.0301 5.2002V5.2002Z" fill="url(#paint3_linear_337_49)"/>
<path d="M48.35 8.18023C48.1298 7.32491 47.6306 6.56745 46.9315 6.02772C46.2324 5.48799 45.3732 5.1968 44.49 5.20023H33.2C33.2 8.65023 35.39 10.8002 38 10.8002C38 10.8002 36.26 15.9802 33.64 22.4502C30.6 29.9402 29.27 31.0702 29.27 31.0702C29.27 31.0702 30.74 32.8002 33.2 32.8002C35.26 32.8002 36.34 31.8702 37.79 28.1702C38.27 28.4102 39.59 28.9202 41.94 28.9202C44.7 28.9202 47.82 27.8602 48.4 27.6602C49.8 31.3602 50.96 32.7202 54.12 32.7202C55.65 32.7202 56.8 31.5002 56.8 31.5002C56.8 31.5002 54.18 26.3302 51.55 19.0002C50.3157 15.4444 49.2445 11.8339 48.34 8.18023H48.35ZM39.47 23.3102C42 15.3902 43.27 10.8102 43.27 10.8102C43.27 10.8102 45 17.7002 46.72 22.8002L46.89 23.3102H39.46H39.47Z" fill="#808080"/>
<path d="M48.35 8.18023C48.1298 7.32491 47.6306 6.56745 46.9315 6.02772C46.2324 5.48799 45.3732 5.1968 44.49 5.20023H33.2C33.2 8.65023 35.39 10.8002 38 10.8002C38 10.8002 36.26 15.9802 33.64 22.4502C30.6 29.9402 29.27 31.0702 29.27 31.0702C29.27 31.0702 30.74 32.8002 33.2 32.8002C35.26 32.8002 36.34 31.8702 37.79 28.1702C38.27 28.4102 39.59 28.9202 41.94 28.9202C44.7 28.9202 47.82 27.8602 48.4 27.6602C49.8 31.3602 50.96 32.7202 54.12 32.7202C55.65 32.7202 56.8 31.5002 56.8 31.5002C56.8 31.5002 54.18 26.3302 51.55 19.0002C50.3157 15.4444 49.2445 11.8339 48.34 8.18023H48.35ZM39.47 23.3102C42 15.3902 43.27 10.8102 43.27 10.8102C43.27 10.8102 45 17.7002 46.72 22.8002L46.89 23.3102H39.46H39.47Z" fill="url(#paint4_linear_337_49)"/>
<path d="M22.29 4.76953C18.75 4.76953 17.09 8.58953 13.81 14.3195C11.08 9.81953 7.93 4.76953 5.24 4.76953C1.74 4.76953 0 7.79953 0 7.79953C0 7.79953 4.67 10.3195 10.66 19.4595C10.19 20.1595 9.7 20.8695 9.18 21.5995C4.8 27.6195 0 31.0695 0 31.0695C0 31.0695 1.2 32.7995 3.93 32.7995C5.69409 32.8498 7.41207 32.2319 8.74 31.0695C10.7188 29.148 12.4642 26.9998 13.94 24.6695C16.76 29.2195 19.19 32.7995 21.84 32.7995C24.91 32.7995 26.66 30.1995 26.66 30.1995C26.66 30.1995 22.86 27.8995 17.19 19.6495C24.93 8.19953 26.66 6.49953 26.66 6.49953C26.66 6.49953 24.91 4.76953 22.29 4.76953Z" fill="#808080"/>
<path d="M22.29 4.76953C18.75 4.76953 17.09 8.58953 13.81 14.3195C11.08 9.81953 7.93 4.76953 5.24 4.76953C1.74 4.76953 0 7.79953 0 7.79953C0 7.79953 4.67 10.3195 10.66 19.4595C10.19 20.1595 9.7 20.8695 9.18 21.5995C4.8 27.6195 0 31.0695 0 31.0695C0 31.0695 1.2 32.7995 3.93 32.7995C5.69409 32.8498 7.41207 32.2319 8.74 31.0695C10.7188 29.148 12.4642 26.9998 13.94 24.6695C16.76 29.2195 19.19 32.7995 21.84 32.7995C24.91 32.7995 26.66 30.1995 26.66 30.1995C26.66 30.1995 22.86 27.8995 17.19 19.6495C24.93 8.19953 26.66 6.49953 26.66 6.49953C26.66 6.49953 24.91 4.76953 22.29 4.76953Z" fill="url(#paint5_linear_337_49)"/>
</g>
<defs>
<linearGradient id="paint0_linear_337_49" x1="207.94" y1="4.75977" x2="207.94" y2="32.7998" gradientUnits="userSpaceOnUse">
<stop stop-color="white"/>
<stop offset="1" stop-color="white" stop-opacity="0"/>
</linearGradient>
<linearGradient id="paint1_linear_337_49" x1="180.22" y1="4.75977" x2="180.22" y2="32.7798" gradientUnits="userSpaceOnUse">
<stop stop-color="white"/>
<stop offset="1" stop-color="white" stop-opacity="0"/>
</linearGradient>
<linearGradient id="paint2_linear_337_49" x1="149.57" y1="5.19043" x2="149.57" y2="32.7804" gradientUnits="userSpaceOnUse">
<stop stop-color="white"/>
<stop offset="1" stop-color="white" stop-opacity="0"/>
</linearGradient>
<linearGradient id="paint3_linear_337_49" x1="71.2301" y1="5.2002" x2="71.2301" y2="32.8002" gradientUnits="userSpaceOnUse">
<stop stop-color="white"/>
<stop offset="1" stop-color="white" stop-opacity="0"/>
</linearGradient>
<linearGradient id="paint4_linear_337_49" x1="43.04" y1="5.20023" x2="43.04" y2="32.8002" gradientUnits="userSpaceOnUse">
<stop stop-color="white"/>
<stop offset="1" stop-color="white" stop-opacity="0"/>
</linearGradient>
<linearGradient id="paint5_linear_337_49" x1="13.33" y1="4.76953" x2="13.33" y2="32.7995" gradientUnits="userSpaceOnUse">
<stop stop-color="white"/>
<stop offset="1" stop-color="white" stop-opacity="0"/>
</linearGradient>
<clipPath id="clip0_337_49">
<rect width="220" height="38" fill="white"/>
</clipPath>
</defs>
</svg>
