<svg width="218" height="67" viewBox="0 0 218 67" fill="none" xmlns="http://www.w3.org/2000/svg">
<path d="M1.4 46H6.56C7.88 46 8.98 46.44 9.86 47.32C10.7533 48.2 11.2 49.2933 11.2 50.6C11.2 51.8933 10.7533 52.9867 9.86 53.88C8.98 54.76 7.88 55.2 6.56 55.2H3.7V60H1.4V46ZM3.7 53.04H6.56C7.24 53.04 7.8 52.8133 8.24 52.36C8.68 51.8933 8.9 51.3067 8.9 50.6C8.9 49.8933 8.68 49.3133 8.24 48.86C7.8 48.3933 7.24 48.16 6.56 48.16H3.7V53.04ZM23.2738 51.42V50H25.4338V60H23.2738V58.56C22.4604 59.6933 21.2938 60.26 19.7738 60.26C18.4004 60.26 17.2271 59.7533 16.2538 58.74C15.2804 57.7267 14.7938 56.48 14.7938 55C14.7938 53.52 15.2804 52.2733 16.2538 51.26C17.2271 50.2467 18.4004 49.74 19.7738 49.74C21.2938 49.74 22.4604 50.3 23.2738 51.42ZM17.8538 57.3C18.4538 57.9 19.2071 58.2 20.1138 58.2C21.0204 58.2 21.7738 57.9 22.3738 57.3C22.9738 56.6867 23.2738 55.92 23.2738 55C23.2738 54.08 22.9738 53.32 22.3738 52.72C21.7738 52.1067 21.0204 51.8 20.1138 51.8C19.2071 51.8 18.4538 52.1067 17.8538 52.72C17.2538 53.32 16.9538 54.08 16.9538 55C16.9538 55.9067 17.2538 56.6733 17.8538 57.3ZM36.5714 54.88C37.6381 55.36 38.1714 56.1533 38.1714 57.26C38.1714 58.1267 37.8181 58.8467 37.1114 59.42C36.4047 59.98 35.4447 60.26 34.2314 60.26C32.2181 60.26 30.8581 59.46 30.1514 57.86L31.9114 56.82C32.2714 57.82 33.0514 58.32 34.2514 58.32C34.8114 58.32 35.2514 58.2067 35.5714 57.98C35.8914 57.74 36.0514 57.4267 36.0514 57.04C36.0514 56.6933 35.9247 56.42 35.6714 56.22C35.4181 56.0067 35.0647 55.9 34.6114 55.9H33.1914V54H34.2514C34.6914 54 35.0314 53.9 35.2714 53.7C35.5247 53.4867 35.6514 53.2 35.6514 52.84C35.6514 52.4933 35.5114 52.2133 35.2314 52C34.9514 51.7733 34.5781 51.66 34.1114 51.66C33.1114 51.66 32.4181 52.1 32.0314 52.98L30.2714 51.98C31.0047 50.4867 32.2714 49.74 34.0714 49.74C35.1914 49.74 36.0781 50.0267 36.7314 50.6C37.3981 51.16 37.7314 51.8467 37.7314 52.66C37.7314 53.66 37.3447 54.4 36.5714 54.88ZM48.5958 49.74C49.9558 49.74 51.1291 50.2533 52.1158 51.28C53.0891 52.2933 53.5758 53.5333 53.5758 55C53.5758 56.48 53.0891 57.7267 52.1158 58.74C51.1424 59.7533 49.9691 60.26 48.5958 60.26C47.0891 60.26 45.9224 59.7 45.0958 58.58V64H42.9358V50H45.0958V51.44C45.9091 50.3067 47.0758 49.74 48.5958 49.74ZM45.9958 57.3C46.5958 57.9 47.3491 58.2 48.2558 58.2C49.1624 58.2 49.9158 57.9 50.5158 57.3C51.1158 56.6867 51.4158 55.92 51.4158 55C51.4158 54.08 51.1158 53.32 50.5158 52.72C49.9158 52.1067 49.1624 51.8 48.2558 51.8C47.3491 51.8 46.5958 52.1067 45.9958 52.72C45.3958 53.32 45.0958 54.08 45.0958 55C45.0958 55.9067 45.3958 56.6733 45.9958 57.3ZM66.4534 51.42V50H68.6134V60H66.4534V58.56C65.6401 59.6933 64.4734 60.26 62.9534 60.26C61.5801 60.26 60.4068 59.7533 59.4334 58.74C58.4601 57.7267 57.9734 56.48 57.9734 55C57.9734 53.52 58.4601 52.2733 59.4334 51.26C60.4068 50.2467 61.5801 49.74 62.9534 49.74C64.4734 49.74 65.6401 50.3 66.4534 51.42ZM61.0334 57.3C61.6334 57.9 62.3868 58.2 63.2934 58.2C64.2001 58.2 64.9534 57.9 65.5534 57.3C66.1534 56.6867 66.4534 55.92 66.4534 55C66.4534 54.08 66.1534 53.32 65.5534 52.72C64.9534 52.1067 64.2001 51.8 63.2934 51.8C62.3868 51.8 61.6334 52.1067 61.0334 52.72C60.4334 53.32 60.1334 54.08 60.1334 55C60.1334 55.9067 60.4334 56.6733 61.0334 57.3ZM78.7711 60.26C77.2511 60.26 75.9978 59.7667 75.0111 58.78C74.0511 57.78 73.5711 56.5067 73.5711 54.96C73.5711 53.28 73.8244 51.9733 74.3311 51.04C74.8244 50.12 75.8511 49.2733 77.4111 48.5C77.4644 48.4733 77.5511 48.4333 77.6711 48.38C77.8044 48.3133 77.9444 48.2467 78.0911 48.18C78.2378 48.1133 78.3844 48.0467 78.5311 47.98C79.0911 47.7267 79.4378 47.5667 79.5711 47.5C79.6511 47.46 79.8844 47.3133 80.2711 47.06C80.7378 46.7267 81.0511 46.2533 81.2111 45.64L82.9711 46.66C82.9044 47.3933 82.4444 48.0667 81.5911 48.68C81.4444 48.8133 81.1711 48.9733 80.7711 49.16L79.9111 49.56L78.9111 49.98C78.0444 50.3267 77.4044 50.68 76.9911 51.04C76.5778 51.4 76.2911 51.86 76.1311 52.42C76.9311 51.5133 78.0178 51.06 79.3911 51.06C80.5644 51.06 81.5844 51.48 82.4511 52.32C83.3311 53.16 83.7711 54.2467 83.7711 55.58C83.7711 56.94 83.3044 58.06 82.3711 58.94C81.4511 59.82 80.2511 60.26 78.7711 60.26ZM78.7511 58.24C79.5911 58.24 80.2778 57.9933 80.8111 57.5C81.3444 56.9933 81.6111 56.3533 81.6111 55.58C81.6111 54.7933 81.3444 54.1467 80.8111 53.64C80.2911 53.1333 79.6111 52.88 78.7711 52.88C78.0244 52.88 77.3511 53.12 76.7511 53.6C76.1511 54.0533 75.8511 54.68 75.8511 55.48C75.8511 56.28 76.1311 56.94 76.6911 57.46C77.2511 57.98 77.9378 58.24 78.7511 58.24ZM96.9388 58.74C95.9254 59.7533 94.6788 60.26 93.1988 60.26C91.7188 60.26 90.4721 59.7533 89.4588 58.74C88.4321 57.7133 87.9188 56.4667 87.9188 55C87.9188 53.5333 88.4321 52.2867 89.4588 51.26C90.4721 50.2467 91.7188 49.74 93.1988 49.74C94.6788 49.74 95.9254 50.2467 96.9388 51.26C97.9654 52.2867 98.4788 53.5333 98.4788 55C98.4788 56.4667 97.9654 57.7133 96.9388 58.74ZM90.0788 55C90.0788 55.9067 90.3788 56.66 90.9788 57.26C91.5788 57.86 92.3188 58.16 93.1988 58.16C94.0788 58.16 94.8188 57.86 95.4188 57.26C96.0188 56.66 96.3188 55.9067 96.3188 55C96.3188 54.0933 96.0188 53.34 95.4188 52.74C94.8188 52.14 94.0788 51.84 93.1988 51.84C92.3188 51.84 91.5788 52.14 90.9788 52.74C90.3788 53.34 90.0788 54.0933 90.0788 55ZM101.981 50H110.681V52.08H107.421V60H105.261V52.08H101.981V50ZM119.423 54.9L123.983 60H121.403L117.303 55.38V60H115.143V50H117.303V54.42L121.183 50H123.823L119.423 54.9ZM135.555 51.42V50H137.715V60H135.555V58.56C134.742 59.6933 133.575 60.26 132.055 60.26C130.682 60.26 129.508 59.7533 128.535 58.74C127.562 57.7267 127.075 56.48 127.075 55C127.075 53.52 127.562 52.2733 128.535 51.26C129.508 50.2467 130.682 49.74 132.055 49.74C133.575 49.74 134.742 50.3 135.555 51.42ZM130.135 57.3C130.735 57.9 131.488 58.2 132.395 58.2C133.302 58.2 134.055 57.9 134.655 57.3C135.255 56.6867 135.555 55.92 135.555 55C135.555 54.08 135.255 53.32 134.655 52.72C134.055 52.1067 133.302 51.8 132.395 51.8C131.488 51.8 130.735 52.1067 130.135 52.72C129.535 53.32 129.235 54.08 129.235 55C129.235 55.9067 129.535 56.6733 130.135 57.3ZM155.953 60.26C154.446 60.26 153.186 59.7533 152.173 58.74C151.173 57.7133 150.673 56.4667 150.673 55C150.673 53.5067 151.173 52.26 152.173 51.26C153.186 50.2467 154.446 49.74 155.953 49.74C156.926 49.74 157.813 49.9733 158.613 50.44C159.413 50.9067 160.013 51.5333 160.413 52.32L158.553 53.4C158.326 52.92 157.979 52.5467 157.513 52.28C157.059 52 156.533 51.86 155.933 51.86C155.053 51.86 154.313 52.16 153.713 52.76C153.126 53.3733 152.833 54.12 152.833 55C152.833 55.88 153.126 56.6267 153.713 57.24C154.313 57.84 155.053 58.14 155.933 58.14C156.519 58.14 157.046 58.0067 157.513 57.74C157.993 57.46 158.353 57.08 158.593 56.6L160.453 57.66C160.026 58.46 159.406 59.0933 158.593 59.56C157.793 60.0267 156.913 60.26 155.953 60.26ZM172.778 51.42V50H174.938V60H172.778V58.56C171.964 59.6933 170.798 60.26 169.278 60.26C167.904 60.26 166.731 59.7533 165.758 58.74C164.784 57.7267 164.298 56.48 164.298 55C164.298 53.52 164.784 52.2733 165.758 51.26C166.731 50.2467 167.904 49.74 169.278 49.74C170.798 49.74 171.964 50.3 172.778 51.42ZM167.358 57.3C167.958 57.9 168.711 58.2 169.618 58.2C170.524 58.2 171.278 57.9 171.878 57.3C172.478 56.6867 172.778 55.92 172.778 55C172.778 54.08 172.478 53.32 171.878 52.72C171.278 52.1067 170.524 51.8 169.618 51.8C168.711 51.8 167.958 52.1067 167.358 52.72C166.758 53.32 166.458 54.08 166.458 55C166.458 55.9067 166.758 56.6733 167.358 57.3ZM187.695 48.6H182.095V46.72H187.695V48.6ZM182.575 56.34L187.695 50H189.355V60H187.235V53.64L182.115 60H180.455V50H182.575V56.34ZM193.802 50H202.502V52.08H199.242V60H197.082V52.08H193.802V50ZM214.493 51.42V50H216.653V60H214.493V58.56C213.679 59.6933 212.513 60.26 210.993 60.26C209.619 60.26 208.446 59.7533 207.473 58.74C206.499 57.7267 206.013 56.48 206.013 55C206.013 53.52 206.499 52.2733 207.473 51.26C208.446 50.2467 209.619 49.74 210.993 49.74C212.513 49.74 213.679 50.3 214.493 51.42ZM209.073 57.3C209.673 57.9 210.426 58.2 211.333 58.2C212.239 58.2 212.993 57.9 213.593 57.3C214.193 56.6867 214.493 55.92 214.493 55C214.493 54.08 214.193 53.32 213.593 52.72C212.993 52.1067 212.239 51.8 211.333 51.8C210.426 51.8 209.673 52.1067 209.073 52.72C208.473 53.32 208.173 54.08 208.173 55C208.173 55.9067 208.473 56.6733 209.073 57.3Z" fill="white"/>
<g filter="url(#filter0_i_334_3)">
<path d="M60.002 13.4954C60.002 11.7401 60.3308 10.1057 60.9886 8.59217C61.6463 7.06815 62.5963 5.74906 63.8387 4.635C65.0916 3.51035 66.6158 2.62746 68.4116 1.98633C70.2178 1.3452 72.2588 1.02453 74.5349 1.02453C76.529 1.02453 78.356 1.22956 80.016 1.63943C81.6864 2.0389 83.2368 2.65369 84.6672 3.48411L82.3807 7.26793C81.9526 6.98409 81.4567 6.73184 80.8929 6.51117C80.3396 6.29039 79.7445 6.10645 79.1077 5.95934C78.4813 5.80163 77.8287 5.68075 77.1502 5.59669C76.482 5.51264 75.819 5.47057 75.1613 5.47057C73.5743 5.47057 72.1597 5.67025 70.9173 6.06962C69.6748 6.4586 68.6256 7.01033 67.7695 7.72512C66.9238 8.42931 66.2766 9.27537 65.8276 10.2634C65.3891 11.2408 65.1699 12.3183 65.1699 13.4954C65.1699 14.7147 65.3996 15.834 65.8589 16.8536C66.3184 17.8731 66.9813 18.756 67.8478 19.5023C68.7248 20.238 69.7897 20.816 71.0425 21.2365C72.3058 21.6464 73.7309 21.8514 75.3178 21.8514C76.0382 21.8514 76.7534 21.7988 77.4633 21.6937C78.1733 21.5886 78.8571 21.4467 79.5148 21.2681C80.183 21.0788 80.8251 20.8581 81.4411 20.6058C82.0571 20.3431 82.6313 20.0593 83.1638 19.7545L85.4502 23.5383C84.1138 24.4002 82.5686 25.0781 80.8147 25.5721C79.0607 26.0555 77.1971 26.2973 75.2239 26.2973C72.7078 26.2973 70.4996 25.9715 68.5995 25.3199C66.6994 24.6576 65.1124 23.7538 63.8387 22.6081C62.5651 21.4519 61.6045 20.0961 60.9572 18.5405C60.3204 16.9744 60.002 15.2928 60.002 13.4954ZM87.7679 1.32411H93.1865L99.8265 17.232L101.361 21.0788L102.567 17.232L105.01 11.4301L100.609 1.32411H105.715L107.516 6.13279L109.191 1.32411H114.297L109.896 11.4301L112.386 17.3581L113.89 21.0788L115.048 17.2949L121.72 1.32411H127.138L116.333 25.9662H111.415L109.238 21.0788L107.469 16.3333L105.699 21.0788L103.491 25.9662H98.5737L87.7679 1.32411ZM132.071 18.6351C132.959 19.1396 133.857 19.5968 134.765 20.0068C135.684 20.4062 136.634 20.7477 137.615 21.0315C138.596 21.3048 139.625 21.515 140.7 21.6622C141.786 21.8093 142.939 21.8829 144.161 21.8829C145.633 21.8829 146.886 21.7883 147.92 21.5991C148.953 21.3994 149.794 21.1313 150.441 20.795C151.099 20.4481 151.574 20.0383 151.866 19.5652C152.169 19.0923 152.321 18.5773 152.321 18.0202C152.321 17.1268 151.95 16.4226 151.208 15.9075C150.467 15.382 149.324 15.1193 147.778 15.1193C147.1 15.1193 146.385 15.1666 145.633 15.2612C144.882 15.3453 144.119 15.4399 143.347 15.545C142.584 15.65 141.828 15.7499 141.076 15.8446C140.334 15.9286 139.635 15.9707 138.978 15.9707C137.881 15.9707 136.827 15.8287 135.814 15.545C134.812 15.2612 133.919 14.8356 133.136 14.2679C132.364 13.7004 131.748 12.9909 131.288 12.1396C130.829 11.2882 130.599 10.295 130.599 9.15984C130.599 8.48713 130.688 7.81966 130.865 7.15755C131.053 6.49533 131.346 5.86469 131.742 5.26564C132.15 4.65599 132.672 4.09366 133.308 3.57866C133.945 3.05316 134.713 2.60122 135.611 2.22284C136.519 1.84446 137.563 1.55013 138.743 1.33995C139.933 1.11918 141.285 1.00879 142.799 1.00879C143.895 1.00879 144.996 1.07185 146.103 1.19798C147.21 1.31361 148.285 1.48182 149.329 1.70249C150.383 1.92326 151.396 2.19126 152.368 2.50658C153.338 2.8114 154.241 3.15295 155.077 3.53133L152.9 7.56741C152.21 7.26258 151.47 6.98409 150.676 6.73184C149.882 6.46909 149.052 6.24307 148.186 6.05388C147.319 5.86469 146.421 5.71757 145.492 5.61243C144.574 5.4968 143.634 5.43899 142.674 5.43899C141.306 5.43899 140.178 5.53888 139.291 5.73856C138.414 5.93825 137.714 6.19575 137.192 6.51117C136.67 6.81589 136.305 7.16279 136.096 7.55167C135.898 7.93005 135.799 8.30843 135.799 8.68681C135.799 9.42259 136.127 10.0269 136.785 10.4999C137.443 10.9623 138.445 11.1936 139.792 11.1936C140.334 11.1936 140.956 11.1568 141.655 11.0832C142.365 10.9992 143.107 10.9098 143.879 10.8152C144.662 10.7206 145.456 10.6365 146.26 10.563C147.074 10.4788 147.862 10.4369 148.624 10.4369C150.065 10.4369 151.339 10.5997 152.446 10.9256C153.562 11.2514 154.497 11.7191 155.249 12.3288C156.001 12.9278 156.569 13.6583 156.956 14.5201C157.342 15.3716 157.535 16.328 157.535 17.3896C157.535 18.8085 157.207 20.0751 156.548 21.1892C155.902 22.2928 154.973 23.2283 153.761 23.9955C152.56 24.7523 151.109 25.3304 149.408 25.7297C147.706 26.1186 145.811 26.3131 143.723 26.3131C142.345 26.3131 140.998 26.2237 139.682 26.0451C138.367 25.8769 137.104 25.6352 135.892 25.3199C134.692 24.9941 133.543 24.6103 132.447 24.169C131.361 23.7169 130.354 23.2229 129.425 22.6869L132.071 18.6351Z" fill="white"/>
<path d="M60.9889 8.5924L61.9071 8.99691L61.9081 8.99449L60.9889 8.5924ZM63.8391 4.63523L64.5057 5.38866L64.5061 5.38836L63.8391 4.63523ZM68.4119 1.98656L68.0786 1.03495L68.0768 1.03556L68.4119 1.98656ZM80.0163 1.63965L79.7775 2.61972L79.7847 2.62143L80.0163 1.63965ZM84.6675 3.48434L85.5237 4.00873L86.0569 3.12624L85.1681 2.61023L84.6675 3.48434ZM82.381 7.26816L81.8298 8.11079L82.6974 8.68603L83.2373 7.79254L82.381 7.26816ZM80.8933 6.5114L80.5241 7.44948L80.53 7.4518L80.8933 6.5114ZM79.108 5.95957L78.8649 6.93841L78.8743 6.94084L78.8838 6.94295L79.108 5.95957ZM77.1505 5.59692L77.0261 6.59817L77.028 6.59837L77.1505 5.59692ZM70.9176 6.06985L71.2151 7.03346L71.2225 7.03114L70.9176 6.06985ZM67.7699 7.72535L68.4086 8.5028L68.4096 8.50199L67.7699 7.72535ZM65.828 10.2636L64.9165 9.84388L64.9145 9.84832L65.828 10.2636ZM65.8592 16.8538L64.9465 17.2706L65.8592 16.8538ZM67.8481 19.5025L67.1966 20.2693L67.2065 20.2776L67.8481 19.5025ZM71.0429 21.2367L70.7259 22.194L70.7354 22.1971L71.0429 21.2367ZM79.5151 21.2683L79.7763 22.2425L79.7866 22.2396L79.5151 21.2683ZM81.4414 20.6061L81.8191 21.5407L81.8258 21.538L81.8324 21.5352L81.4414 20.6061ZM83.1641 19.7548L84.0203 19.2303L83.5146 18.3933L82.6686 18.8776L83.1641 19.7548ZM85.4505 23.5386L85.9911 24.3882L86.8157 23.8563L86.3067 23.0141L85.4505 23.5386ZM80.815 25.5723L81.0797 26.5455L81.085 26.544L80.815 25.5723ZM68.5998 25.3201L68.272 26.2736L68.2766 26.2752L68.5998 25.3201ZM63.8391 22.6084L63.1679 23.3578L63.1712 23.3608L63.8391 22.6084ZM60.9575 18.5407L60.0299 18.923L60.0331 18.9306L60.9575 18.5407ZM61.0045 13.4956C61.0045 11.8707 61.3082 10.375 61.9071 8.99691L60.0706 8.18798C59.354 9.83692 59 11.61 59 13.4956H61.0045ZM61.9081 8.99449C62.5074 7.60578 63.3709 6.40625 64.5057 5.38866L63.1724 3.8818C61.8224 5.09242 60.7857 6.53107 60.0696 8.1904L61.9081 8.99449ZM64.5061 5.38836C65.6499 4.36158 67.0571 3.54085 68.747 2.93755L68.0768 1.03556C66.1752 1.71453 64.5339 2.65947 63.172 3.8821L64.5061 5.38836ZM68.7452 2.93816C70.4263 2.34143 72.3518 2.03378 74.5352 2.03378V0.0157428C72.1665 0.0157428 70.0099 0.349426 68.0786 1.03495L68.7452 2.93816ZM74.5352 2.03378C76.4617 2.03378 78.2074 2.23195 79.7775 2.61962L80.255 0.659697C78.5053 0.227635 76.5967 0.0157428 74.5352 0.0157428V2.03378ZM79.7847 2.62143C81.3645 2.99911 82.8238 3.57879 84.1668 4.35835L85.1681 2.61023C83.6505 1.72916 82.009 1.07905 80.2479 0.657984L79.7847 2.62143ZM83.8112 2.95986L81.5248 6.74367L83.2373 7.79254L85.5237 4.00873L83.8112 2.95986ZM82.9323 6.42543C82.4357 6.09618 81.8748 5.81296 81.2566 5.57089L80.53 7.4518C81.0393 7.65118 81.4703 7.87246 81.8298 8.11079L82.9323 6.42543ZM81.2625 5.57331C80.6577 5.33206 80.0138 5.13358 79.3322 4.97608L78.8838 6.94295C79.4759 7.07978 80.0222 7.24919 80.5241 7.44938L81.2625 5.57331ZM79.3511 4.98061C78.6827 4.81241 77.9898 4.68427 77.2729 4.59547L77.028 6.59837C77.6684 6.67768 78.2804 6.7913 78.8649 6.93841L79.3511 4.98061ZM77.2748 4.59568C76.5663 4.50658 75.8619 4.46178 75.1616 4.46178V6.47981C75.7768 6.47981 76.3982 6.51916 77.0261 6.59817L77.2748 4.59568ZM75.1616 4.46178C73.4928 4.46178 71.9724 4.67166 70.6127 5.10866L71.2225 7.03114C72.3476 6.66941 73.6565 6.47981 75.1616 6.47981V4.46178ZM70.62 5.10634C69.2735 5.52791 68.1026 6.13665 67.13 6.9486L68.4096 8.50199C69.1493 7.88457 70.0769 7.38974 71.2151 7.03346L70.62 5.10634ZM67.131 6.94779C66.1708 7.74734 65.4295 8.71509 64.9165 9.84388L66.7393 10.6834C67.1243 9.83621 67.6774 9.11174 68.4086 8.5028L67.131 6.94779ZM64.9145 9.84832C64.412 10.9686 64.1679 12.1893 64.1679 13.4956H66.1724C66.1724 12.4476 66.367 11.5136 66.7413 10.6789L64.9145 9.84832ZM64.1679 13.4956C64.1679 14.8457 64.4231 16.1089 64.9465 17.2706L66.772 16.437C66.3767 15.5597 66.1724 14.584 66.1724 13.4956H64.1679ZM64.9465 17.2706C65.468 18.4281 66.2215 19.4294 67.1967 20.2693L68.4996 18.7356C67.7417 18.0829 67.1692 17.3185 66.772 16.437L64.9465 17.2706ZM67.2065 20.2776C68.1933 21.1054 69.3729 21.7399 70.7259 22.194L71.3598 20.2794C70.2072 19.8927 69.2569 19.3709 68.4898 18.7273L67.2065 20.2776ZM70.7354 22.1971C72.1153 22.6448 73.6467 22.8606 75.3181 22.8606V20.8426C73.8158 20.8426 72.4971 20.6484 71.3504 20.2763L70.7354 22.1971ZM75.3181 22.8606C76.0872 22.8606 76.851 22.8045 77.6094 22.6922L77.3179 20.6957C76.6564 20.7935 75.99 20.8426 75.3181 20.8426V22.8606ZM77.6094 22.6922C78.3562 22.5816 79.0786 22.4319 79.7762 22.2424L79.254 20.2941C78.6361 20.4619 77.991 20.596 77.3179 20.6957L77.6094 22.6922ZM79.7866 22.2396C80.4892 22.0406 81.1669 21.8078 81.8191 21.5407L81.0637 19.6714C80.4839 19.9088 79.8775 20.1175 79.2438 20.2969L79.7866 22.2396ZM81.8324 21.5352C82.4809 21.2585 83.0903 20.9576 83.6595 20.6318L82.6686 18.8776C82.1729 19.1614 81.6338 19.4281 81.0504 19.677L81.8324 21.5352ZM82.3078 20.2791L84.5942 24.063L86.3067 23.0141L84.0203 19.2303L82.3078 20.2791ZM84.9098 22.6889C83.6684 23.4895 82.2171 24.1297 80.545 24.6007L81.085 26.544C82.9208 26.027 84.5598 25.3113 85.9911 24.3882L84.9098 22.6889ZM80.5503 24.5991C78.8895 25.0569 77.1155 25.2885 75.2242 25.2885V27.3066C77.2793 27.3066 79.2325 27.0547 81.0797 26.5455L80.5503 24.5991ZM75.2242 25.2885C72.7914 25.2885 70.6966 24.9732 68.9231 24.365L68.2766 26.2752C70.3034 26.9702 72.6248 27.3066 75.2242 27.3066V25.2885ZM68.9277 24.3666C67.1311 23.7405 65.6657 22.8983 64.5069 21.8559L63.1712 23.3608C64.5599 24.6098 66.2684 25.5754 68.272 26.2736L68.9277 24.3666ZM64.5102 21.859C63.3435 20.7999 62.4708 19.566 61.8819 18.1508L60.0331 18.9306C60.7388 20.6266 61.7871 22.1044 63.1679 23.3578L64.5102 21.859ZM61.885 18.1585C61.3006 16.7211 61.0045 15.1701 61.0045 13.4956H59C59 15.4158 59.3408 17.2282 60.03 18.923L61.885 18.1585ZM87.7682 1.32434V0.315318H86.2301L86.8513 1.73188L87.7682 1.32434ZM93.1868 1.32434L94.1108 0.933445L93.8527 0.315318H93.1868V1.32434ZM99.8268 17.2322L100.757 16.8561L100.754 16.8487L100.751 16.8412L99.8268 17.2322ZM101.361 21.079L100.431 21.4552L101.475 24.0704L102.317 21.3827L101.361 21.079ZM102.567 17.2322L101.645 16.8384L101.626 16.8826L101.612 16.9285L102.567 17.2322ZM105.01 11.4304L105.933 11.8241L106.102 11.4236L105.928 11.0252L105.01 11.4304ZM100.61 1.32434V0.315318H99.0761L99.6918 1.72946L100.61 1.32434ZM105.715 1.32434L106.653 0.968356L106.408 0.315318H105.715V1.32434ZM107.516 6.13301L106.578 6.489L107.55 9.08359L108.462 6.467L107.516 6.13301ZM109.192 1.32434V0.315318H108.481L108.246 0.990354L109.192 1.32434ZM114.297 1.32434L115.215 1.72946L115.831 0.315318H114.297V1.32434ZM109.896 11.4304L108.979 11.0252L108.805 11.4231L108.973 11.8233L109.896 11.4304ZM112.386 17.3583L113.315 16.978L113.31 16.9653L112.386 17.3583ZM113.89 21.079L112.961 21.4592L114.02 24.0788L114.848 21.3763L113.89 21.079ZM115.049 17.2952L114.125 16.9041L114.106 16.9502L114.091 16.9979L115.049 17.2952ZM121.72 1.32434V0.315318H121.054L120.796 0.933241L121.72 1.32434ZM127.139 1.32434L128.056 1.73188L128.677 0.315318H127.139V1.32434ZM116.333 25.9665V26.9755H116.986L117.25 26.374L116.333 25.9665ZM111.415 25.9665L110.501 26.3793L110.766 26.9755H111.415V25.9665ZM109.239 21.079L108.3 21.4337L108.311 21.4631L108.324 21.4919L109.239 21.079ZM107.469 16.3335L108.407 15.9789L107.469 13.4626L106.531 15.9789L107.469 16.3335ZM105.699 21.079L106.612 21.4968L106.626 21.4656L106.638 21.4337L105.699 21.079ZM103.491 25.9665V26.9755H104.136L104.404 26.3842L103.491 25.9665ZM98.574 25.9665L97.657 26.374L97.9208 26.9755H98.574V25.9665ZM87.7682 2.33335H93.1868V0.315318H87.7682V2.33335ZM92.2627 1.71523L98.9027 17.6231L100.751 16.8412L94.1108 0.933445L92.2627 1.71523ZM98.8967 17.6083L100.431 21.4552L102.292 20.7029L100.757 16.8561L98.8967 17.6083ZM102.317 21.3827L103.523 17.5358L101.612 16.9285L100.406 20.7754L102.317 21.3827ZM103.49 17.6259L105.933 11.8241L104.088 11.0365L101.645 16.8384L103.49 17.6259ZM105.928 11.0252L101.528 0.919218L99.6918 1.72946L104.092 11.8354L105.928 11.0252ZM100.61 2.33335H105.715V0.315318H100.61V2.33335ZM104.777 1.68032L106.578 6.489L108.454 5.77693L106.653 0.968356L104.777 1.68032ZM108.462 6.467L110.137 1.65842L108.246 0.990354L106.57 5.79893L108.462 6.467ZM109.192 2.33335H114.297V0.315318H109.192V2.33335ZM113.379 0.919218L108.979 11.0252L110.814 11.8354L115.215 1.72946L113.379 0.919218ZM108.973 11.8233L111.463 17.7513L113.31 16.9653L110.82 11.0373L108.973 11.8233ZM111.458 17.7384L112.961 21.4592L114.818 20.6989L113.315 16.9781L111.458 17.7384ZM114.848 21.3763L116.007 17.5925L114.091 16.9979L112.932 20.7817L114.848 21.3763ZM115.973 17.6864L122.644 1.71554L120.796 0.933241L114.125 16.9041L115.973 17.6864ZM121.72 2.33335H127.139V0.315318H121.72V2.33335ZM126.222 0.916897L115.416 25.5589L117.25 26.374L128.056 1.73188L126.222 0.916897ZM116.333 24.9575H111.415V26.9755H116.333V24.9575ZM112.33 25.5537L110.153 20.6662L108.324 21.4919L110.501 26.3793L112.33 25.5537ZM110.177 20.7244L108.407 15.9789L106.531 16.6882L108.3 21.4337L110.177 20.7244ZM106.531 15.9789L104.761 20.7244L106.638 21.4337L108.407 16.6882L106.531 15.9789ZM104.787 20.6613L102.579 25.5487L104.404 26.3842L106.612 21.4968L104.787 20.6613ZM103.491 24.9575H98.574V26.9755H103.491V24.9575ZM99.4909 25.5589L88.6851 0.916897L86.8513 1.73188L97.657 26.374L99.4909 25.5589ZM132.072 18.6353L132.564 17.7567L131.749 17.2931L131.234 18.0809L132.072 18.6353ZM134.765 20.007L134.355 20.9277L134.368 20.9333L134.765 20.007ZM137.615 21.0318L137.339 22.0016L137.348 22.0043L137.615 21.0318ZM140.701 21.6624L140.565 22.6622L140.567 22.6623L140.701 21.6624ZM147.92 21.5993L148.099 22.5921L148.109 22.5903L147.92 21.5993ZM150.442 20.7953L150.901 21.6919L150.907 21.689L150.442 20.7953ZM151.867 19.5655L151.024 19.0189L151.02 19.0256L151.016 19.0324L151.867 19.5655ZM151.208 15.9078L150.632 16.7328L150.639 16.7383L151.208 15.9078ZM145.634 15.2614L145.744 16.2644L145.758 16.2626L145.634 15.2614ZM143.348 15.5452L143.213 14.5453L143.211 14.5455L143.348 15.5452ZM141.076 15.8448L141.189 16.8475L141.201 16.846L141.076 15.8448ZM135.814 15.5452L135.543 16.5165L135.546 16.5173L135.814 15.5452ZM133.137 14.2681L132.546 15.0833L132.551 15.087L133.137 14.2681ZM130.866 7.15777L129.902 6.8806L129.9 6.88766L129.898 6.89492L130.866 7.15777ZM131.743 5.26587L130.911 4.70283L130.909 4.70616L131.743 5.26587ZM133.309 3.57889L133.937 4.36562L133.944 4.35926L133.309 3.57889ZM135.611 2.22307L135.228 1.29064L135.224 1.29225L135.611 2.22307ZM138.743 1.34018L138.918 2.33376L138.925 2.33245L138.743 1.34018ZM146.104 1.19821L145.991 2.20087L146 2.20188L146.104 1.19821ZM149.329 1.70272L149.124 2.69025L149.126 2.69065L149.329 1.70272ZM152.368 2.50681L152.06 3.46719L152.069 3.47012L152.368 2.50681ZM155.077 3.53156L155.958 4.01307L156.473 3.05763L155.488 2.61144L155.077 3.53156ZM152.9 7.56763L152.497 8.49139L153.341 8.86483L153.781 8.04914L152.9 7.56763ZM150.676 6.73207L150.363 7.69064L150.374 7.69427L150.676 6.73207ZM145.492 5.61266L145.368 6.61401L145.381 6.61543L145.492 5.61266ZM139.291 5.73879L139.072 4.75409L139.07 4.75469L139.291 5.73879ZM137.193 6.5114L137.695 7.3842L137.702 7.38046L137.708 7.37653L137.193 6.5114ZM136.096 7.5519L135.215 7.07211L135.21 7.08089L136.096 7.5519ZM136.785 10.5001L136.203 11.3213L136.212 11.3273L136.785 10.5001ZM141.656 11.0835L141.76 12.0871L141.773 12.0856L141.656 11.0835ZM143.88 10.8155L143.76 9.81361L143.758 9.81381L143.88 10.8155ZM146.26 10.5632L146.35 11.5681L146.362 11.567L146.26 10.5632ZM152.446 10.9259L152.164 11.8942L152.166 11.895L152.446 10.9259ZM155.249 12.329L154.62 13.1148L154.627 13.1201L155.249 12.329ZM156.956 14.5204L156.042 14.9354L156.044 14.9396L156.956 14.5204ZM156.548 21.1894L155.687 20.6739L155.685 20.6764L156.548 21.1894ZM153.761 23.9958L154.293 24.851L154.295 24.8497L153.761 23.9958ZM149.408 25.73L149.63 26.714L149.636 26.7126L149.408 25.73ZM139.683 26.0453L139.817 25.0453L139.809 25.0443L139.683 26.0453ZM135.893 25.3201L135.632 26.2944L135.642 26.2969L135.893 25.3201ZM132.447 24.1692L132.064 25.1016L132.075 25.106L132.447 24.1692ZM129.425 22.6872L128.588 22.1328L128.002 23.0292L128.927 23.5626L129.425 22.6872ZM131.579 19.5139C132.493 20.0335 133.418 20.5048 134.355 20.9277L135.175 19.0862C134.296 18.6893 133.426 18.2463 132.564 17.7567L131.579 19.5139ZM134.368 20.9333C135.327 21.3501 136.317 21.7061 137.339 22.0015L137.892 20.0619C136.951 19.7898 136.041 19.4626 135.163 19.0806L134.368 20.9333ZM137.348 22.0043C138.376 22.2904 139.449 22.5094 140.565 22.6622L140.836 20.6626C139.802 20.5211 138.818 20.3197 137.883 20.0593L137.348 22.0043ZM140.567 22.6623C141.702 22.8162 142.901 22.8921 144.161 22.8921V20.8741C142.98 20.8741 141.871 20.8029 140.834 20.6624L140.567 22.6623ZM144.161 22.8921C145.672 22.8921 146.989 22.7954 148.099 22.592L147.74 20.6066C146.784 20.7816 145.596 20.8741 144.161 20.8741V22.8921ZM148.109 22.5903C149.199 22.3797 150.14 22.0874 150.901 21.6919L149.982 19.8986C149.448 20.1757 148.709 20.4196 147.731 20.6084L148.109 22.5903ZM150.907 21.689C151.67 21.2863 152.304 20.7679 152.718 20.0986L151.016 19.0324C150.844 19.3091 150.528 19.6105 149.977 19.9015L150.907 21.689ZM152.709 20.1121C153.115 19.4779 153.323 18.7735 153.323 18.0205H151.319C151.319 18.3816 151.223 18.7072 151.024 19.0189L152.709 20.1121ZM153.323 18.0205C153.323 16.7896 152.786 15.7774 151.778 15.0774L150.639 16.7383C151.114 17.0682 151.319 17.4646 151.319 18.0205H153.323ZM151.786 15.0828C150.793 14.3794 149.4 14.1105 147.779 14.1105V16.1285C149.248 16.1285 150.141 16.3851 150.632 16.7328L151.786 15.0828ZM147.779 14.1105C147.055 14.1105 146.297 14.161 145.509 14.2601L145.758 16.2626C146.473 16.1726 147.146 16.1285 147.779 16.1285V14.1105ZM145.522 14.2585C144.763 14.3436 143.993 14.4391 143.213 14.5453L143.482 16.5452C144.247 16.441 145 16.3474 145.744 16.2643L145.522 14.2585ZM143.211 14.5455C142.452 14.6501 141.7 14.7494 140.952 14.8436L141.201 16.846C141.956 16.7509 142.717 16.6505 143.483 16.5449L143.211 14.5455ZM140.964 14.842C140.256 14.9225 139.594 14.9619 138.978 14.9619V16.98C139.678 16.98 140.415 16.9352 141.189 16.8475L140.964 14.842ZM138.978 14.9619C137.969 14.9619 137.005 14.8314 136.083 14.5732L135.546 16.5173C136.65 16.8266 137.795 16.98 138.978 16.98V14.9619ZM136.086 14.5739C135.187 14.3195 134.403 13.9427 133.722 13.4493L132.551 15.087C133.436 15.7288 134.437 16.2033 135.543 16.5165L136.086 14.5739ZM133.727 13.4531C133.075 12.9743 132.558 12.3789 132.169 11.6581L130.408 12.6214C130.938 13.6033 131.652 14.4269 132.546 15.0832L133.727 13.4531ZM132.169 11.6581C131.802 10.9781 131.602 10.1559 131.602 9.16007H129.597C129.597 10.4345 129.856 11.5987 130.408 12.6214L132.169 11.6581ZM131.602 9.16007C131.602 8.57786 131.679 7.99879 131.833 7.42062L129.898 6.89492C129.698 7.64109 129.597 8.39685 129.597 9.16007H131.602ZM131.829 7.43495C131.988 6.87767 132.235 6.34178 132.577 5.82557L130.909 4.70616C130.457 5.38806 130.12 6.11354 129.902 6.8806L131.829 7.43495ZM132.574 5.8289C132.919 5.31319 133.369 4.82432 133.937 4.36552L132.681 2.79226C131.975 3.36346 131.381 3.99934 130.911 4.70283L132.574 5.8289ZM133.944 4.35926C134.494 3.90581 135.174 3.50109 135.998 3.15379L135.224 1.29225C134.252 1.70171 133.398 2.20097 132.673 2.79851L133.944 4.35926ZM135.994 3.1554C136.823 2.81022 137.794 2.53385 138.918 2.33366L138.568 0.3466C137.332 0.566868 136.216 0.879059 135.228 1.29064L135.994 3.1554ZM138.925 2.33245C140.042 2.1252 141.332 2.01804 142.799 2.01804V0C141.239 0 139.824 0.113615 138.561 0.347808L138.925 2.33245ZM142.799 2.01804C143.857 2.01804 144.921 2.07888 145.991 2.20087L146.216 0.19565C145.072 0.0652845 143.934 0 142.799 0V2.01804ZM146 2.20188C147.074 2.31408 148.114 2.47694 149.124 2.69025L149.536 0.715293C148.456 0.487053 147.347 0.313705 146.207 0.194641L146 2.20188ZM149.126 2.69065C150.147 2.90446 151.125 3.16347 152.06 3.46709L152.676 1.54653C151.668 1.2195 150.621 0.942524 149.534 0.714889L149.126 2.69065ZM152.069 3.47012C153.005 3.76414 153.87 4.09167 154.665 4.45169L155.488 2.61144C154.612 2.21469 153.671 1.85912 152.666 1.5435L152.069 3.47012ZM154.196 3.05016L152.019 7.08624L153.781 8.04914L155.958 4.01307L154.196 3.05016ZM153.303 6.64388C152.577 6.32301 151.803 6.03201 150.978 5.76987L150.374 7.69427C151.137 7.93664 151.844 8.20271 152.497 8.49139L153.303 6.64388ZM150.99 5.7736C150.161 5.49925 149.297 5.26425 148.399 5.068L147.974 7.04022C148.808 7.22245 149.605 7.43939 150.363 7.69054L150.99 5.7736ZM148.399 5.068C147.497 4.87124 146.566 4.71867 145.605 4.61L145.381 6.61543C146.278 6.71693 147.142 6.8587 147.974 7.04022L148.399 5.068ZM145.617 4.61142C144.655 4.49043 143.674 4.4302 142.674 4.4302V6.44823C143.594 6.44823 144.492 6.50373 145.368 6.61391L145.617 4.61142ZM142.674 4.4302C141.266 4.4302 140.058 4.53231 139.072 4.75409L139.51 6.72349C140.3 6.54591 141.347 6.44823 142.674 6.44823V4.4302ZM139.07 4.75469C138.134 4.9678 137.323 5.25608 136.677 5.64616L137.708 7.37653C138.107 7.13598 138.694 6.90915 139.512 6.72299L139.07 4.75469ZM136.69 5.63849C136.065 6.00305 135.538 6.46922 135.215 7.07211L136.978 8.03168C137.072 7.85682 137.276 7.62929 137.695 7.3842L136.69 5.63849ZM135.21 7.08089C134.946 7.58529 134.797 8.12411 134.797 8.68704H136.801C136.801 8.49321 136.85 8.27526 136.983 8.02291L135.21 7.08089ZM134.797 8.68704C134.797 9.78687 135.314 10.6822 136.203 11.3212L137.368 9.67901C136.941 9.37216 136.801 9.05876 136.801 8.68704H134.797ZM136.212 11.3273C137.117 11.9642 138.366 12.2029 139.792 12.2029V10.1848C138.525 10.1848 137.769 9.96093 137.359 9.67285L136.212 11.3273ZM139.792 12.2029C140.379 12.2029 141.035 12.1632 141.76 12.087L141.551 10.0799C140.877 10.1508 140.292 10.1848 139.792 10.1848V12.2029ZM141.773 12.0856C142.485 12.0014 143.227 11.9119 144.001 11.8171L143.758 9.81381C142.987 9.90825 142.247 9.99745 141.538 10.0813L141.773 12.0856ZM143.999 11.8173C144.773 11.7239 145.557 11.6407 146.35 11.5681L146.169 9.55833C145.356 9.63269 144.553 9.71785 143.76 9.81361L143.999 11.8173ZM146.362 11.567C147.145 11.4861 147.899 11.4461 148.624 11.4461V9.42807C147.826 9.42807 147.004 9.47206 146.158 9.55944L146.362 11.567ZM148.624 11.4461C149.993 11.4461 151.168 11.6011 152.164 11.8942L152.727 9.9574C151.51 9.59889 150.138 9.42807 148.624 9.42807V11.4461ZM152.166 11.895C153.182 12.1911 153.991 12.6042 154.62 13.1147L155.878 11.5432C155.004 10.8344 153.944 10.3122 152.725 9.95659L152.166 11.895ZM154.627 13.1201C155.255 13.6212 155.724 14.2237 156.042 14.9354L157.869 14.1055C157.416 13.0934 156.746 12.235 155.871 11.5378L154.627 13.1201ZM156.044 14.9396C156.363 15.6428 156.533 16.4535 156.533 17.3898H158.538C158.538 16.203 158.321 15.1008 157.867 14.1012L156.044 14.9396ZM156.533 17.3898C156.533 18.645 156.245 19.7303 155.687 20.6739L157.41 21.7049C158.169 20.4202 158.538 18.9725 158.538 17.3898H156.533ZM155.685 20.6764C155.129 21.6252 154.32 22.4493 153.228 23.1417L154.295 24.8497C155.624 24.0076 156.674 22.9609 157.412 21.7025L155.685 20.6764ZM153.23 23.1405C152.141 23.8262 150.798 24.3675 149.18 24.7473L149.636 26.7126C151.421 26.2936 152.98 25.6788 154.293 24.851L153.23 23.1405ZM149.186 24.746C147.569 25.1154 145.751 25.3044 143.723 25.3044V27.3224C145.871 27.3224 147.843 27.1224 149.63 26.714L149.186 24.746ZM143.723 25.3044C142.388 25.3044 141.086 25.2178 139.817 25.0453L139.549 27.0452C140.91 27.2302 142.302 27.3224 143.723 27.3224V25.3044ZM139.809 25.0443C138.533 24.8812 137.311 24.6472 136.144 24.3432L135.642 26.2969C136.896 26.6235 138.201 26.8731 139.556 27.0463L139.809 25.0443ZM136.154 24.3458C134.989 24.0298 133.878 23.6583 132.82 23.2323L132.075 25.106C133.21 25.5629 134.395 25.9588 135.632 26.2943L136.154 24.3458ZM132.83 23.2367C131.781 22.7997 130.812 22.3243 129.923 21.8117L128.927 23.5626C129.896 24.1221 130.943 24.6348 132.064 25.1016L132.83 23.2367ZM130.262 23.2415L132.909 19.1897L131.234 18.0809L128.588 22.1328L130.262 23.2415Z" fill="white"/>
</g>
<defs>
<filter id="filter0_i_334_3" x="59" y="0" width="105.538" height="33.3223" filterUnits="userSpaceOnUse" color-interpolation-filters="sRGB">
<feFlood flood-opacity="0" result="BackgroundImageFix"/>
<feBlend mode="normal" in="SourceGraphic" in2="BackgroundImageFix" result="shape"/>
<feColorMatrix in="SourceAlpha" type="matrix" values="0 0 0 0 0 0 0 0 0 0 0 0 0 0 0 0 0 0 127 0" result="hardAlpha"/>
<feOffset dx="6" dy="6"/>
<feGaussianBlur stdDeviation="8"/>
<feComposite in2="hardAlpha" operator="arithmetic" k2="-1" k3="1"/>
<feColorMatrix type="matrix" values="0 0 0 0 0 0 0 0 0 0 0 0 0 0 0 0 0 0 0.25 0"/>
<feBlend mode="normal" in2="shape" result="effect1_innerShadow_334_3"/>
</filter>
</defs>
</svg>
