<svg width="157" height="94" viewBox="0 0 157 94" fill="none" xmlns="http://www.w3.org/2000/svg">
<g filter="url(#filter0_d_101_241)">
<ellipse cx="47.5" cy="47" rx="28.5" ry="28" fill="url(#paint0_linear_101_241)"/>
</g>
<path d="M31.896 38.224V55H36.408V42.112L44.016 55H51.36V38.224H46.848V51.112L39.168 38.224H31.896ZM78.2334 41.896V38.224H58.7694V55H63.2334V48.448H75.9054V44.776H63.2334V41.896H78.2334ZM90.2081 38.224C85.5281 38.224 84.0641 40.384 84.0641 44.992V48.496C84.0641 53.272 86.1281 55.024 90.8081 55.024H103.528V48.976H99.0641V51.352H90.9281C89.3681 51.352 88.6721 50.896 88.6721 48.736V44.752C88.6721 43 89.2481 41.896 90.9041 41.896H99.0641V44.248H103.528V38.224H90.2081ZM124.632 48.736V45.088H109.704V48.736H124.632ZM147.678 38.224L142.95 47.344L138.246 38.224H131.046V55H135.51V42.112L142.302 55H143.622L150.414 42.112V55H154.878V38.224H147.678Z" fill="white"/>
<defs>
<filter id="filter0_d_101_241" x="0" y="0" width="95" height="94" filterUnits="userSpaceOnUse" color-interpolation-filters="sRGB">
<feFlood flood-opacity="0" result="BackgroundImageFix"/>
<feColorMatrix in="SourceAlpha" type="matrix" values="0 0 0 0 0 0 0 0 0 0 0 0 0 0 0 0 0 0 127 0" result="hardAlpha"/>
<feMorphology radius="2" operator="dilate" in="SourceAlpha" result="effect1_dropShadow_101_241"/>
<feOffset/>
<feGaussianBlur stdDeviation="8.5"/>
<feComposite in2="hardAlpha" operator="out"/>
<feColorMatrix type="matrix" values="0 0 0 0 0.85 0 0 0 0 0.85 0 0 0 0 0.85 0 0 0 0.25 0"/>
<feBlend mode="normal" in2="BackgroundImageFix" result="effect1_dropShadow_101_241"/>
<feBlend mode="normal" in="SourceGraphic" in2="effect1_dropShadow_101_241" result="shape"/>
</filter>
<linearGradient id="paint0_linear_101_241" x1="24" y1="23" x2="69" y2="78.5" gradientUnits="userSpaceOnUse">
<stop offset="0.166667" stop-color="#C10FFF"/>
<stop offset="0.494792" stop-color="#1045FF"/>
<stop offset="0.953125" stop-color="white"/>
</linearGradient>
</defs>
</svg>
