<svg width="39" height="39" viewBox="0 0 39 39" fill="none" xmlns="http://www.w3.org/2000/svg">
<path d="M32.7005 5.17922C32.2779 5.19786 31.8842 5.32095 31.5376 5.46105C31.2129 5.59166 29.9724 6.12371 28.0185 6.96164C26.0628 7.80029 23.4733 8.91204 20.711 10.0999C15.1865 12.4757 8.97538 15.15 5.79404 16.5187C5.67441 16.5701 5.257 16.7035 4.81396 17.0493C4.37093 17.3952 3.8999 18.1119 3.8999 18.9105C3.8999 19.5544 4.20679 20.1941 4.59307 20.5761C4.97934 20.958 5.38807 21.1467 5.73818 21.2896C7.0085 21.8079 10.9483 23.4202 11.6923 23.7245C11.9541 24.5266 13.3801 28.8888 13.7108 29.9579C13.9288 30.6634 14.1364 31.1053 14.4065 31.456C14.5416 31.6313 14.6987 31.785 14.889 31.9054C14.965 31.9535 15.0484 31.9906 15.1327 32.0247L15.1378 32.0273C15.1572 32.0351 15.174 32.0483 15.1937 32.0552C15.2308 32.0682 15.2557 32.0698 15.3054 32.0806C15.5034 32.1445 15.7033 32.1847 15.8817 32.1847C16.6424 32.1847 17.1081 31.7657 17.1081 31.7657L17.136 31.7454L21.0487 28.3609L25.7942 32.8499C25.8611 32.9444 26.4842 33.7995 27.8585 33.7995C28.6745 33.7995 29.3218 33.3901 29.7374 32.954C30.153 32.518 30.4119 32.0599 30.522 31.4839V31.4814C30.6249 30.9371 34.9983 8.48508 34.9983 8.48508L34.9907 8.51554C35.1187 7.93118 35.1523 7.38696 35.011 6.84992C34.8698 6.31288 34.4975 5.79869 34.036 5.52199C33.5746 5.24536 33.1231 5.16057 32.7005 5.17922ZM32.4567 7.89601C32.4505 7.93395 32.4614 7.91488 32.4517 7.95949L32.4491 7.97472L32.4466 7.98996C32.4466 7.98996 28.1273 30.1548 27.9677 30.9989C27.9794 30.9352 27.9259 31.0619 27.8712 31.1386C27.7938 31.0852 27.6351 31.0167 27.6351 31.0167L27.6097 30.9888L21.1274 24.857L16.5444 28.8179L17.9079 23.3589C17.9079 23.3589 26.4309 14.5363 26.9444 14.0228C27.3578 13.612 27.4446 13.4688 27.4446 13.3271C27.4446 13.1373 27.3457 12.9995 27.1247 12.9995C26.9258 12.9995 26.6583 13.1929 26.5153 13.2839C24.6523 14.4715 16.4733 19.2384 12.8069 21.3708C12.2243 21.1324 8.17647 19.4754 6.80459 18.9155C6.81498 18.911 6.81156 18.9126 6.82236 18.9079C10.0045 17.5388 16.213 14.8646 21.7368 12.4892C24.4987 11.3015 27.0902 10.1889 29.0442 9.3509C30.9682 8.52582 32.3051 7.95799 32.4567 7.89601Z" fill="white"/>
</svg>
