<svg width="39" height="39" viewBox="0 0 39 39" fill="none" xmlns="http://www.w3.org/2000/svg">
<path d="M19.5001 1.55957C9.60131 1.55957 1.56006 9.60082 1.56006 19.4996C1.56006 29.3983 9.60131 37.4396 19.5001 37.4396C29.3988 37.4396 37.4401 29.3983 37.4401 19.4996C37.4401 9.60082 29.3988 1.55957 19.5001 1.55957ZM19.5001 3.11957C28.5557 3.11957 35.8801 10.4439 35.8801 19.4996C35.8801 28.5552 28.5557 35.8796 19.5001 35.8796C10.4444 35.8796 3.12006 28.5552 3.12006 19.4996C3.12006 10.4439 10.4444 3.11957 19.5001 3.11957ZM11.7016 14.0396L8.55416 14.0411C8.55416 14.0411 8.37406 14.0309 8.15654 14.0594C7.93903 14.0878 7.61769 14.101 7.28818 14.4738L7.28666 14.4753L7.28514 14.4768C6.99204 14.812 7.00322 15.2021 7.03986 15.4168C7.07637 15.6306 7.15809 15.7903 7.15869 15.7915V15.793C7.18895 15.8673 9.47423 21.4667 12.3551 24.4751C14.3872 26.5986 16.5606 27.2996 18.4961 27.2996H19.5001C19.8304 27.2996 20.1253 27.2845 20.4522 27.1152C20.7791 26.9459 21.0601 26.4787 21.0601 26.1159C21.0601 25.7249 21.0697 25.346 21.1195 25.1348C21.166 24.9375 21.148 24.9859 21.1667 24.9855C21.1854 24.9895 21.2194 24.9974 21.284 25.0266C21.4232 25.0895 21.6382 25.2299 21.8766 25.4151C22.3528 25.7848 22.9169 26.3211 23.5494 26.7359C24.4553 27.3363 25.4384 27.2996 25.4384 27.2996H28.6803L28.7153 27.2965C28.7153 27.2965 29.2128 27.2852 29.7238 26.972C29.9794 26.8154 30.2831 26.5282 30.385 26.0976C30.487 25.667 30.3568 25.2152 30.1062 24.8179C30.0147 24.6722 29.5704 24.0282 27.7967 22.4535C27.3385 22.0471 27.026 21.7594 26.9024 21.6065C26.8586 21.5522 26.8549 21.5574 26.8461 21.5547C26.8564 21.528 26.9589 21.3122 27.233 20.956C27.5187 20.5847 27.9529 20.0674 28.5112 19.3564C29.2227 18.4499 29.722 17.5782 30.0362 16.8427C30.1932 16.4749 30.3046 16.1412 30.3713 15.8388C30.438 15.5363 30.4913 15.2848 30.3926 14.9262C30.3191 14.6593 30.1193 14.4202 29.9234 14.294C29.7276 14.1678 29.545 14.1202 29.3811 14.0898C29.0533 14.029 28.7641 14.0396 28.4944 14.0396C27.9299 14.0396 25.4201 14.0594 25.2129 14.0594C24.9698 14.0594 24.582 14.1606 24.4025 14.2635C23.9569 14.5187 23.8175 14.8683 23.8175 14.8683L23.7748 14.943L23.7505 15.0268C23.7505 15.0268 23.179 16.8755 22.5911 17.8284H22.5896C21.8984 18.9509 21.3828 19.3961 21.156 19.5224C21.132 19.5358 21.1453 19.5287 21.1286 19.5377C21.1109 19.486 21.0885 19.4149 21.0738 19.2832C21.0406 18.9867 21.0601 18.569 21.0601 18.165C21.0601 17.0462 21.1441 16.3485 21.0509 15.6879C21.0043 15.3576 20.8857 14.9898 20.6152 14.7068C20.3447 14.4239 19.9953 14.2846 19.6463 14.2041H19.6448C19.2811 14.1204 18.8892 14.0484 17.9477 14.0396C16.748 14.0284 15.9668 14.0656 15.2725 14.3747L15.2649 14.3793L15.2588 14.3823C14.9845 14.5112 14.7683 14.6589 14.5778 14.8561C14.4826 14.9548 14.3697 15.0266 14.2914 15.3406C14.2523 15.4976 14.248 15.7946 14.4255 16.0353C14.603 16.2759 14.8517 16.3485 14.9983 16.3674C14.9713 16.3639 15.1137 16.3952 15.2238 16.4496C15.3339 16.5041 15.4295 16.5825 15.4538 16.6142V16.6157C15.4436 16.6025 15.5494 16.8652 15.5772 17.1047C15.6051 17.3442 15.6001 17.5374 15.6001 17.5374L15.5985 17.5846L15.6031 17.6318C15.6031 17.6318 15.651 18.1618 15.626 18.7089C15.6134 18.9825 15.5789 19.2578 15.533 19.4264C15.5306 19.4354 15.5295 19.4322 15.5269 19.4402C15.3316 19.3038 14.8813 18.8285 14.261 17.804C13.6875 16.8562 13.1504 15.1517 13.1504 15.1517L13.1382 15.1136L13.1245 15.077C13.1245 15.077 13.0243 14.6962 12.5821 14.3854C12.1677 14.0936 11.7732 14.0533 11.7732 14.0533L11.7016 14.0396ZM11.5203 15.5996C11.5649 15.6159 11.6582 15.6495 11.6757 15.6575L11.6574 15.6026C11.6574 15.6026 11.6814 15.6578 11.6818 15.659C11.682 15.6591 11.6847 15.6604 11.6848 15.6605V15.662H11.6863C11.6471 15.6346 11.6804 15.6618 11.6848 15.6681C11.7064 15.7416 12.1826 17.3822 12.9264 18.6114C13.604 19.7304 14.1046 20.3573 14.651 20.732C15.1968 21.1064 15.9308 21.0678 16.3039 20.8737C16.8025 20.6148 16.9419 20.1892 17.0382 19.8347C17.1345 19.4803 17.1689 19.1206 17.1844 18.7805C17.2141 18.1316 17.1633 17.6007 17.1585 17.548C17.1593 17.5187 17.1663 17.2652 17.1265 16.9234C17.0865 16.5791 17.0147 16.1511 16.7091 15.7214C17.0515 15.6706 17.2415 15.5931 17.9324 15.5996C18.8136 15.6079 18.9476 15.6446 19.2944 15.7245C19.4833 15.768 19.5042 15.8041 19.4863 15.7854C19.4685 15.7667 19.4848 15.7542 19.5062 15.9058C19.5489 16.2088 19.5001 16.986 19.5001 18.165C19.5001 18.4974 19.468 18.9661 19.5229 19.4569C19.5778 19.9474 19.7311 20.5751 20.3242 20.9423C20.6622 21.1514 21.3078 21.2233 21.9162 20.8844C22.5247 20.5454 23.1491 19.8951 23.918 18.6464C24.6776 17.4153 25.1318 15.7966 25.181 15.6255C25.181 15.6255 25.1896 15.6198 25.1947 15.6163C25.2085 15.617 25.1909 15.6194 25.2129 15.6194C25.5019 15.6194 27.967 15.5996 28.4944 15.5996C28.6395 15.5996 28.7032 15.6074 28.8113 15.6118C28.7676 15.7802 28.7089 15.9763 28.6011 16.2288C28.3476 16.8222 27.9126 17.5919 27.2833 18.3936C26.741 19.0842 26.3197 19.5852 25.9975 20.0038C25.6753 20.4225 25.4223 20.7527 25.3165 21.2302C25.2108 21.7077 25.4125 22.2462 25.6883 22.5876C25.964 22.9289 26.3052 23.2164 26.7608 23.6205C28.4768 25.144 28.7584 25.6051 28.7854 25.6482V25.6497C28.8144 25.6956 28.7956 25.6494 28.8067 25.6725C28.7094 25.7029 28.5936 25.7372 28.5828 25.7396H25.4262H25.4217C25.4217 25.7396 24.8411 25.7205 24.4101 25.4349L24.4086 25.4334H24.4071C23.9511 25.1347 23.4 24.6226 22.8333 24.1826C22.55 23.9626 22.2615 23.7565 21.9269 23.6052C21.5923 23.454 21.1682 23.3467 20.7219 23.4803C20.0758 23.6737 19.7173 24.2885 19.6021 24.7768C19.5195 25.1272 19.5317 25.432 19.529 25.738C19.5068 25.7392 19.526 25.7396 19.5001 25.7396H18.4961C16.9108 25.7396 15.2615 25.2556 13.4825 23.3965C11.1696 20.9813 9.10614 16.3106 8.79639 15.6011L11.5203 15.5996ZM25.1261 15.6057C25.112 15.6088 25.1525 15.6119 25.1855 15.6148C25.1811 15.6172 25.1859 15.6127 25.1794 15.6163C25.1788 15.6033 25.1451 15.6014 25.1261 15.6057Z" fill="white"/>
</svg>
